<svg width="115" height="57" viewBox="0 0 115 57" fill="none" xmlns="http://www.w3.org/2000/svg">
<path d="M50.75 7.5L33.5 33H81.5L68.375 16.125L62.75 22.5L50.75 7.5Z" fill="#D5DCEB"/>
<circle cx="72.5" cy="5.25" r="5.25" fill="#D5DCEB"/>
<path d="M6.14062 50.2871H7.26562C7.20703 50.8262 7.05273 51.3086 6.80273 51.7344C6.55273 52.1602 6.19922 52.498 5.74219 52.748C5.28516 52.9941 4.71484 53.1172 4.03125 53.1172C3.53125 53.1172 3.07617 53.0234 2.66602 52.8359C2.25977 52.6484 1.91016 52.3828 1.61719 52.0391C1.32422 51.6914 1.09766 51.2754 0.9375 50.791C0.78125 50.3027 0.703125 49.7598 0.703125 49.1621V48.3125C0.703125 47.7148 0.78125 47.1738 0.9375 46.6895C1.09766 46.2012 1.32617 45.7832 1.62305 45.4355C1.92383 45.0879 2.28516 44.8203 2.70703 44.6328C3.12891 44.4453 3.60352 44.3516 4.13086 44.3516C4.77539 44.3516 5.32031 44.4727 5.76562 44.7148C6.21094 44.957 6.55664 45.293 6.80273 45.7227C7.05273 46.1484 7.20703 46.6426 7.26562 47.2051H6.14062C6.08594 46.8066 5.98438 46.4648 5.83594 46.1797C5.6875 45.8906 5.47656 45.668 5.20312 45.5117C4.92969 45.3555 4.57227 45.2773 4.13086 45.2773C3.75195 45.2773 3.41797 45.3496 3.12891 45.4941C2.84375 45.6387 2.60352 45.8438 2.4082 46.1094C2.2168 46.375 2.07227 46.6934 1.97461 47.0645C1.87695 47.4355 1.82812 47.8477 1.82812 48.3008V49.1621C1.82812 49.5801 1.87109 49.9727 1.95703 50.3398C2.04688 50.707 2.18164 51.0293 2.36133 51.3066C2.54102 51.584 2.76953 51.8027 3.04688 51.9629C3.32422 52.1191 3.65234 52.1973 4.03125 52.1973C4.51172 52.1973 4.89453 52.1211 5.17969 51.9688C5.46484 51.8164 5.67969 51.5977 5.82422 51.3125C5.97266 51.0273 6.07812 50.6855 6.14062 50.2871ZM9.82031 44V53H8.73047V44H9.82031ZM12.7383 46.6602V53H11.6484V46.6602H12.7383ZM11.5664 44.9785C11.5664 44.8027 11.6191 44.6543 11.7246 44.5332C11.834 44.4121 11.9941 44.3516 12.2051 44.3516C12.4121 44.3516 12.5703 44.4121 12.6797 44.5332C12.793 44.6543 12.8496 44.8027 12.8496 44.9785C12.8496 45.1465 12.793 45.291 12.6797 45.4121C12.5703 45.5293 12.4121 45.5879 12.2051 45.5879C11.9941 45.5879 11.834 45.5293 11.7246 45.4121C11.6191 45.291 11.5664 45.1465 11.5664 44.9785ZM17.0156 52.2266C17.2734 52.2266 17.5117 52.1738 17.7305 52.0684C17.9492 51.9629 18.1289 51.8184 18.2695 51.6348C18.4102 51.4473 18.4902 51.2344 18.5098 50.9961H19.541C19.5215 51.3711 19.3945 51.7207 19.1602 52.0449C18.9297 52.3652 18.627 52.625 18.252 52.8242C17.877 53.0195 17.4648 53.1172 17.0156 53.1172C16.5391 53.1172 16.123 53.0332 15.7676 52.8652C15.416 52.6973 15.123 52.4668 14.8887 52.1738C14.6582 51.8809 14.4844 51.5449 14.3672 51.166C14.2539 50.7832 14.1973 50.3789 14.1973 49.9531V49.707C14.1973 49.2812 14.2539 48.8789 14.3672 48.5C14.4844 48.1172 14.6582 47.7793 14.8887 47.4863C15.123 47.1934 15.416 46.9629 15.7676 46.7949C16.123 46.627 16.5391 46.543 17.0156 46.543C17.5117 46.543 17.9453 46.6445 18.3164 46.8477C18.6875 47.0469 18.9785 47.3203 19.1895 47.668C19.4043 48.0117 19.5215 48.4023 19.541 48.8398H18.5098C18.4902 48.5781 18.416 48.3418 18.2871 48.1309C18.1621 47.9199 17.9902 47.752 17.7715 47.627C17.5566 47.498 17.3047 47.4336 17.0156 47.4336C16.6836 47.4336 16.4043 47.5 16.1777 47.6328C15.9551 47.7617 15.7773 47.9375 15.6445 48.1602C15.5156 48.3789 15.4219 48.623 15.3633 48.8926C15.3086 49.1582 15.2812 49.4297 15.2812 49.707V49.9531C15.2812 50.2305 15.3086 50.5039 15.3633 50.7734C15.418 51.043 15.5098 51.2871 15.6387 51.5059C15.7715 51.7246 15.9492 51.9004 16.1719 52.0332C16.3984 52.1621 16.6797 52.2266 17.0156 52.2266ZM21.8496 44V53H20.7598V44H21.8496ZM25.7227 46.6602L22.957 49.6191L21.4102 51.2246L21.3223 50.0703L22.4297 48.7461L24.3984 46.6602H25.7227ZM24.7324 53L22.4707 49.9766L23.0332 49.0098L26.0098 53H24.7324ZM32.4727 46.6602V47.4922H29.0449V46.6602H32.4727ZM30.2051 45.1191H31.2891V51.4297C31.2891 51.6445 31.3223 51.8066 31.3887 51.916C31.4551 52.0254 31.541 52.0977 31.6465 52.1328C31.752 52.168 31.8652 52.1855 31.9863 52.1855C32.0762 52.1855 32.1699 52.1777 32.2676 52.1621C32.3691 52.1426 32.4453 52.127 32.4961 52.1152L32.502 53C32.416 53.0273 32.3027 53.0527 32.1621 53.0762C32.0254 53.1035 31.8594 53.1172 31.6641 53.1172C31.3984 53.1172 31.1543 53.0645 30.9316 52.959C30.709 52.8535 30.5312 52.6777 30.3984 52.4316C30.2695 52.1816 30.2051 51.8457 30.2051 51.4238V45.1191ZM33.3398 49.9004V49.7656C33.3398 49.3086 33.4062 48.8848 33.5391 48.4941C33.6719 48.0996 33.8633 47.7578 34.1133 47.4688C34.3633 47.1758 34.666 46.9492 35.0215 46.7891C35.377 46.625 35.7754 46.543 36.2168 46.543C36.6621 46.543 37.0625 46.625 37.418 46.7891C37.7773 46.9492 38.082 47.1758 38.332 47.4688C38.5859 47.7578 38.7793 48.0996 38.9121 48.4941C39.0449 48.8848 39.1113 49.3086 39.1113 49.7656V49.9004C39.1113 50.3574 39.0449 50.7812 38.9121 51.1719C38.7793 51.5625 38.5859 51.9043 38.332 52.1973C38.082 52.4863 37.7793 52.7129 37.4238 52.877C37.0723 53.0371 36.6738 53.1172 36.2285 53.1172C35.7832 53.1172 35.3828 53.0371 35.0273 52.877C34.6719 52.7129 34.3672 52.4863 34.1133 52.1973C33.8633 51.9043 33.6719 51.5625 33.5391 51.1719C33.4062 50.7812 33.3398 50.3574 33.3398 49.9004ZM34.4238 49.7656V49.9004C34.4238 50.2168 34.4609 50.5156 34.5352 50.7969C34.6094 51.0742 34.7207 51.3203 34.8691 51.5352C35.0215 51.75 35.2109 51.9199 35.4375 52.0449C35.6641 52.166 35.9277 52.2266 36.2285 52.2266C36.5254 52.2266 36.7852 52.166 37.0078 52.0449C37.2344 51.9199 37.4219 51.75 37.5703 51.5352C37.7188 51.3203 37.8301 51.0742 37.9043 50.7969C37.9824 50.5156 38.0215 50.2168 38.0215 49.9004V49.7656C38.0215 49.4531 37.9824 49.1582 37.9043 48.8809C37.8301 48.5996 37.7168 48.3516 37.5645 48.1367C37.416 47.918 37.2285 47.7461 37.002 47.6211C36.7793 47.4961 36.5176 47.4336 36.2168 47.4336C35.9199 47.4336 35.6582 47.4961 35.4316 47.6211C35.209 47.7461 35.0215 47.918 34.8691 48.1367C34.7207 48.3516 34.6094 48.5996 34.5352 48.8809C34.4609 49.1582 34.4238 49.4531 34.4238 49.7656ZM47.1855 51.916V48.6523C47.1855 48.4023 47.1348 48.1855 47.0332 48.002C46.9355 47.8145 46.7871 47.6699 46.5879 47.5684C46.3887 47.4668 46.1426 47.416 45.8496 47.416C45.5762 47.416 45.3359 47.4629 45.1289 47.5566C44.9258 47.6504 44.7656 47.7734 44.6484 47.9258C44.5352 48.0781 44.4785 48.2422 44.4785 48.418H43.3945C43.3945 48.1914 43.4531 47.9668 43.5703 47.7441C43.6875 47.5215 43.8555 47.3203 44.0742 47.1406C44.2969 46.957 44.5625 46.8125 44.8711 46.707C45.1836 46.5977 45.5312 46.543 45.9141 46.543C46.375 46.543 46.7812 46.6211 47.1328 46.7773C47.4883 46.9336 47.7656 47.1699 47.9648 47.4863C48.168 47.7988 48.2695 48.1914 48.2695 48.6641V51.6172C48.2695 51.8281 48.2871 52.0527 48.3223 52.291C48.3613 52.5293 48.418 52.7344 48.4922 52.9062V53H47.3613C47.3066 52.875 47.2637 52.709 47.2324 52.502C47.2012 52.291 47.1855 52.0957 47.1855 51.916ZM47.373 49.1562L47.3848 49.918H46.2891C45.9805 49.918 45.7051 49.9434 45.4629 49.9941C45.2207 50.041 45.0176 50.1133 44.8535 50.2109C44.6895 50.3086 44.5645 50.4316 44.4785 50.5801C44.3926 50.7246 44.3496 50.8945 44.3496 51.0898C44.3496 51.2891 44.3945 51.4707 44.4844 51.6348C44.5742 51.7988 44.709 51.9297 44.8887 52.0273C45.0723 52.1211 45.2969 52.168 45.5625 52.168C45.8945 52.168 46.1875 52.0977 46.4414 51.957C46.6953 51.8164 46.8965 51.6445 47.0449 51.4414C47.1973 51.2383 47.2793 51.041 47.291 50.8496L47.7539 51.3711C47.7266 51.5352 47.6523 51.7168 47.5312 51.916C47.4102 52.1152 47.248 52.3066 47.0449 52.4902C46.8457 52.6699 46.6074 52.8203 46.3301 52.9414C46.0566 53.0586 45.748 53.1172 45.4043 53.1172C44.9746 53.1172 44.5977 53.0332 44.2734 52.8652C43.9531 52.6973 43.7031 52.4727 43.5234 52.1914C43.3477 51.9062 43.2598 51.5879 43.2598 51.2363C43.2598 50.8965 43.3262 50.5977 43.459 50.3398C43.5918 50.0781 43.7832 49.8613 44.0332 49.6895C44.2832 49.5137 44.584 49.3809 44.9355 49.291C45.2871 49.2012 45.6797 49.1562 46.1133 49.1562H47.373ZM53.9707 51.7695V44H55.0605V53H54.0645L53.9707 51.7695ZM49.7051 49.9004V49.7773C49.7051 49.293 49.7637 48.8535 49.8809 48.459C50.002 48.0605 50.1719 47.7188 50.3906 47.4336C50.6133 47.1484 50.877 46.9297 51.1816 46.7773C51.4902 46.6211 51.834 46.543 52.2129 46.543C52.6113 46.543 52.959 46.6133 53.2559 46.7539C53.5566 46.8906 53.8105 47.0918 54.0176 47.3574C54.2285 47.6191 54.3945 47.9355 54.5156 48.3066C54.6367 48.6777 54.7207 49.0977 54.7676 49.5664V50.1055C54.7246 50.5703 54.6406 50.9883 54.5156 51.3594C54.3945 51.7305 54.2285 52.0469 54.0176 52.3086C53.8105 52.5703 53.5566 52.7715 53.2559 52.9121C52.9551 53.0488 52.6035 53.1172 52.2012 53.1172C51.8301 53.1172 51.4902 53.0371 51.1816 52.877C50.877 52.7168 50.6133 52.4922 50.3906 52.2031C50.1719 51.9141 50.002 51.5742 49.8809 51.1836C49.7637 50.7891 49.7051 50.3613 49.7051 49.9004ZM50.7949 49.7773V49.9004C50.7949 50.2168 50.8262 50.5137 50.8887 50.791C50.9551 51.0684 51.0566 51.3125 51.1934 51.5234C51.3301 51.7344 51.5039 51.9004 51.7148 52.0215C51.9258 52.1387 52.1777 52.1973 52.4707 52.1973C52.8301 52.1973 53.125 52.1211 53.3555 51.9688C53.5898 51.8164 53.7773 51.6152 53.918 51.3652C54.0586 51.1152 54.168 50.8438 54.2461 50.5508V49.1387C54.1992 48.9238 54.1309 48.7168 54.041 48.5176C53.9551 48.3145 53.8418 48.1348 53.7012 47.9785C53.5645 47.8184 53.3945 47.6914 53.1914 47.5977C52.9922 47.5039 52.7559 47.457 52.4824 47.457C52.1855 47.457 51.9297 47.5195 51.7148 47.6445C51.5039 47.7656 51.3301 47.9336 51.1934 48.1484C51.0566 48.3594 50.9551 48.6055 50.8887 48.8867C50.8262 49.1641 50.7949 49.4609 50.7949 49.7773ZM60.7441 51.7695V44H61.834V53H60.8379L60.7441 51.7695ZM56.4785 49.9004V49.7773C56.4785 49.293 56.5371 48.8535 56.6543 48.459C56.7754 48.0605 56.9453 47.7188 57.1641 47.4336C57.3867 47.1484 57.6504 46.9297 57.9551 46.7773C58.2637 46.6211 58.6074 46.543 58.9863 46.543C59.3848 46.543 59.7324 46.6133 60.0293 46.7539C60.3301 46.8906 60.584 47.0918 60.791 47.3574C61.002 47.6191 61.168 47.9355 61.2891 48.3066C61.4102 48.6777 61.4941 49.0977 61.541 49.5664V50.1055C61.498 50.5703 61.4141 50.9883 61.2891 51.3594C61.168 51.7305 61.002 52.0469 60.791 52.3086C60.584 52.5703 60.3301 52.7715 60.0293 52.9121C59.7285 53.0488 59.377 53.1172 58.9746 53.1172C58.6035 53.1172 58.2637 53.0371 57.9551 52.877C57.6504 52.7168 57.3867 52.4922 57.1641 52.2031C56.9453 51.9141 56.7754 51.5742 56.6543 51.1836C56.5371 50.7891 56.4785 50.3613 56.4785 49.9004ZM57.5684 49.7773V49.9004C57.5684 50.2168 57.5996 50.5137 57.6621 50.791C57.7285 51.0684 57.8301 51.3125 57.9668 51.5234C58.1035 51.7344 58.2773 51.9004 58.4883 52.0215C58.6992 52.1387 58.9512 52.1973 59.2441 52.1973C59.6035 52.1973 59.8984 52.1211 60.1289 51.9688C60.3633 51.8164 60.5508 51.6152 60.6914 51.3652C60.832 51.1152 60.9414 50.8438 61.0195 50.5508V49.1387C60.9727 48.9238 60.9043 48.7168 60.8145 48.5176C60.7285 48.3145 60.6152 48.1348 60.4746 47.9785C60.3379 47.8184 60.168 47.6914 59.9648 47.5977C59.7656 47.5039 59.5293 47.457 59.2559 47.457C58.959 47.457 58.7031 47.5195 58.4883 47.6445C58.2773 47.7656 58.1035 47.9336 57.9668 48.1484C57.8301 48.3594 57.7285 48.6055 57.6621 48.8867C57.5996 49.1641 57.5684 49.4609 57.5684 49.7773ZM70.2363 51.916V48.6523C70.2363 48.4023 70.1855 48.1855 70.084 48.002C69.9863 47.8145 69.8379 47.6699 69.6387 47.5684C69.4395 47.4668 69.1934 47.416 68.9004 47.416C68.627 47.416 68.3867 47.4629 68.1797 47.5566C67.9766 47.6504 67.8164 47.7734 67.6992 47.9258C67.5859 48.0781 67.5293 48.2422 67.5293 48.418H66.4453C66.4453 48.1914 66.5039 47.9668 66.6211 47.7441C66.7383 47.5215 66.9062 47.3203 67.125 47.1406C67.3477 46.957 67.6133 46.8125 67.9219 46.707C68.2344 46.5977 68.582 46.543 68.9648 46.543C69.4258 46.543 69.832 46.6211 70.1836 46.7773C70.5391 46.9336 70.8164 47.1699 71.0156 47.4863C71.2188 47.7988 71.3203 48.1914 71.3203 48.6641V51.6172C71.3203 51.8281 71.3379 52.0527 71.373 52.291C71.4121 52.5293 71.4688 52.7344 71.543 52.9062V53H70.4121C70.3574 52.875 70.3145 52.709 70.2832 52.502C70.252 52.291 70.2363 52.0957 70.2363 51.916ZM70.4238 49.1562L70.4355 49.918H69.3398C69.0312 49.918 68.7559 49.9434 68.5137 49.9941C68.2715 50.041 68.0684 50.1133 67.9043 50.2109C67.7402 50.3086 67.6152 50.4316 67.5293 50.5801C67.4434 50.7246 67.4004 50.8945 67.4004 51.0898C67.4004 51.2891 67.4453 51.4707 67.5352 51.6348C67.625 51.7988 67.7598 51.9297 67.9395 52.0273C68.123 52.1211 68.3477 52.168 68.6133 52.168C68.9453 52.168 69.2383 52.0977 69.4922 51.957C69.7461 51.8164 69.9473 51.6445 70.0957 51.4414C70.248 51.2383 70.3301 51.041 70.3418 50.8496L70.8047 51.3711C70.7773 51.5352 70.7031 51.7168 70.582 51.916C70.4609 52.1152 70.2988 52.3066 70.0957 52.4902C69.8965 52.6699 69.6582 52.8203 69.3809 52.9414C69.1074 53.0586 68.7988 53.1172 68.4551 53.1172C68.0254 53.1172 67.6484 53.0332 67.3242 52.8652C67.0039 52.6973 66.7539 52.4727 66.5742 52.1914C66.3984 51.9062 66.3105 51.5879 66.3105 51.2363C66.3105 50.8965 66.377 50.5977 66.5098 50.3398C66.6426 50.0781 66.834 49.8613 67.084 49.6895C67.334 49.5137 67.6348 49.3809 67.9863 49.291C68.3379 49.2012 68.7305 49.1562 69.1641 49.1562H70.4238ZM74.1094 48.0137V53H73.0254V46.6602H74.0508L74.1094 48.0137ZM73.8516 49.5898L73.4004 49.5723C73.4043 49.1387 73.4688 48.7383 73.5938 48.3711C73.7188 48 73.8945 47.6777 74.1211 47.4043C74.3477 47.1309 74.6172 46.9199 74.9297 46.7715C75.2461 46.6191 75.5957 46.543 75.9785 46.543C76.291 46.543 76.5723 46.5859 76.8223 46.6719C77.0723 46.7539 77.2852 46.8867 77.4609 47.0703C77.6406 47.2539 77.7773 47.4922 77.8711 47.7852C77.9648 48.0742 78.0117 48.4277 78.0117 48.8457V53H76.9219V48.834C76.9219 48.502 76.873 48.2363 76.7754 48.0371C76.6777 47.834 76.5352 47.6875 76.3477 47.5977C76.1602 47.5039 75.9297 47.457 75.6562 47.457C75.3867 47.457 75.1406 47.5137 74.918 47.627C74.6992 47.7402 74.5098 47.8965 74.3496 48.0957C74.1934 48.2949 74.0703 48.5234 73.9805 48.7812C73.8945 49.0352 73.8516 49.3047 73.8516 49.5898ZM83.8125 46.6602V53H82.7227V46.6602H83.8125ZM82.6406 44.9785C82.6406 44.8027 82.6934 44.6543 82.7988 44.5332C82.9082 44.4121 83.0684 44.3516 83.2793 44.3516C83.4863 44.3516 83.6445 44.4121 83.7539 44.5332C83.8672 44.6543 83.9238 44.8027 83.9238 44.9785C83.9238 45.1465 83.8672 45.291 83.7539 45.4121C83.6445 45.5293 83.4863 45.5879 83.2793 45.5879C83.0684 45.5879 82.9082 45.5293 82.7988 45.4121C82.6934 45.291 82.6406 45.1465 82.6406 44.9785ZM86.6309 47.9199V53H85.541V46.6602H86.5723L86.6309 47.9199ZM86.4082 49.5898L85.9043 49.5723C85.9082 49.1387 85.9648 48.7383 86.0742 48.3711C86.1836 48 86.3457 47.6777 86.5605 47.4043C86.7754 47.1309 87.043 46.9199 87.3633 46.7715C87.6836 46.6191 88.0547 46.543 88.4766 46.543C88.7734 46.543 89.0469 46.5859 89.2969 46.6719C89.5469 46.7539 89.7637 46.8848 89.9473 47.0645C90.1309 47.2441 90.2734 47.4746 90.375 47.7559C90.4766 48.0371 90.5273 48.377 90.5273 48.7754V53H89.4434V48.8281C89.4434 48.4961 89.3867 48.2305 89.2734 48.0312C89.1641 47.832 89.0078 47.6875 88.8047 47.5977C88.6016 47.5039 88.3633 47.457 88.0898 47.457C87.7695 47.457 87.502 47.5137 87.2871 47.627C87.0723 47.7402 86.9004 47.8965 86.7715 48.0957C86.6426 48.2949 86.5488 48.5234 86.4902 48.7812C86.4355 49.0352 86.4082 49.3047 86.4082 49.5898ZM90.5156 48.9922L89.7891 49.2148C89.793 48.8672 89.8496 48.5332 89.959 48.2129C90.0723 47.8926 90.2344 47.6074 90.4453 47.3574C90.6602 47.1074 90.9238 46.9102 91.2363 46.7656C91.5488 46.6172 91.9062 46.543 92.3086 46.543C92.6484 46.543 92.9492 46.5879 93.2109 46.6777C93.4766 46.7676 93.6992 46.9062 93.8789 47.0938C94.0625 47.2773 94.2012 47.5137 94.2949 47.8027C94.3887 48.0918 94.4355 48.4355 94.4355 48.834V53H93.3457V48.8223C93.3457 48.4668 93.2891 48.1914 93.1758 47.9961C93.0664 47.7969 92.9102 47.6582 92.707 47.5801C92.5078 47.498 92.2695 47.457 91.9922 47.457C91.7539 47.457 91.543 47.498 91.3594 47.5801C91.1758 47.6621 91.0215 47.7754 90.8965 47.9199C90.7715 48.0605 90.6758 48.2227 90.6094 48.4062C90.5469 48.5898 90.5156 48.7852 90.5156 48.9922ZM99.8145 51.916V48.6523C99.8145 48.4023 99.7637 48.1855 99.6621 48.002C99.5645 47.8145 99.416 47.6699 99.2168 47.5684C99.0176 47.4668 98.7715 47.416 98.4785 47.416C98.2051 47.416 97.9648 47.4629 97.7578 47.5566C97.5547 47.6504 97.3945 47.7734 97.2773 47.9258C97.1641 48.0781 97.1074 48.2422 97.1074 48.418H96.0234C96.0234 48.1914 96.082 47.9668 96.1992 47.7441C96.3164 47.5215 96.4844 47.3203 96.7031 47.1406C96.9258 46.957 97.1914 46.8125 97.5 46.707C97.8125 46.5977 98.1602 46.543 98.543 46.543C99.0039 46.543 99.4102 46.6211 99.7617 46.7773C100.117 46.9336 100.395 47.1699 100.594 47.4863C100.797 47.7988 100.898 48.1914 100.898 48.6641V51.6172C100.898 51.8281 100.916 52.0527 100.951 52.291C100.99 52.5293 101.047 52.7344 101.121 52.9062V53H99.9902C99.9355 52.875 99.8926 52.709 99.8613 52.502C99.8301 52.291 99.8145 52.0957 99.8145 51.916ZM100.002 49.1562L100.014 49.918H98.918C98.6094 49.918 98.334 49.9434 98.0918 49.9941C97.8496 50.041 97.6465 50.1133 97.4824 50.2109C97.3184 50.3086 97.1934 50.4316 97.1074 50.5801C97.0215 50.7246 96.9785 50.8945 96.9785 51.0898C96.9785 51.2891 97.0234 51.4707 97.1133 51.6348C97.2031 51.7988 97.3379 51.9297 97.5176 52.0273C97.7012 52.1211 97.9258 52.168 98.1914 52.168C98.5234 52.168 98.8164 52.0977 99.0703 51.957C99.3242 51.8164 99.5254 51.6445 99.6738 51.4414C99.8262 51.2383 99.9082 51.041 99.9199 50.8496L100.383 51.3711C100.355 51.5352 100.281 51.7168 100.16 51.916C100.039 52.1152 99.877 52.3066 99.6738 52.4902C99.4746 52.6699 99.2363 52.8203 98.959 52.9414C98.6855 53.0586 98.377 53.1172 98.0332 53.1172C97.6035 53.1172 97.2266 53.0332 96.9023 52.8652C96.582 52.6973 96.332 52.4727 96.1523 52.1914C95.9766 51.9062 95.8887 51.5879 95.8887 51.2363C95.8887 50.8965 95.9551 50.5977 96.0879 50.3398C96.2207 50.0781 96.4121 49.8613 96.6621 49.6895C96.9121 49.5137 97.2129 49.3809 97.5645 49.291C97.916 49.2012 98.3086 49.1562 98.7422 49.1562H100.002ZM106.711 46.6602H107.695V52.8652C107.695 53.4238 107.582 53.9004 107.355 54.2949C107.129 54.6895 106.812 54.9883 106.406 55.1914C106.004 55.3984 105.539 55.502 105.012 55.502C104.793 55.502 104.535 55.4668 104.238 55.3965C103.945 55.3301 103.656 55.2148 103.371 55.0508C103.09 54.8906 102.854 54.6738 102.662 54.4004L103.23 53.7559C103.496 54.0762 103.773 54.2988 104.062 54.4238C104.355 54.5488 104.645 54.6113 104.93 54.6113C105.273 54.6113 105.57 54.5469 105.82 54.418C106.07 54.2891 106.264 54.0977 106.4 53.8438C106.541 53.5938 106.611 53.2852 106.611 52.918V48.0547L106.711 46.6602ZM102.346 49.9004V49.7773C102.346 49.293 102.402 48.8535 102.516 48.459C102.633 48.0605 102.799 47.7188 103.014 47.4336C103.232 47.1484 103.496 46.9297 103.805 46.7773C104.113 46.6211 104.461 46.543 104.848 46.543C105.246 46.543 105.594 46.6133 105.891 46.7539C106.191 46.8906 106.445 47.0918 106.652 47.3574C106.863 47.6191 107.029 47.9355 107.15 48.3066C107.271 48.6777 107.355 49.0977 107.402 49.5664V50.1055C107.359 50.5703 107.275 50.9883 107.15 51.3594C107.029 51.7305 106.863 52.0469 106.652 52.3086C106.445 52.5703 106.191 52.7715 105.891 52.9121C105.59 53.0488 105.238 53.1172 104.836 53.1172C104.457 53.1172 104.113 53.0371 103.805 52.877C103.5 52.7168 103.238 52.4922 103.02 52.2031C102.801 51.9141 102.633 51.5742 102.516 51.1836C102.402 50.7891 102.346 50.3613 102.346 49.9004ZM103.43 49.7773V49.9004C103.43 50.2168 103.461 50.5137 103.523 50.791C103.59 51.0684 103.689 51.3125 103.822 51.5234C103.959 51.7344 104.133 51.9004 104.344 52.0215C104.555 52.1387 104.807 52.1973 105.1 52.1973C105.459 52.1973 105.756 52.1211 105.99 51.9688C106.225 51.8164 106.41 51.6152 106.547 51.3652C106.688 51.1152 106.797 50.8438 106.875 50.5508V49.1387C106.832 48.9238 106.766 48.7168 106.676 48.5176C106.59 48.3145 106.477 48.1348 106.336 47.9785C106.199 47.8184 106.029 47.6914 105.826 47.5977C105.623 47.5039 105.385 47.457 105.111 47.457C104.814 47.457 104.559 47.5195 104.344 47.6445C104.133 47.7656 103.959 47.9336 103.822 48.1484C103.689 48.3594 103.59 48.6055 103.523 48.8867C103.461 49.1641 103.43 49.4609 103.43 49.7773ZM111.973 53.1172C111.531 53.1172 111.131 53.043 110.771 52.8945C110.416 52.7422 110.109 52.5293 109.852 52.2559C109.598 51.9824 109.402 51.6582 109.266 51.2832C109.129 50.9082 109.061 50.498 109.061 50.0527V49.8066C109.061 49.291 109.137 48.832 109.289 48.4297C109.441 48.0234 109.648 47.6797 109.91 47.3984C110.172 47.1172 110.469 46.9043 110.801 46.7598C111.133 46.6152 111.477 46.543 111.832 46.543C112.285 46.543 112.676 46.6211 113.004 46.7773C113.336 46.9336 113.607 47.1523 113.818 47.4336C114.029 47.7109 114.186 48.0391 114.287 48.418C114.389 48.793 114.439 49.2031 114.439 49.6484V50.1348H109.705V49.25H113.355V49.168C113.34 48.8867 113.281 48.6133 113.18 48.3477C113.082 48.082 112.926 47.8633 112.711 47.6914C112.496 47.5195 112.203 47.4336 111.832 47.4336C111.586 47.4336 111.359 47.4863 111.152 47.5918C110.945 47.6934 110.768 47.8457 110.619 48.0488C110.471 48.252 110.355 48.5 110.273 48.793C110.191 49.0859 110.15 49.4238 110.15 49.8066V50.0527C110.15 50.3535 110.191 50.6367 110.273 50.9023C110.359 51.1641 110.482 51.3945 110.643 51.5938C110.807 51.793 111.004 51.9492 111.234 52.0625C111.469 52.1758 111.734 52.2324 112.031 52.2324C112.414 52.2324 112.738 52.1543 113.004 51.998C113.27 51.8418 113.502 51.6328 113.701 51.3711L114.357 51.8926C114.221 52.0996 114.047 52.2969 113.836 52.4844C113.625 52.6719 113.365 52.8242 113.057 52.9414C112.752 53.0586 112.391 53.1172 111.973 53.1172Z" fill="#C2CCE0"/>
</svg>
