<svg width="104" height="56" viewBox="0 0 104 56" fill="none" xmlns="http://www.w3.org/2000/svg">
<circle cx="52" cy="16" r="15.5" stroke="#C2CCE0"/>
<path d="M58 16.5L48.25 22.1292L48.25 10.8708L58 16.5Z" fill="#C2CCE0"/>
<path d="M6.14062 49.2871H7.26562C7.20703 49.8262 7.05273 50.3086 6.80273 50.7344C6.55273 51.1602 6.19922 51.498 5.74219 51.748C5.28516 51.9941 4.71484 52.1172 4.03125 52.1172C3.53125 52.1172 3.07617 52.0234 2.66602 51.8359C2.25977 51.6484 1.91016 51.3828 1.61719 51.0391C1.32422 50.6914 1.09766 50.2754 0.9375 49.791C0.78125 49.3027 0.703125 48.7598 0.703125 48.1621V47.3125C0.703125 46.7148 0.78125 46.1738 0.9375 45.6895C1.09766 45.2012 1.32617 44.7832 1.62305 44.4355C1.92383 44.0879 2.28516 43.8203 2.70703 43.6328C3.12891 43.4453 3.60352 43.3516 4.13086 43.3516C4.77539 43.3516 5.32031 43.4727 5.76562 43.7148C6.21094 43.957 6.55664 44.293 6.80273 44.7227C7.05273 45.1484 7.20703 45.6426 7.26562 46.2051H6.14062C6.08594 45.8066 5.98438 45.4648 5.83594 45.1797C5.6875 44.8906 5.47656 44.668 5.20312 44.5117C4.92969 44.3555 4.57227 44.2773 4.13086 44.2773C3.75195 44.2773 3.41797 44.3496 3.12891 44.4941C2.84375 44.6387 2.60352 44.8438 2.4082 45.1094C2.2168 45.375 2.07227 45.6934 1.97461 46.0645C1.87695 46.4355 1.82812 46.8477 1.82812 47.3008V48.1621C1.82812 48.5801 1.87109 48.9727 1.95703 49.3398C2.04688 49.707 2.18164 50.0293 2.36133 50.3066C2.54102 50.584 2.76953 50.8027 3.04688 50.9629C3.32422 51.1191 3.65234 51.1973 4.03125 51.1973C4.51172 51.1973 4.89453 51.1211 5.17969 50.9688C5.46484 50.8164 5.67969 50.5977 5.82422 50.3125C5.97266 50.0273 6.07812 49.6855 6.14062 49.2871ZM9.82031 43V52H8.73047V43H9.82031ZM12.7383 45.6602V52H11.6484V45.6602H12.7383ZM11.5664 43.9785C11.5664 43.8027 11.6191 43.6543 11.7246 43.5332C11.834 43.4121 11.9941 43.3516 12.2051 43.3516C12.4121 43.3516 12.5703 43.4121 12.6797 43.5332C12.793 43.6543 12.8496 43.8027 12.8496 43.9785C12.8496 44.1465 12.793 44.291 12.6797 44.4121C12.5703 44.5293 12.4121 44.5879 12.2051 44.5879C11.9941 44.5879 11.834 44.5293 11.7246 44.4121C11.6191 44.291 11.5664 44.1465 11.5664 43.9785ZM17.0156 51.2266C17.2734 51.2266 17.5117 51.1738 17.7305 51.0684C17.9492 50.9629 18.1289 50.8184 18.2695 50.6348C18.4102 50.4473 18.4902 50.2344 18.5098 49.9961H19.541C19.5215 50.3711 19.3945 50.7207 19.1602 51.0449C18.9297 51.3652 18.627 51.625 18.252 51.8242C17.877 52.0195 17.4648 52.1172 17.0156 52.1172C16.5391 52.1172 16.123 52.0332 15.7676 51.8652C15.416 51.6973 15.123 51.4668 14.8887 51.1738C14.6582 50.8809 14.4844 50.5449 14.3672 50.166C14.2539 49.7832 14.1973 49.3789 14.1973 48.9531V48.707C14.1973 48.2812 14.2539 47.8789 14.3672 47.5C14.4844 47.1172 14.6582 46.7793 14.8887 46.4863C15.123 46.1934 15.416 45.9629 15.7676 45.7949C16.123 45.627 16.5391 45.543 17.0156 45.543C17.5117 45.543 17.9453 45.6445 18.3164 45.8477C18.6875 46.0469 18.9785 46.3203 19.1895 46.668C19.4043 47.0117 19.5215 47.4023 19.541 47.8398H18.5098C18.4902 47.5781 18.416 47.3418 18.2871 47.1309C18.1621 46.9199 17.9902 46.752 17.7715 46.627C17.5566 46.498 17.3047 46.4336 17.0156 46.4336C16.6836 46.4336 16.4043 46.5 16.1777 46.6328C15.9551 46.7617 15.7773 46.9375 15.6445 47.1602C15.5156 47.3789 15.4219 47.623 15.3633 47.8926C15.3086 48.1582 15.2812 48.4297 15.2812 48.707V48.9531C15.2812 49.2305 15.3086 49.5039 15.3633 49.7734C15.418 50.043 15.5098 50.2871 15.6387 50.5059C15.7715 50.7246 15.9492 50.9004 16.1719 51.0332C16.3984 51.1621 16.6797 51.2266 17.0156 51.2266ZM21.8496 43V52H20.7598V43H21.8496ZM25.7227 45.6602L22.957 48.6191L21.4102 50.2246L21.3223 49.0703L22.4297 47.7461L24.3984 45.6602H25.7227ZM24.7324 52L22.4707 48.9766L23.0332 48.0098L26.0098 52H24.7324ZM32.4727 45.6602V46.4922H29.0449V45.6602H32.4727ZM30.2051 44.1191H31.2891V50.4297C31.2891 50.6445 31.3223 50.8066 31.3887 50.916C31.4551 51.0254 31.541 51.0977 31.6465 51.1328C31.752 51.168 31.8652 51.1855 31.9863 51.1855C32.0762 51.1855 32.1699 51.1777 32.2676 51.1621C32.3691 51.1426 32.4453 51.127 32.4961 51.1152L32.502 52C32.416 52.0273 32.3027 52.0527 32.1621 52.0762C32.0254 52.1035 31.8594 52.1172 31.6641 52.1172C31.3984 52.1172 31.1543 52.0645 30.9316 51.959C30.709 51.8535 30.5312 51.6777 30.3984 51.4316C30.2695 51.1816 30.2051 50.8457 30.2051 50.4238V44.1191ZM33.3398 48.9004V48.7656C33.3398 48.3086 33.4062 47.8848 33.5391 47.4941C33.6719 47.0996 33.8633 46.7578 34.1133 46.4688C34.3633 46.1758 34.666 45.9492 35.0215 45.7891C35.377 45.625 35.7754 45.543 36.2168 45.543C36.6621 45.543 37.0625 45.625 37.418 45.7891C37.7773 45.9492 38.082 46.1758 38.332 46.4688C38.5859 46.7578 38.7793 47.0996 38.9121 47.4941C39.0449 47.8848 39.1113 48.3086 39.1113 48.7656V48.9004C39.1113 49.3574 39.0449 49.7812 38.9121 50.1719C38.7793 50.5625 38.5859 50.9043 38.332 51.1973C38.082 51.4863 37.7793 51.7129 37.4238 51.877C37.0723 52.0371 36.6738 52.1172 36.2285 52.1172C35.7832 52.1172 35.3828 52.0371 35.0273 51.877C34.6719 51.7129 34.3672 51.4863 34.1133 51.1973C33.8633 50.9043 33.6719 50.5625 33.5391 50.1719C33.4062 49.7812 33.3398 49.3574 33.3398 48.9004ZM34.4238 48.7656V48.9004C34.4238 49.2168 34.4609 49.5156 34.5352 49.7969C34.6094 50.0742 34.7207 50.3203 34.8691 50.5352C35.0215 50.75 35.2109 50.9199 35.4375 51.0449C35.6641 51.166 35.9277 51.2266 36.2285 51.2266C36.5254 51.2266 36.7852 51.166 37.0078 51.0449C37.2344 50.9199 37.4219 50.75 37.5703 50.5352C37.7188 50.3203 37.8301 50.0742 37.9043 49.7969C37.9824 49.5156 38.0215 49.2168 38.0215 48.9004V48.7656C38.0215 48.4531 37.9824 48.1582 37.9043 47.8809C37.8301 47.5996 37.7168 47.3516 37.5645 47.1367C37.416 46.918 37.2285 46.7461 37.002 46.6211C36.7793 46.4961 36.5176 46.4336 36.2168 46.4336C35.9199 46.4336 35.6582 46.4961 35.4316 46.6211C35.209 46.7461 35.0215 46.918 34.8691 47.1367C34.7207 47.3516 34.6094 47.5996 34.5352 47.8809C34.4609 48.1582 34.4238 48.4531 34.4238 48.7656ZM47.1855 50.916V47.6523C47.1855 47.4023 47.1348 47.1855 47.0332 47.002C46.9355 46.8145 46.7871 46.6699 46.5879 46.5684C46.3887 46.4668 46.1426 46.416 45.8496 46.416C45.5762 46.416 45.3359 46.4629 45.1289 46.5566C44.9258 46.6504 44.7656 46.7734 44.6484 46.9258C44.5352 47.0781 44.4785 47.2422 44.4785 47.418H43.3945C43.3945 47.1914 43.4531 46.9668 43.5703 46.7441C43.6875 46.5215 43.8555 46.3203 44.0742 46.1406C44.2969 45.957 44.5625 45.8125 44.8711 45.707C45.1836 45.5977 45.5312 45.543 45.9141 45.543C46.375 45.543 46.7812 45.6211 47.1328 45.7773C47.4883 45.9336 47.7656 46.1699 47.9648 46.4863C48.168 46.7988 48.2695 47.1914 48.2695 47.6641V50.6172C48.2695 50.8281 48.2871 51.0527 48.3223 51.291C48.3613 51.5293 48.418 51.7344 48.4922 51.9062V52H47.3613C47.3066 51.875 47.2637 51.709 47.2324 51.502C47.2012 51.291 47.1855 51.0957 47.1855 50.916ZM47.373 48.1562L47.3848 48.918H46.2891C45.9805 48.918 45.7051 48.9434 45.4629 48.9941C45.2207 49.041 45.0176 49.1133 44.8535 49.2109C44.6895 49.3086 44.5645 49.4316 44.4785 49.5801C44.3926 49.7246 44.3496 49.8945 44.3496 50.0898C44.3496 50.2891 44.3945 50.4707 44.4844 50.6348C44.5742 50.7988 44.709 50.9297 44.8887 51.0273C45.0723 51.1211 45.2969 51.168 45.5625 51.168C45.8945 51.168 46.1875 51.0977 46.4414 50.957C46.6953 50.8164 46.8965 50.6445 47.0449 50.4414C47.1973 50.2383 47.2793 50.041 47.291 49.8496L47.7539 50.3711C47.7266 50.5352 47.6523 50.7168 47.5312 50.916C47.4102 51.1152 47.248 51.3066 47.0449 51.4902C46.8457 51.6699 46.6074 51.8203 46.3301 51.9414C46.0566 52.0586 45.748 52.1172 45.4043 52.1172C44.9746 52.1172 44.5977 52.0332 44.2734 51.8652C43.9531 51.6973 43.7031 51.4727 43.5234 51.1914C43.3477 50.9062 43.2598 50.5879 43.2598 50.2363C43.2598 49.8965 43.3262 49.5977 43.459 49.3398C43.5918 49.0781 43.7832 48.8613 44.0332 48.6895C44.2832 48.5137 44.584 48.3809 44.9355 48.291C45.2871 48.2012 45.6797 48.1562 46.1133 48.1562H47.373ZM53.9707 50.7695V43H55.0605V52H54.0645L53.9707 50.7695ZM49.7051 48.9004V48.7773C49.7051 48.293 49.7637 47.8535 49.8809 47.459C50.002 47.0605 50.1719 46.7188 50.3906 46.4336C50.6133 46.1484 50.877 45.9297 51.1816 45.7773C51.4902 45.6211 51.834 45.543 52.2129 45.543C52.6113 45.543 52.959 45.6133 53.2559 45.7539C53.5566 45.8906 53.8105 46.0918 54.0176 46.3574C54.2285 46.6191 54.3945 46.9355 54.5156 47.3066C54.6367 47.6777 54.7207 48.0977 54.7676 48.5664V49.1055C54.7246 49.5703 54.6406 49.9883 54.5156 50.3594C54.3945 50.7305 54.2285 51.0469 54.0176 51.3086C53.8105 51.5703 53.5566 51.7715 53.2559 51.9121C52.9551 52.0488 52.6035 52.1172 52.2012 52.1172C51.8301 52.1172 51.4902 52.0371 51.1816 51.877C50.877 51.7168 50.6133 51.4922 50.3906 51.2031C50.1719 50.9141 50.002 50.5742 49.8809 50.1836C49.7637 49.7891 49.7051 49.3613 49.7051 48.9004ZM50.7949 48.7773V48.9004C50.7949 49.2168 50.8262 49.5137 50.8887 49.791C50.9551 50.0684 51.0566 50.3125 51.1934 50.5234C51.3301 50.7344 51.5039 50.9004 51.7148 51.0215C51.9258 51.1387 52.1777 51.1973 52.4707 51.1973C52.8301 51.1973 53.125 51.1211 53.3555 50.9688C53.5898 50.8164 53.7773 50.6152 53.918 50.3652C54.0586 50.1152 54.168 49.8438 54.2461 49.5508V48.1387C54.1992 47.9238 54.1309 47.7168 54.041 47.5176C53.9551 47.3145 53.8418 47.1348 53.7012 46.9785C53.5645 46.8184 53.3945 46.6914 53.1914 46.5977C52.9922 46.5039 52.7559 46.457 52.4824 46.457C52.1855 46.457 51.9297 46.5195 51.7148 46.6445C51.5039 46.7656 51.3301 46.9336 51.1934 47.1484C51.0566 47.3594 50.9551 47.6055 50.8887 47.8867C50.8262 48.1641 50.7949 48.4609 50.7949 48.7773ZM60.7441 50.7695V43H61.834V52H60.8379L60.7441 50.7695ZM56.4785 48.9004V48.7773C56.4785 48.293 56.5371 47.8535 56.6543 47.459C56.7754 47.0605 56.9453 46.7188 57.1641 46.4336C57.3867 46.1484 57.6504 45.9297 57.9551 45.7773C58.2637 45.6211 58.6074 45.543 58.9863 45.543C59.3848 45.543 59.7324 45.6133 60.0293 45.7539C60.3301 45.8906 60.584 46.0918 60.791 46.3574C61.002 46.6191 61.168 46.9355 61.2891 47.3066C61.4102 47.6777 61.4941 48.0977 61.541 48.5664V49.1055C61.498 49.5703 61.4141 49.9883 61.2891 50.3594C61.168 50.7305 61.002 51.0469 60.791 51.3086C60.584 51.5703 60.3301 51.7715 60.0293 51.9121C59.7285 52.0488 59.377 52.1172 58.9746 52.1172C58.6035 52.1172 58.2637 52.0371 57.9551 51.877C57.6504 51.7168 57.3867 51.4922 57.1641 51.2031C56.9453 50.9141 56.7754 50.5742 56.6543 50.1836C56.5371 49.7891 56.4785 49.3613 56.4785 48.9004ZM57.5684 48.7773V48.9004C57.5684 49.2168 57.5996 49.5137 57.6621 49.791C57.7285 50.0684 57.8301 50.3125 57.9668 50.5234C58.1035 50.7344 58.2773 50.9004 58.4883 51.0215C58.6992 51.1387 58.9512 51.1973 59.2441 51.1973C59.6035 51.1973 59.8984 51.1211 60.1289 50.9688C60.3633 50.8164 60.5508 50.6152 60.6914 50.3652C60.832 50.1152 60.9414 49.8438 61.0195 49.5508V48.1387C60.9727 47.9238 60.9043 47.7168 60.8145 47.5176C60.7285 47.3145 60.6152 47.1348 60.4746 46.9785C60.3379 46.8184 60.168 46.6914 59.9648 46.5977C59.7656 46.5039 59.5293 46.457 59.2559 46.457C58.959 46.457 58.7031 46.5195 58.4883 46.6445C58.2773 46.7656 58.1035 46.9336 57.9668 47.1484C57.8301 47.3594 57.7285 47.6055 57.6621 47.8867C57.5996 48.1641 57.5684 48.4609 57.5684 48.7773ZM70.2363 50.916V47.6523C70.2363 47.4023 70.1855 47.1855 70.084 47.002C69.9863 46.8145 69.8379 46.6699 69.6387 46.5684C69.4395 46.4668 69.1934 46.416 68.9004 46.416C68.627 46.416 68.3867 46.4629 68.1797 46.5566C67.9766 46.6504 67.8164 46.7734 67.6992 46.9258C67.5859 47.0781 67.5293 47.2422 67.5293 47.418H66.4453C66.4453 47.1914 66.5039 46.9668 66.6211 46.7441C66.7383 46.5215 66.9062 46.3203 67.125 46.1406C67.3477 45.957 67.6133 45.8125 67.9219 45.707C68.2344 45.5977 68.582 45.543 68.9648 45.543C69.4258 45.543 69.832 45.6211 70.1836 45.7773C70.5391 45.9336 70.8164 46.1699 71.0156 46.4863C71.2188 46.7988 71.3203 47.1914 71.3203 47.6641V50.6172C71.3203 50.8281 71.3379 51.0527 71.373 51.291C71.4121 51.5293 71.4688 51.7344 71.543 51.9062V52H70.4121C70.3574 51.875 70.3145 51.709 70.2832 51.502C70.252 51.291 70.2363 51.0957 70.2363 50.916ZM70.4238 48.1562L70.4355 48.918H69.3398C69.0312 48.918 68.7559 48.9434 68.5137 48.9941C68.2715 49.041 68.0684 49.1133 67.9043 49.2109C67.7402 49.3086 67.6152 49.4316 67.5293 49.5801C67.4434 49.7246 67.4004 49.8945 67.4004 50.0898C67.4004 50.2891 67.4453 50.4707 67.5352 50.6348C67.625 50.7988 67.7598 50.9297 67.9395 51.0273C68.123 51.1211 68.3477 51.168 68.6133 51.168C68.9453 51.168 69.2383 51.0977 69.4922 50.957C69.7461 50.8164 69.9473 50.6445 70.0957 50.4414C70.248 50.2383 70.3301 50.041 70.3418 49.8496L70.8047 50.3711C70.7773 50.5352 70.7031 50.7168 70.582 50.916C70.4609 51.1152 70.2988 51.3066 70.0957 51.4902C69.8965 51.6699 69.6582 51.8203 69.3809 51.9414C69.1074 52.0586 68.7988 52.1172 68.4551 52.1172C68.0254 52.1172 67.6484 52.0332 67.3242 51.8652C67.0039 51.6973 66.7539 51.4727 66.5742 51.1914C66.3984 50.9062 66.3105 50.5879 66.3105 50.2363C66.3105 49.8965 66.377 49.5977 66.5098 49.3398C66.6426 49.0781 66.834 48.8613 67.084 48.6895C67.334 48.5137 67.6348 48.3809 67.9863 48.291C68.3379 48.2012 68.7305 48.1562 69.1641 48.1562H70.4238ZM77.9297 51.0215L79.6641 45.6602H80.7715L78.4922 52H77.7656L77.9297 51.0215ZM76.4824 45.6602L78.2695 51.0508L78.3926 52H77.666L75.3691 45.6602H76.4824ZM82.9922 45.6602V52H81.9023V45.6602H82.9922ZM81.8203 43.9785C81.8203 43.8027 81.873 43.6543 81.9785 43.5332C82.0879 43.4121 82.248 43.3516 82.459 43.3516C82.666 43.3516 82.8242 43.4121 82.9336 43.5332C83.0469 43.6543 83.1035 43.8027 83.1035 43.9785C83.1035 44.1465 83.0469 44.291 82.9336 44.4121C82.8242 44.5293 82.666 44.5879 82.459 44.5879C82.248 44.5879 82.0879 44.5293 81.9785 44.4121C81.873 44.291 81.8203 44.1465 81.8203 43.9785ZM88.7285 50.7695V43H89.8184V52H88.8223L88.7285 50.7695ZM84.4629 48.9004V48.7773C84.4629 48.293 84.5215 47.8535 84.6387 47.459C84.7598 47.0605 84.9297 46.7188 85.1484 46.4336C85.3711 46.1484 85.6348 45.9297 85.9395 45.7773C86.248 45.6211 86.5918 45.543 86.9707 45.543C87.3691 45.543 87.7168 45.6133 88.0137 45.7539C88.3145 45.8906 88.5684 46.0918 88.7754 46.3574C88.9863 46.6191 89.1523 46.9355 89.2734 47.3066C89.3945 47.6777 89.4785 48.0977 89.5254 48.5664V49.1055C89.4824 49.5703 89.3984 49.9883 89.2734 50.3594C89.1523 50.7305 88.9863 51.0469 88.7754 51.3086C88.5684 51.5703 88.3145 51.7715 88.0137 51.9121C87.7129 52.0488 87.3613 52.1172 86.959 52.1172C86.5879 52.1172 86.248 52.0371 85.9395 51.877C85.6348 51.7168 85.3711 51.4922 85.1484 51.2031C84.9297 50.9141 84.7598 50.5742 84.6387 50.1836C84.5215 49.7891 84.4629 49.3613 84.4629 48.9004ZM85.5527 48.7773V48.9004C85.5527 49.2168 85.584 49.5137 85.6465 49.791C85.7129 50.0684 85.8145 50.3125 85.9512 50.5234C86.0879 50.7344 86.2617 50.9004 86.4727 51.0215C86.6836 51.1387 86.9355 51.1973 87.2285 51.1973C87.5879 51.1973 87.8828 51.1211 88.1133 50.9688C88.3477 50.8164 88.5352 50.6152 88.6758 50.3652C88.8164 50.1152 88.9258 49.8438 89.0039 49.5508V48.1387C88.957 47.9238 88.8887 47.7168 88.7988 47.5176C88.7129 47.3145 88.5996 47.1348 88.459 46.9785C88.3223 46.8184 88.1523 46.6914 87.9492 46.5977C87.75 46.5039 87.5137 46.457 87.2402 46.457C86.9434 46.457 86.6875 46.5195 86.4727 46.6445C86.2617 46.7656 86.0879 46.9336 85.9512 47.1484C85.8145 47.3594 85.7129 47.6055 85.6465 47.8867C85.584 48.1641 85.5527 48.4609 85.5527 48.7773ZM94.1367 52.1172C93.6953 52.1172 93.2949 52.043 92.9355 51.8945C92.5801 51.7422 92.2734 51.5293 92.0156 51.2559C91.7617 50.9824 91.5664 50.6582 91.4297 50.2832C91.293 49.9082 91.2246 49.498 91.2246 49.0527V48.8066C91.2246 48.291 91.3008 47.832 91.4531 47.4297C91.6055 47.0234 91.8125 46.6797 92.0742 46.3984C92.3359 46.1172 92.6328 45.9043 92.9648 45.7598C93.2969 45.6152 93.6406 45.543 93.9961 45.543C94.4492 45.543 94.8398 45.6211 95.168 45.7773C95.5 45.9336 95.7715 46.1523 95.9824 46.4336C96.1934 46.7109 96.3496 47.0391 96.4512 47.418C96.5527 47.793 96.6035 48.2031 96.6035 48.6484V49.1348H91.8691V48.25H95.5195V48.168C95.5039 47.8867 95.4453 47.6133 95.3438 47.3477C95.2461 47.082 95.0898 46.8633 94.875 46.6914C94.6602 46.5195 94.3672 46.4336 93.9961 46.4336C93.75 46.4336 93.5234 46.4863 93.3164 46.5918C93.1094 46.6934 92.9316 46.8457 92.7832 47.0488C92.6348 47.252 92.5195 47.5 92.4375 47.793C92.3555 48.0859 92.3145 48.4238 92.3145 48.8066V49.0527C92.3145 49.3535 92.3555 49.6367 92.4375 49.9023C92.5234 50.1641 92.6465 50.3945 92.8066 50.5938C92.9707 50.793 93.168 50.9492 93.3984 51.0625C93.6328 51.1758 93.8984 51.2324 94.1953 51.2324C94.5781 51.2324 94.9023 51.1543 95.168 50.998C95.4336 50.8418 95.666 50.6328 95.8652 50.3711L96.5215 50.8926C96.3848 51.0996 96.2109 51.2969 96 51.4844C95.7891 51.6719 95.5293 51.8242 95.2207 51.9414C94.916 52.0586 94.5547 52.1172 94.1367 52.1172ZM97.582 48.9004V48.7656C97.582 48.3086 97.6484 47.8848 97.7812 47.4941C97.9141 47.0996 98.1055 46.7578 98.3555 46.4688C98.6055 46.1758 98.9082 45.9492 99.2637 45.7891C99.6191 45.625 100.018 45.543 100.459 45.543C100.904 45.543 101.305 45.625 101.66 45.7891C102.02 45.9492 102.324 46.1758 102.574 46.4688C102.828 46.7578 103.021 47.0996 103.154 47.4941C103.287 47.8848 103.354 48.3086 103.354 48.7656V48.9004C103.354 49.3574 103.287 49.7812 103.154 50.1719C103.021 50.5625 102.828 50.9043 102.574 51.1973C102.324 51.4863 102.021 51.7129 101.666 51.877C101.314 52.0371 100.916 52.1172 100.471 52.1172C100.025 52.1172 99.625 52.0371 99.2695 51.877C98.9141 51.7129 98.6094 51.4863 98.3555 51.1973C98.1055 50.9043 97.9141 50.5625 97.7812 50.1719C97.6484 49.7812 97.582 49.3574 97.582 48.9004ZM98.666 48.7656V48.9004C98.666 49.2168 98.7031 49.5156 98.7773 49.7969C98.8516 50.0742 98.9629 50.3203 99.1113 50.5352C99.2637 50.75 99.4531 50.9199 99.6797 51.0449C99.9062 51.166 100.17 51.2266 100.471 51.2266C100.768 51.2266 101.027 51.166 101.25 51.0449C101.477 50.9199 101.664 50.75 101.812 50.5352C101.961 50.3203 102.072 50.0742 102.146 49.7969C102.225 49.5156 102.264 49.2168 102.264 48.9004V48.7656C102.264 48.4531 102.225 48.1582 102.146 47.8809C102.072 47.5996 101.959 47.3516 101.807 47.1367C101.658 46.918 101.471 46.7461 101.244 46.6211C101.021 46.4961 100.76 46.4336 100.459 46.4336C100.162 46.4336 99.9004 46.4961 99.6738 46.6211C99.4512 46.7461 99.2637 46.918 99.1113 47.1367C98.9629 47.3516 98.8516 47.5996 98.7773 47.8809C98.7031 48.1582 98.666 48.4531 98.666 48.7656Z" fill="#C2CCE0"/>
</svg>
