<svg width="54" height="56" viewBox="0 0 54 56" fill="none" xmlns="http://www.w3.org/2000/svg">
<path fill-rule="evenodd" clip-rule="evenodd" d="M19.2612 0.854924C20.2743 1.93558 20.2086 3.62277 19.1144 4.62337L6.67405 16L19.1144 27.3766C20.2086 28.3772 20.2743 30.0644 19.2612 31.1451C18.248 32.2257 16.5398 32.2906 15.4456 31.29L0.865598 17.9567C0.313721 17.452 0 16.7428 0 16C0 15.2572 0.313721 14.548 0.865598 14.0433L15.4456 0.709983C16.5398 -0.29062 18.248 -0.225729 19.2612 0.854924ZM34.7388 0.854924C35.752 -0.225729 37.4602 -0.29062 38.5544 0.709983L53.1344 14.0433C53.6863 14.548 54 15.2572 54 16C54 16.7428 53.6863 17.452 53.1344 17.9567L38.5544 31.29C37.4602 32.2906 35.752 32.2257 34.7388 31.1451C33.7257 30.0644 33.7914 28.3772 34.8856 27.3766L47.326 16L34.8856 4.62337C33.7914 3.62277 33.7257 1.93558 34.7388 0.854924Z" fill="#D5DCEB"/>
<path d="M14.4512 50.834V52H9.92188V50.834H14.4512ZM10.3379 43.4688V52H8.86719V43.4688H10.3379ZM13.8594 47.0312V48.1797H9.92188V47.0312H13.8594ZM14.4219 43.4688V44.6406H9.92188V43.4688H14.4219ZM16.9238 46.9492V52H15.5117V45.6602H16.8418L16.9238 46.9492ZM16.6953 48.5957L16.2148 48.5898C16.2148 48.1523 16.2695 47.748 16.3789 47.377C16.4883 47.0059 16.6484 46.6836 16.8594 46.4102C17.0703 46.1328 17.332 45.9199 17.6445 45.7715C17.9609 45.6191 18.3262 45.543 18.7402 45.543C19.0293 45.543 19.293 45.5859 19.5312 45.6719C19.7734 45.7539 19.9824 45.8848 20.1582 46.0645C20.3379 46.2441 20.4746 46.4746 20.5684 46.7559C20.666 47.0371 20.7148 47.377 20.7148 47.7754V52H19.3027V47.8984C19.3027 47.5898 19.2559 47.3477 19.1621 47.1719C19.0723 46.9961 18.9414 46.8711 18.7695 46.7969C18.6016 46.7188 18.4004 46.6797 18.166 46.6797C17.9004 46.6797 17.6738 46.7305 17.4863 46.832C17.3027 46.9336 17.1523 47.0723 17.0352 47.248C16.918 47.4238 16.832 47.627 16.7773 47.8574C16.7227 48.0879 16.6953 48.334 16.6953 48.5957ZM20.627 48.2207L19.9648 48.3672C19.9648 47.9844 20.0176 47.623 20.123 47.2832C20.2324 46.9395 20.3906 46.6387 20.5977 46.3809C20.8086 46.1191 21.0684 45.9141 21.377 45.7656C21.6855 45.6172 22.0391 45.543 22.4375 45.543C22.7617 45.543 23.0508 45.5879 23.3047 45.6777C23.5625 45.7637 23.7812 45.9004 23.9609 46.0879C24.1406 46.2754 24.2773 46.5195 24.3711 46.8203C24.4648 47.1172 24.5117 47.4766 24.5117 47.8984V52H23.0938V47.8926C23.0938 47.5723 23.0469 47.3242 22.9531 47.1484C22.8633 46.9727 22.7344 46.8516 22.5664 46.7852C22.3984 46.7148 22.1973 46.6797 21.9629 46.6797C21.7441 46.6797 21.5508 46.7207 21.3828 46.8027C21.2188 46.8809 21.0801 46.9922 20.9668 47.1367C20.8535 47.2773 20.7676 47.4395 20.709 47.623C20.6543 47.8066 20.627 48.0059 20.627 48.2207ZM25.9707 43H27.3828V50.6465L27.248 52H25.9707V43ZM31.5195 48.7715V48.8945C31.5195 49.3633 31.4668 49.7949 31.3613 50.1895C31.2598 50.5801 31.1035 50.9199 30.8926 51.209C30.6855 51.498 30.4277 51.7227 30.1191 51.8828C29.8145 52.0391 29.4609 52.1172 29.0586 52.1172C28.6641 52.1172 28.3203 52.043 28.0273 51.8945C27.7344 51.7461 27.4883 51.5352 27.2891 51.2617C27.0938 50.9883 26.9355 50.6621 26.8145 50.2832C26.6934 49.9043 26.6074 49.4863 26.5566 49.0293V48.6367C26.6074 48.1758 26.6934 47.7578 26.8145 47.3828C26.9355 47.0039 27.0938 46.6777 27.2891 46.4043C27.4883 46.127 27.7324 45.9141 28.0215 45.7656C28.3145 45.6172 28.6562 45.543 29.0469 45.543C29.4531 45.543 29.8105 45.6211 30.1191 45.7773C30.4316 45.9336 30.6914 46.1562 30.8984 46.4453C31.1055 46.7305 31.2598 47.0703 31.3613 47.4648C31.4668 47.8594 31.5195 48.2949 31.5195 48.7715ZM30.1074 48.8945V48.7715C30.1074 48.4863 30.084 48.2188 30.0371 47.9688C29.9902 47.7148 29.9121 47.4922 29.8027 47.3008C29.6973 47.1094 29.5527 46.959 29.3691 46.8496C29.1895 46.7363 28.9648 46.6797 28.6953 46.6797C28.4453 46.6797 28.2305 46.7227 28.0508 46.8086C27.8711 46.8945 27.7207 47.0117 27.5996 47.1602C27.4785 47.3086 27.3828 47.4805 27.3125 47.6758C27.2461 47.8711 27.2012 48.082 27.1777 48.3086V49.3691C27.2129 49.6621 27.2871 49.9316 27.4004 50.1777C27.5176 50.4199 27.6816 50.6152 27.8926 50.7637C28.1035 50.9082 28.375 50.9805 28.707 50.9805C28.9688 50.9805 29.1895 50.9277 29.3691 50.8223C29.5488 50.7168 29.6914 50.5703 29.7969 50.3828C29.9062 50.1914 29.9844 49.9688 30.0312 49.7148C30.082 49.4609 30.1074 49.1875 30.1074 48.8945ZM35.5098 52.1172C35.041 52.1172 34.6172 52.041 34.2383 51.8887C33.8633 51.7324 33.543 51.5156 33.2773 51.2383C33.0156 50.9609 32.8145 50.6348 32.6738 50.2598C32.5332 49.8848 32.4629 49.4805 32.4629 49.0469V48.8125C32.4629 48.3164 32.5352 47.8672 32.6797 47.4648C32.8242 47.0625 33.0254 46.7188 33.2832 46.4336C33.541 46.1445 33.8457 45.9238 34.1973 45.7715C34.5488 45.6191 34.9297 45.543 35.3398 45.543C35.793 45.543 36.1895 45.6191 36.5293 45.7715C36.8691 45.9238 37.1504 46.1387 37.373 46.416C37.5996 46.6895 37.7676 47.0156 37.877 47.3945C37.9902 47.7734 38.0469 48.1914 38.0469 48.6484V49.252H33.1484V48.2383H36.6523V48.127C36.6445 47.873 36.5938 47.6348 36.5 47.4121C36.4102 47.1895 36.2715 47.0098 36.084 46.873C35.8965 46.7363 35.6465 46.668 35.334 46.668C35.0996 46.668 34.8906 46.7188 34.707 46.8203C34.5273 46.918 34.377 47.0605 34.2559 47.248C34.1348 47.4355 34.041 47.6621 33.9746 47.9277C33.9121 48.1895 33.8809 48.4844 33.8809 48.8125V49.0469C33.8809 49.3242 33.918 49.582 33.9922 49.8203C34.0703 50.0547 34.1836 50.2598 34.332 50.4355C34.4805 50.6113 34.6602 50.75 34.8711 50.8516C35.082 50.9492 35.3223 50.998 35.5918 50.998C35.9316 50.998 36.2344 50.9297 36.5 50.793C36.7656 50.6562 36.9961 50.4629 37.1914 50.2129L37.9355 50.9336C37.7988 51.1328 37.6211 51.3242 37.4023 51.5078C37.1836 51.6875 36.916 51.834 36.5996 51.9473C36.2871 52.0605 35.9238 52.1172 35.5098 52.1172ZM43.0156 50.6875V43H44.4336V52H43.1504L43.0156 50.6875ZM38.8906 48.9004V48.7773C38.8906 48.2969 38.9473 47.8594 39.0605 47.4648C39.1738 47.0664 39.3379 46.7246 39.5527 46.4395C39.7676 46.1504 40.0293 45.9297 40.3379 45.7773C40.6465 45.6211 40.9941 45.543 41.3809 45.543C41.7637 45.543 42.0996 45.6172 42.3887 45.7656C42.6777 45.9141 42.9238 46.127 43.127 46.4043C43.3301 46.6777 43.4922 47.0059 43.6133 47.3887C43.7344 47.7676 43.8203 48.1895 43.8711 48.6543V49.0469C43.8203 49.5 43.7344 49.9141 43.6133 50.2891C43.4922 50.6641 43.3301 50.9883 43.127 51.2617C42.9238 51.5352 42.6758 51.7461 42.3828 51.8945C42.0938 52.043 41.7559 52.1172 41.3691 52.1172C40.9863 52.1172 40.6406 52.0371 40.332 51.877C40.0273 51.7168 39.7676 51.4922 39.5527 51.2031C39.3379 50.9141 39.1738 50.5742 39.0605 50.1836C38.9473 49.7891 38.8906 49.3613 38.8906 48.9004ZM40.3027 48.7773V48.9004C40.3027 49.1895 40.3281 49.459 40.3789 49.709C40.4336 49.959 40.5176 50.1797 40.6309 50.3711C40.7441 50.5586 40.8906 50.707 41.0703 50.8164C41.2539 50.9219 41.4727 50.9746 41.7266 50.9746C42.0469 50.9746 42.3105 50.9043 42.5176 50.7637C42.7246 50.623 42.8867 50.4336 43.0039 50.1953C43.125 49.9531 43.207 49.6836 43.25 49.3867V48.3262C43.2266 48.0957 43.1777 47.8809 43.1035 47.6816C43.0332 47.4824 42.9375 47.3086 42.8164 47.1602C42.6953 47.0078 42.5449 46.8906 42.3652 46.8086C42.1895 46.7227 41.9805 46.6797 41.7383 46.6797C41.4805 46.6797 41.2617 46.7344 41.082 46.8438C40.9023 46.9531 40.7539 47.1035 40.6367 47.2949C40.5234 47.4863 40.4395 47.709 40.3848 47.9629C40.3301 48.2168 40.3027 48.4883 40.3027 48.7773Z" fill="#D5DCEB"/>
</svg>
