<?xml version="1.0" standalone="no"?>
<!DOCTYPE svg PUBLIC "-//W3C//DTD SVG 1.1//EN" "http://www.w3.org/Graphics/SVG/1.1/DTD/svg11.dtd" >
<svg xmlns="http://www.w3.org/2000/svg">
<metadata>Generated by IcoMoon</metadata>
<defs>
<font id="trusites-pagebuilder" horiz-adv-x="1024">
<font-face units-per-em="1024" ascent="960" descent="-64" />
<missing-glyph horiz-adv-x="1024" />
<glyph unicode="&#x20;" horiz-adv-x="512" d="" />
<glyph unicode="&#xe900;" glyph-name="reference" d="M512 832c-212.077 0-384-171.923-384-384s171.923-384 384-384c212.077 0 384 171.923 384 384s-171.923 384-384 384zM0 448c0 282.77 229.23 512 512 512s512-229.23 512-512c0-282.771-229.229-512-512-512s-512 229.229-512 512zM448 627.2c0 35.346 28.654 64 64 64h0.448c35.346 0 64-28.654 64-64s-28.654-64-64-64h-0.448c-35.346 0-64 28.654-64 64zM512 512c35.346 0 64-28.654 64-64v-179.2c0-35.347-28.654-64-64-64s-64 28.653-64 64v179.2c0 35.346 28.654 64 64 64z" />
<glyph unicode="&#xe901;" glyph-name="filled-heart" horiz-adv-x="1170" d="M585-63.881l-476.955 441.301c-69.674 64.441-108.050 150.265-108.050 241.666s38.376 177.226 108.050 241.723c129.871 120.179 333.745 130.986 476.955 32.59 143.209 98.396 347.083 87.589 476.955-32.59 69.674-64.498 108.050-150.322 108.050-241.723s-38.376-177.225-108.050-241.666l-476.955-441.301z" />
<glyph unicode="&#xe902;" glyph-name="download" d="M960 319.999c32.819 0 59.872-24.704 63.571-56.538l0.429-7.462v-128c0-102.253-79.93-185.837-180.717-191.674l-11.283-0.326h-640c-102.252 0-185.834 79.93-191.674 180.717l-0.326 11.283v128c0 35.347 28.654 64 64 64 32.822 0 59.873-24.704 63.569-56.538l0.431-7.462v-128c0-32.819 24.707-59.872 56.536-63.571l7.464-0.429h640c32.819 0 59.872 24.704 63.571 56.538l0.429 7.462v128c0 35.347 28.653 64 64 64zM512 959.999c35.347 0 64-28.654 64-64v-485.44l82.746 82.695c23.072 23.071 59.373 24.845 84.48 5.324l6.029-5.324c23.072-23.071 24.845-59.374 5.325-84.481l-5.325-6.029-191.999-191.999c-23.071-23.072-59.374-24.845-84.481-5.325l-6.029 5.325-192 191.999c-24.993 24.994-24.993 65.516 0 90.51 23.071 23.071 59.374 24.845 84.481 5.324l6.029-5.324 82.745-82.695v485.44c0 35.346 28.654 64 64 64z" />
<glyph unicode="&#xe903;" glyph-name="delete" d="M832 575.999c35.347 0 64-28.654 64-64v-384c0-106.042-85.958-192-192-192h-384c-106.038 0-192 85.958-192 192v384c0 35.346 28.654 64 64 64h640zM768 447.999h-512v-320c0-35.347 28.654-64 64-64h384c35.347 0 64 28.653 64 64v320zM320 895.999c0 35.346 28.654 64 64 64h256c35.347 0 64-28.654 64-64v-64h192c35.347 0 64-28.654 64-64s-28.653-64-64-64h-768c-35.346 0-64 28.654-64 64s28.654 64 64 64h192v64z" />
<glyph unicode="&#xe904;" glyph-name="settings-mini" d="M462.511 959.998l100.177-0.059c3.795-0.18 8.228-0.681 13.054-1.732l11.082-2.751c25.74-7.471 37.856-20.949 61.445-75.507l10.106-24.097 10.49-25.994 24.525 10.913c48.858 21.314 70.989 27.888 88.448 27.888 18.010 0 36.23-6.329 50.259-17.444l6.643-5.949 67.629-67.345 9.67-10.504c18.138-21.229 22.15-38.035 9.434-78.204l-7.066-20.3-9.498-24.225-15.731-37.54 37.709-14.228c58.861-22.956 76.211-34.866 85.728-58.682l1.702-4.611 3.053-10.193c1.542-5.779 2.195-9.88 2.464-14.451l0.166-7.478v-94.963c0-7.91-0.275-12.496-2.317-20.672-8.154-32.744-17.216-44.361-78.502-70.787l-12.115-5.139-36.954-15.034 11.494-25.267c35.13-78.483 38.733-101.44 17.28-129.184l-3.405-4.205-7.917-8.813-69.568-69.523c-15.168-15.334-36.518-23.674-57.318-23.674-10.931 0-24.685 2.938-44.16 9.485l-10.234 3.571-23.635 9.037-35.603 14.688-9.984-26.586c-26.411-69.165-38.147-87.674-63.848-97.498l-4.687-1.651-9.854-2.829c-5.591-1.446-9.551-2.061-13.96-2.304l-7.208-0.16-100.191 0.058c-3.784 0.179-8.201 0.678-13.011 1.722-29.596 6.413-42.512 14.195-63.288 57.677l-4.581 9.875-10.099 23.334-15.263 37.472-24.54-10.912c-48.877-21.306-70.996-27.872-88.425-27.872-17.791 0-35.769 6.195-50.179 17.421l-6.89 6.029-69.652 69.638c-26.112 27.68-32.541 42.502-14.010 95.392l4.041 11.104 9.445 23.968 15.894 37.862-26.186 9.83c-68.217 26.064-87.218 38.001-97.286 63.398l-1.692 4.627-3.025 10.227c-1.506 5.716-2.146 9.771-2.405 14.294l-0.164 7.4v95.020c0 7.975 0.284 12.602 2.36 20.851 7.157 28.429 14.928 40.871 57.231 60.979l10.391 4.787 22.995 9.887 36.937 14.973-11.462 25.357c-38.54 86.751-38.904 107.374-7.876 140.202l4.425 4.559 67.151 66.998c15.043 15.126 36.3 23.55 57.141 23.55 12.787 0 29.3-3.964 54.509-13.084l11.35-4.227 23.079-9.14 24.77-10.289 14.644 38.596c23.632 60.187 35.956 77.562 61.096 86.385l4.869 1.562 10.234 2.602c4.94 1.106 8.428 1.575 12.312 1.766l106.532 0.061-100.177 0.059zM528.983 831.998h-37.157l-5.683-13.785-6.772-17.249-18.815-50.224c-5.348-14.124-15.485-25.821-28.516-33.139l-6.748-3.284-40.774-16.967c-13.236-5.508-27.854-6.382-41.524-2.631l-8.068 2.806-42.397 17.929-21.101 8.564-19.087 7.354-26.362-26.303 13.053-30.452 22.25-48.762c6.193-13.459 7.487-28.56 3.832-42.733l-2.788-8.373-16.673-40.515c-5.676-13.791-15.954-25.092-28.967-32.062l-6.725-3.115-50.835-20.399-17.364-7.283-13.76-6.040v-37.891l6.445-2.693 24.398-9.662 49.722-18.524c14.547-5.244 26.617-15.541 34.103-28.877l3.352-6.912 16.675-40.396c5.506-13.336 6.312-28.056 2.44-41.791l-2.884-8.096-21.491-50.566-12.502-31.386 26.35-26.317 16.534 6.861 31.869 14.003 30.095 13.818c14.019 6.694 29.909 8.032 44.714 3.917l7.299-2.509 41.013-16.934c13.978-5.766 25.382-16.262 32.308-29.53l3.081-6.854 20.054-49.882 13.395-31.117h37.308l5.644 13.747 6.738 17.203 18.773 50.202c5.345 14.246 15.558 26.048 28.702 33.389l6.807 3.296 40.84 16.851c13.084 5.395 27.503 6.278 41.020 2.65l7.987-2.726 30.899-13.146 32.934-13.53 19.053-7.354 26.406 26.355-2.65 6.406-14.816 33.779-17.926 38.995c-6.214 13.485-7.514 28.614-3.84 42.816l2.797 8.388 16.646 40.34c5.645 13.685 15.827 24.916 28.717 31.887l6.662 3.122 51.123 20.605 31.206 13.411v37.835l-6.451 2.684-24.442 9.638-49.888 18.532c-14.515 5.281-26.547 15.596-33.997 28.932l-3.328 6.911-16.646 40.56c-5.459 13.304-6.253 27.976-2.394 41.662l2.874 8.074 21.453 50.525 12.486 31.476-26.368 26.259-7.821-3.203-29.242-12.62-42.31-19.23c-13.44-6.157-28.499-7.437-42.643-3.791l-8.352 2.78-40.987 16.848c-13.795 5.67-25.1 15.946-32.075 28.957l-3.117 6.725-16.235 40.536-11.459 27.444-6.076 13.778zM512.020 575.999c70.563 0 127.98-57.396 127.98-127.963 0-70.564-57.416-128.037-127.98-128.037-70.592 0-128.020 57.46-128.020 128.037 0 70.579 57.43 127.963 128.020 127.963z" />
<glyph unicode="&#xe905;" glyph-name="drag-indicator" d="M341.334 850.285c47.128 0 85.333-36.022 85.333-80.457s-38.205-80.457-85.333-80.457c-47.129 0-85.334 36.022-85.334 80.457s38.205 80.457 85.334 80.457zM341.334 528.456c47.128 0 85.333-36.022 85.333-80.457s-38.205-80.456-85.333-80.456-85.334 36.019-85.334 80.456c0 44.435 38.205 80.457 85.334 80.457zM341.334 206.627c47.128 0 85.333-36.019 85.333-80.456s-38.205-80.456-85.333-80.456c-47.129 0-85.334 36.019-85.334 80.456s38.205 80.456 85.334 80.456zM682.665 850.285c47.13 0 85.335-36.022 85.335-80.457s-38.205-80.457-85.335-80.457c-47.124 0-85.33 36.022-85.33 80.457s38.205 80.457 85.33 80.457zM682.665 528.456c47.13 0 85.335-36.022 85.335-80.457s-38.205-80.456-85.335-80.456c-47.124 0-85.33 36.019-85.33 80.456 0 44.435 38.205 80.457 85.33 80.457zM682.665 206.627c47.13 0 85.335-36.019 85.335-80.456s-38.205-80.456-85.335-80.456c-47.124 0-85.33 36.019-85.33 80.456s38.205 80.456 85.33 80.456z" />
<glyph unicode="&#xe906;" glyph-name="unpublish" d="M168.707 827.823l255.104-255.052c22.958 21.83 54.009 35.228 88.19 35.228 70.695 0 128-57.308 128-128 0-34.183-13.395-65.235-35.225-88.193l250.521-250.553c23.065-23.073 24.845-59.373 5.325-84.48l-5.325-6.029c-24.999-24.993-65.516-24.993-90.509 0l-77.050 76.87c-54.663-20.993-113.286-31.616-175.738-31.616-204.755 0-368.324 114.17-486.16 333.741l-10.913 20.896-14.928 29.364 14.928 29.363c34.563 67.988 73.271 126.473 116.004 175.219l-52.734 52.734c-24.994 24.993-24.994 65.514-0.001 90.508s65.516 24.995 90.51 0.001zM155.993 500.66l-11.788-20.661 10.060-17.715c94.731-162.273 212.884-238.285 357.734-238.285 24.993 0 49.184 2.259 72.601 6.841l-363.048 363.129c-22.991-27.073-44.834-58.14-65.56-93.31zM512 863.999c204.755 0 368.326-114.168 486.156-333.743l10.919-20.894 14.925-29.363-14.925-29.364c-33.421-65.735-70.714-122.585-111.776-170.343l-90.726 90.65c25.856 31.175 50.253 67.475 73.223 109.056-96.384 174.461-217.773 255.999-367.794 255.999-22.281 0-43.931-1.799-64.961-5.433l-104.24 104.271c52.791 19.369 109.23 29.163 169.201 29.163z" />
<glyph unicode="&#xe907;" glyph-name="ellipsis-h" d="M512 561.777c62.839 0 113.778-50.94 113.778-113.778s-50.938-113.778-113.778-113.778c-62.838 0-113.778 50.94-113.778 113.778s50.94 113.778 113.778 113.778zM113.778 561.777c62.838 0 113.778-50.94 113.778-113.778s-50.94-113.778-113.778-113.778c-62.838 0-113.778 50.94-113.778 113.778s50.94 113.778 113.778 113.778zM910.222 561.777c62.839 0 113.778-50.94 113.778-113.778s-50.938-113.778-113.778-113.778c-62.839 0-113.778 50.94-113.778 113.778s50.938 113.778 113.778 113.778z" />
<glyph unicode="&#xe908;" glyph-name="heart" d="M512-0.001l-417.434 386.23c-60.979 56.399-94.566 131.514-94.566 211.507s33.587 155.109 94.566 211.558c113.664 105.182 292.096 114.639 417.434 28.523 125.338 86.116 303.77 76.659 417.434-28.523 60.979-56.449 94.566-131.564 94.566-211.558s-33.587-155.108-94.566-211.507l-417.434-386.23zM842.522 480.199c35.059 32.428 53.478 73.617 53.478 117.537 0 43.926-18.426 85.137-53.504 117.611-68.301 63.202-180.333 70.343-258.011 16.972l-72.485-49.803-72.485 49.803c-77.679 53.372-189.713 46.23-257.996-16.956-35.096-32.489-53.519-73.7-53.519-117.626 0-43.92 18.417-85.11 53.496-117.555l330.504-305.795 330.522 305.812z" />
<glyph unicode="&#xe909;" glyph-name="copy" d="M64 191.999l-7.464 0.429c-29.381 3.418-52.693 26.726-56.106 56.109l-0.431 7.462v639.999l0.431 7.464c3.413 29.381 26.724 52.693 56.106 56.106h654.925c31.834-3.697 56.538-30.748 56.538-63.569s-24.704-59.873-56.538-63.569l-583.461-0.431v-575.999l-0.431-7.462c-3.412-29.382-26.724-52.691-56.106-56.109l-7.464-0.429zM960-64.001l-647.463 0.429-7.211 1.261c-25.917 6.080-45.766 27.917-48.895 54.848l-0.431 7.462v639.999l0.431 7.464c3.412 29.381 26.724 52.693 56.106 56.106h654.925l7.213-1.26c25.92-6.081 45.766-27.913 48.896-54.846l0.429-7.464v-639.999l-0.429-7.462c-3.418-29.382-26.726-52.691-56.109-56.109l-7.462-0.429zM384 575.999v-512h512v512h-512z" />
<glyph unicode="&#xe90a;" glyph-name="statistics-mini" d="M832 959.999c106.042 0 192-85.962 192-192v-640c0-106.042-85.958-192-192-192h-640c-106.038 0-192 85.958-192 192v640c0 106.038 85.962 192 192 192h640zM512 703.999c-32.822 0-59.873-24.707-63.569-56.536l-0.431-7.464v-384c0-35.347 28.654-64 64-64 32.822 0 59.873 24.704 63.569 56.538l0.431 7.462v384c0 35.346-28.653 64-64 64zM768 575.999c-32.819 0-59.872-24.707-63.571-56.536l-0.429-7.464v-256c0-35.347 28.653-64 64-64 32.819 0 59.872 24.704 63.571 56.538l0.429 7.462v256c0 35.346-28.653 64-64 64zM256 447.999c-32.822 0-59.873-24.707-63.569-56.536l-0.431-7.464v-128c0-35.347 28.654-64 64-64 32.822 0 59.873 24.704 63.569 56.538l0.431 7.462v128c0 35.347-28.654 64-64 64z" />
<glyph unicode="&#xe90b;" glyph-name="settings" d="M462.513 959.998l100.177-0.059c3.795-0.18 8.23-0.681 13.056-1.731l11.079-2.751c25.741-7.471 37.856-20.949 61.446-75.507l10.105-24.097 10.49-25.994 24.525 10.914c48.857 21.314 70.989 27.887 88.447 27.887 18.010 0 36.23-6.329 50.259-17.445l6.644-5.95 67.629-67.345 9.67-10.504c18.137-21.23 22.15-38.035 9.434-78.204l-7.065-20.3-9.497-24.225-15.731-37.54 37.709-14.229c58.861-22.955 76.211-34.866 85.727-58.682l1.702-4.61 3.052-10.192c1.542-5.779 2.195-9.88 2.464-14.451l0.166-7.479v-94.965c0-7.91-0.275-12.492-2.316-20.672-8.154-32.742-17.216-44.359-78.502-70.784l-12.115-5.139-36.954-15.034 11.495-25.267c35.13-78.484 38.732-101.44 17.28-129.184l-3.405-4.205-7.916-8.812-69.567-69.524c-15.167-15.335-36.519-23.674-57.319-23.674-10.931 0-24.685 2.937-44.16 9.485l-10.234 3.571-23.635 9.036-35.604 14.687-9.984-26.585c-26.412-69.165-38.144-87.674-63.846-97.497l-4.685-1.651-9.856-2.829c-5.594-1.446-9.555-2.061-13.959-2.304l-7.212-0.16-100.19 0.057c-3.784 0.179-8.201 0.679-13.011 1.721-29.595 6.412-42.512 14.195-63.289 57.676l-4.581 9.875-10.099 23.335-15.262 37.472-24.54-10.912c-48.877-21.305-70.996-27.872-88.425-27.872-17.791 0-35.769 6.195-50.179 17.421l-6.89 6.029-69.652 69.639c-26.112 27.68-32.541 42.502-14.010 95.392l4.041 11.104 9.445 23.967 15.895 37.862-26.185 9.83c-68.217 26.061-87.219 38.004-97.286 63.399l-1.692 4.627-3.025 10.227c-1.506 5.715-2.146 9.772-2.405 14.291l-0.165 7.399v95.022c0 7.975 0.284 12.602 2.36 20.85 7.157 28.429 14.929 40.871 57.231 60.979l10.39 4.787 22.995 9.886 36.937 14.972-11.462 25.357c-38.54 86.751-38.904 107.374-7.876 140.202l4.425 4.559 67.151 66.999c15.042 15.126 36.3 23.55 57.141 23.55 12.786 0 29.3-3.964 54.51-13.084l11.35-4.227 23.079-9.14 24.77-10.289 14.645 38.596c23.632 60.187 35.956 77.561 61.096 86.385l4.869 1.562 10.234 2.602c4.94 1.106 8.427 1.576 12.311 1.766l106.531 0.061-100.177 0.059zM528.986 831.998h-37.16l-5.684-13.785-6.771-17.249-18.815-50.224c-5.349-14.124-15.485-25.821-28.516-33.139l-6.747-3.284-40.774-16.967c-13.236-5.507-27.854-6.382-41.524-2.631l-8.069 2.806-42.397 17.929-21.101 8.564-19.086 7.354-26.362-26.302 13.052-30.451 22.25-48.761c6.192-13.459 7.487-28.56 3.831-42.734l-2.787-8.372-16.672-40.515c-5.675-13.791-15.954-25.092-28.967-32.062l-6.725-3.115-50.835-20.399-17.364-7.284-13.76-6.040v-37.887l6.445-2.695 24.397-9.664 49.722-18.521c14.546-5.247 26.617-15.545 34.102-28.876l3.351-6.912 16.675-40.396c5.506-13.337 6.311-28.057 2.44-41.792l-2.884-8.096-21.491-50.566-12.502-31.385 26.35-26.316 16.534 6.861 31.869 14.004 30.095 13.817c14.019 6.695 29.909 8.032 44.714 3.916l7.299-2.509 41.012-16.935c13.977-5.766 25.381-16.262 32.307-29.53l3.081-6.855 20.055-49.881 13.395-31.116h37.305l5.645 13.747 6.739 17.204 18.771 50.201c5.344 14.246 15.559 26.047 28.704 33.389l6.81 3.296 40.839 16.851c13.081 5.395 27.501 6.279 41.017 2.65l7.987-2.726 30.899-13.145 32.935-13.53 19.052-7.354 26.406 26.355-2.65 6.406-14.816 33.779-17.926 38.995c-6.215 13.485-7.514 28.615-3.84 42.816l2.796 8.39 16.646 40.339c5.645 13.684 15.827 24.915 28.716 31.885l6.662 3.124 51.124 20.601 31.206 13.415v37.834l-6.451 2.684-24.441 9.639-49.887 18.532c-14.515 5.281-26.547 15.595-33.996 28.932l-3.327 6.911-16.646 40.56c-5.459 13.304-6.252 27.976-2.394 41.662l2.874 8.074 21.452 50.525 12.486 31.476-26.367 26.259-7.821-3.202-29.241-12.62-42.31-19.23c-13.44-6.156-28.499-7.437-42.644-3.791l-8.352 2.78-40.985 16.847c-13.799 5.67-25.101 15.945-32.076 28.956l-3.116 6.725-16.236 40.536-11.456 27.444-6.074 13.777zM512.020 575.999c70.56 0 127.981-57.396 127.981-127.962s-57.415-128.037-127.981-128.037c-70.591 0-128.019 57.459-128.019 128.037s57.43 127.962 128.019 127.962z" />
<glyph unicode="&#xe90c;" glyph-name="statistics" d="M870.4 959.999c84.833 0 153.6-68.769 153.6-153.6v-716.8c0-84.833-68.767-153.6-153.6-153.6h-716.8c-84.831 0-153.6 68.767-153.6 153.6v716.8c0 84.831 68.769 153.6 153.6 153.6h716.8zM870.4 857.599h-716.8c-28.277 0-51.2-22.923-51.2-51.2v-716.8c0-28.278 22.923-51.2 51.2-51.2h716.8c28.278 0 51.2 22.922 51.2 51.2v716.8c0 28.277-22.922 51.2-51.2 51.2zM307.2 345.599c28.277 0 51.2-22.922 51.2-51.2v-102.4c0-28.278-22.923-51.2-51.2-51.2s-51.2 22.922-51.2 51.2v102.4c0 28.278 22.923 51.2 51.2 51.2zM512 755.199c28.278 0 51.2-22.923 51.2-51.2v-512c0-28.278-22.922-51.2-51.2-51.2s-51.2 22.922-51.2 51.2v512c0 28.277 22.923 51.2 51.2 51.2zM716.8 550.399c28.278 0 51.2-22.923 51.2-51.2v-307.2c0-28.278-22.922-51.2-51.2-51.2s-51.2 22.922-51.2 51.2v307.2c0 28.277 22.922 51.2 51.2 51.2z" />
<glyph unicode="&#xe90d;" glyph-name="blank" d="M870.401 960c84.833 0 153.6-68.77 153.6-153.6v-716.8c0-84.833-68.767-153.6-153.6-153.6h-716.8c-84.83 0-153.6 68.767-153.6 153.6v716.8c0 84.83 68.77 153.6 153.6 153.6h716.8zM921.6 432.537l-213.396-320.139c-15.76-23.634-47.401-29.65-70.559-14.504l-4.823 3.574-264.822 220.682-202.727-283.751h705.126c28.278 0 51.2 22.922 51.2 51.2v342.937zM870.401 857.599h-716.8c-28.277 0-51.2-22.924-51.2-51.2v-679.834l214.337 299.992c16.072 22.502 46.757 27.91 69.374 13.302l5.065-3.727 263.43-219.52 266.993 400.553v189.235c0 28.277-22.922 51.2-51.2 51.2zM307.2 755.199c56.554 0 102.4-45.846 102.4-102.4s-45.846-102.4-102.4-102.4c-56.554 0-102.4 45.846-102.4 102.4s45.846 102.4 102.4 102.4z" />
<glyph unicode="&#xe90e;" glyph-name="list-view" d="M128 959.999h768c70.695 0 128-57.307 128-128v-768c0-70.695-57.305-128-128-128h-768c-70.692 0-128 57.305-128 128v768c0 70.692 57.307 128 128 128zM192 831.999c-35.346 0-64-28.654-64-64v-640c0-35.347 28.654-64 64-64h640c35.347 0 64 28.652 64 64v640c0 35.346-28.652 64-64 64h-640zM512 703.999h192c35.346 0 64-28.654 64-64s-28.654-64-64-64h-192c-35.346 0-64 28.654-64 64s28.654 64 64 64zM320 703.999c35.346 0 64-28.654 64-64s-28.654-64-64-64c-35.346 0-64 28.654-64 64s28.654 64 64 64zM512 511.999h192c35.346 0 64-28.654 64-64s-28.654-64-64-64h-192c-35.346 0-64 28.654-64 64s28.654 64 64 64zM320 511.999c35.346 0 64-28.654 64-64s-28.654-64-64-64c-35.346 0-64 28.654-64 64s28.654 64 64 64zM512 319.999h192c35.346 0 64-28.654 64-64s-28.654-64-64-64h-192c-35.346 0-64 28.654-64 64s28.654 64 64 64zM320 319.999c35.346 0 64-28.654 64-64s-28.654-64-64-64c-35.346 0-64 28.654-64 64s28.654 64 64 64z" />
<glyph unicode="&#xe90f;" glyph-name="grid-view" d="M64 767.999h128c35.346 0 64-28.654 64-64v-128c0-35.346-28.654-64-64-64h-128c-35.346 0-64 28.654-64 64v128c0 35.346 28.654 64 64 64zM448 767.999h128c35.346 0 64-28.654 64-64v-128c0-35.346-28.654-64-64-64h-128c-35.346 0-64 28.654-64 64v128c0 35.346 28.654 64 64 64zM832 767.999h128c35.346 0 64-28.654 64-64v-128c0-35.346-28.654-64-64-64h-128c-35.346 0-64 28.654-64 64v128c0 35.346 28.654 64 64 64zM64 383.999h128c35.346 0 64-28.654 64-64v-128c0-35.346-28.654-64-64-64h-128c-35.346 0-64 28.654-64 64v128c0 35.346 28.654 64 64 64zM448 383.999h128c35.346 0 64-28.654 64-64v-128c0-35.346-28.654-64-64-64h-128c-35.346 0-64 28.654-64 64v128c0 35.346 28.654 64 64 64zM832 383.999h128c35.346 0 64-28.654 64-64v-128c0-35.346-28.654-64-64-64h-128c-35.346 0-64 28.654-64 64v128c0 35.346 28.654 64 64 64z" />
<glyph unicode="&#xe910;" glyph-name="redo" horiz-adv-x="1170" d="M1002.336 323.165l146.252 146.252c28.555 28.557 28.555 74.858 0 103.416-26.362 26.361-67.839 28.388-96.526 6.084l-6.888-6.084-30.157-30.137c-44.417 237.462-252.796 417.183-503.141 417.183-282.704 0-511.88-229.176-511.88-511.88s229.176-511.88 511.88-511.88c76.831 0 151.398 16.987 219.4 49.286 36.475 17.331 52 60.951 34.676 97.425-17.331 36.482-60.95 52.007-97.429 34.684-48.494-23.035-101.637-35.144-156.646-35.144-201.931 0-365.628 163.698-365.628 365.628s163.698 365.628 365.628 365.628c157.822 0 292.291-99.994 343.501-240.083-28.672 27.842-74.406 27.591-102.705-0.712-26.361-26.361-28.389-67.84-6.084-96.526l6.084-6.889 146.252-146.252c26.362-26.361 67.839-28.388 96.526-6.084l6.888 6.084z" />
<glyph unicode="&#xe911;" glyph-name="close" d="M632.647 447.99l366.322 366.322c33.362 33.362 33.362 87.293 0 120.655s-87.293 33.362-120.647 0l-366.329-366.322-366.317 366.322c-33.362 33.362-87.293 33.362-120.655 0s-33.362-87.293 0-120.655l366.322-366.322-366.322-366.322c-33.362-33.362-33.362-87.293 0-120.655 16.639-16.639 38.481-25.004 60.33-25.004s43.69 8.365 60.33 25.004l366.317 366.322 366.329-366.322c16.632-16.639 38.481-25.004 60.322-25.004s43.69 8.365 60.33 25.004c33.362 33.362 33.362 87.293 0 120.655l-366.322 366.322z" />
<glyph unicode="&#xe912;" glyph-name="back" d="M450.064 837.779l-4.26 4.824c-18.457 18.456-47.498 19.877-67.584 4.259l-4.824-4.259-360.519-360.653-2.825-3.472-3.668-5.694-2.736-5.776-1.812-5.392-1.482-7.572-0.354-6.047 0.143-3.851 0.894-6.426 1.511-5.704 2.249-5.688 2.68-4.992 3.773-5.36 3.748-4.183 358.4-358.4c19.996-19.993 52.414-19.993 72.408 0 18.457 18.457 19.876 47.498 4.26 67.584l-4.26 4.823-270.905 270.996h797.9c28.278 0 51.2 22.922 51.2 51.2s-22.922 51.2-51.2 51.2h-798.003l271.007 270.996c18.457 18.457 19.876 47.5 4.26 67.584v0z" />
<glyph unicode="&#xe913;" glyph-name="clear" d="M742.993 337.663c33.361-33.361 33.361-87.296 0-120.657-16.64-16.64-38.481-25.007-60.335-25.007s-43.695 8.367-60.335 25.007l-110.336 110.336-110.336-110.336c-16.64-16.64-38.481-25.007-60.335-25.007s-43.695 8.367-60.335 25.007c-33.361 33.361-33.361 87.296 0 120.657l110.336 110.336-110.336 110.336c-33.361 33.361-33.361 87.296 0 120.657s87.296 33.361 120.657 0l110.336-110.336 110.336 110.336c33.361 33.361 87.296 33.361 120.657 0s33.361-87.296 0-120.657l-110.336-110.336 110.336-110.336zM512 959.999c-282.799 0-512-229.295-512-512 0-282.799 229.201-512 512-512 282.705 0 512 229.201 512 512 0 282.705-229.295 512-512 512z" />
<glyph unicode="&#xe914;" glyph-name="notification" d="M153.6 38.398c-36.058 0-60.174 35.947-48.139 68.68l2.345 5.417 59.158 118.313c22.394 44.79 35.128 93.721 37.45 143.621l0.388 16.661v159.308c0 152.221 110.714 278.583 256.009 302.955l-0.011 55.446c0 28.277 22.922 51.2 51.2 51.2s51.2-22.924 51.2-51.2l0.041-55.454c141.235-23.714 249.785-143.802 255.703-290.323l0.256-12.623v-159.308c0-50.074 10.496-99.533 30.731-145.198l7.106-15.084 59.156-118.313c16.128-32.251-5.243-69.899-39.9-73.769l-5.893-0.328h-256c0-56.556-45.845-102.4-102.4-102.4s-102.4 45.845-102.4 102.4h-256zM511.999 755.198c-109.68 0-199.223-86.219-204.55-194.579l-0.251-10.222v-159.308c0-65.572-13.996-130.325-40.97-189.942l-7.678-16.133-22.109-44.216h551.115l-22.108 44.216c-29.327 58.655-45.768 122.828-48.302 188.216l-0.348 17.858v159.308c0 113.108-91.694 204.8-204.8 204.8z" />
<glyph unicode="&#xe915;" glyph-name="apps" d="M0 908.799c0 28.277 22.924 51.2 51.2 51.2h102.4c28.277 0 51.2-22.924 51.2-51.2v-102.4c0-28.277-22.924-51.2-51.2-51.2h-102.4c-28.277 0-51.2 22.924-51.2 51.2v102.4zM409.6 908.799c0 28.277 22.922 51.2 51.2 51.2h102.4c28.278 0 51.2-22.924 51.2-51.2v-102.4c0-28.277-22.922-51.2-51.2-51.2h-102.4c-28.278 0-51.2 22.924-51.2 51.2v102.4zM870.4 959.999c-28.278 0-51.2-22.924-51.2-51.2v-102.4c0-28.277 22.922-51.2 51.2-51.2h102.4c28.278 0 51.2 22.924 51.2 51.2v102.4c0 28.277-22.922 51.2-51.2 51.2h-102.4zM0 499.199c0 28.278 22.924 51.2 51.2 51.2h102.4c28.277 0 51.2-22.922 51.2-51.2v-102.4c0-28.278-22.924-51.2-51.2-51.2h-102.4c-28.277 0-51.2 22.922-51.2 51.2v102.4zM460.8 550.399c-28.278 0-51.2-22.922-51.2-51.2v-102.4c0-28.278 22.922-51.2 51.2-51.2h102.4c28.278 0 51.2 22.922 51.2 51.2v102.4c0 28.278-22.922 51.2-51.2 51.2h-102.4zM819.2 499.199c0 28.278 22.922 51.2 51.2 51.2h102.4c28.278 0 51.2-22.922 51.2-51.2v-102.4c0-28.278-22.922-51.2-51.2-51.2h-102.4c-28.278 0-51.2 22.922-51.2 51.2v102.4zM51.2 140.799c-28.277 0-51.2-22.922-51.2-51.2v-102.4c0-28.278 22.924-51.2 51.2-51.2h102.4c28.277 0 51.2 22.922 51.2 51.2v102.4c0 28.278-22.924 51.2-51.2 51.2h-102.4zM409.6 89.599c0 28.278 22.922 51.2 51.2 51.2h102.4c28.278 0 51.2-22.922 51.2-51.2v-102.4c0-28.278-22.922-51.2-51.2-51.2h-102.4c-28.278 0-51.2 22.922-51.2 51.2v102.4zM870.4 140.799c-28.278 0-51.2-22.922-51.2-51.2v-102.4c0-28.278 22.922-51.2 51.2-51.2h102.4c28.278 0 51.2 22.922 51.2 51.2v102.4c0 28.278-22.922 51.2-51.2 51.2h-102.4z" />
<glyph unicode="&#xe916;" glyph-name="help" d="M512 959.999c282.767 0 512-229.23 512-512 0-282.767-229.232-512-512-512-282.77 0-512 229.232-512 512 0 282.77 229.23 512 512 512zM512 857.598c-226.215 0-409.599-183.384-409.599-409.599s183.384-409.599 409.599-409.599c226.217 0 409.599 183.383 409.599 409.599s-183.383 409.599-409.599 409.599zM512 243.199c28.278 0 51.2-22.922 51.2-51.2s-22.922-51.2-51.2-51.2c-28.278 0-51.2 22.922-51.2 51.2s22.922 51.2 51.2 51.2zM512 755.199c113.106 0 204.8-91.692 204.8-204.8 0-91.894-60.523-169.651-143.882-195.589l-9.718-2.76v-6.451c0-28.278-22.922-51.2-51.2-51.2-26.255 0-47.898 19.763-50.857 45.23l-0.343 5.97v51.2c0 26.255 19.763 47.898 45.23 50.857l13.614 0.625c52.981 3.906 94.756 48.133 94.756 102.119 0 56.554-45.845 102.4-102.4 102.4s-102.4-45.846-102.4-102.4c0-28.278-22.924-51.2-51.2-51.2s-51.2 22.922-51.2 51.2c0 113.108 91.692 204.8 204.8 204.8z" />
<glyph unicode="&#xe917;" glyph-name="arrow-down1" d="M878.328 679.006c33.324 33.324 87.355 33.324 120.676 0 33.325-33.324 33.325-87.355 0-120.68l-426.664-426.668c-33.324-33.324-87.355-33.324-120.68 0l-426.668 426.668c-33.324 33.324-33.324 87.355 0 120.68s87.355 33.324 120.68 0l366.328-366.328 366.328 366.328z" />
<glyph unicode="&#xe918;" glyph-name="menu" d="M972.8 192c28.278 0 51.2-22.922 51.2-51.2s-22.922-51.2-51.2-51.2h-921.599c-28.277 0-51.2 22.922-51.2 51.2s22.924 51.2 51.2 51.2h921.599zM972.8 499.199c28.278 0 51.2-22.922 51.2-51.2s-22.922-51.2-51.2-51.2h-921.599c-28.277 0-51.2 22.922-51.2 51.2s22.924 51.2 51.2 51.2h921.599zM972.8 806.399c28.278 0 51.2-22.924 51.2-51.2s-22.922-51.2-51.2-51.2h-921.599c-28.277 0-51.2 22.924-51.2 51.2s22.924 51.2 51.2 51.2h921.599z" />
<glyph unicode="&#xe919;" glyph-name="header-search" d="M460.8 960c254.495 0 460.8-206.308 460.8-460.8 0-108.79-37.698-208.774-100.746-287.601l188.149-188.196c19.993-19.993 19.993-52.414 0-72.407-18.457-18.457-47.498-19.876-67.584-4.26l-4.823 4.26-188.196 188.149c-78.828-63.048-178.811-100.746-287.601-100.746-254.493 0-460.8 206.305-460.8 460.8 0 254.493 206.308 460.8 460.8 460.8zM460.8 857.599c-197.939 0-358.401-160.462-358.401-358.401s160.462-358.401 358.401-358.401c197.939 0 358.401 160.461 358.401 358.401s-160.461 358.401-358.401 358.401z" />
<glyph unicode="&#xe91a;" glyph-name="product-chat" d="M325.178 140.828l-241.952-193.563c-33.521-26.816-83.177-2.949-83.177 39.978v819.123c0 84.822 68.763 153.585 153.585 153.585h716.732c84.825 0 153.585-68.763 153.585-153.585v-511.952c0-84.825-68.761-153.585-153.585-153.585h-545.189zM102.439 93.759l172.799 138.242c9.077 7.259 20.356 11.217 31.981 11.217h563.146c28.275 0 51.196 22.92 51.196 51.196v511.952c0 28.274-22.92 51.196-51.196 51.196h-716.732c-28.274 0-51.196-22.921-51.196-51.196v-712.605z" />
<glyph unicode="&#xe91b;" glyph-name="product-domains" d="M512 959.999c282.767 0 512-229.23 512-512 0-282.767-229.232-512-512-512-282.77 0-512 229.232-512 512 0 282.77 229.23 512 512 512zM664.186 396.758h-304.376c5.68-102.58 28.241-195.968 62.758-265.001 32.148-64.297 66.504-93.358 89.431-93.358s57.282 29.062 89.431 93.358c34.519 69.032 57.078 162.421 62.756 265.001zM918.425 396.748l-151.691-0.016c-6.196-124.615-34.734-236.083-77.48-318.151 122.783 59.064 211.62 177.546 229.171 318.167zM257.268 396.733l-151.692 0.016c17.552-140.621 106.388-259.098 229.202-318.131-40.104 76.913-67.693 179.687-76.090 294.912l-1.421 23.204zM334.748 817.419l-1.339-0.701c-122.117-59.258-210.363-177.395-227.838-317.509l151.694 0.005c6.19 124.634 34.726 236.121 77.483 318.205zM512 857.598l-4.163-0.304c-22.799-3.238-55.009-32.539-85.268-93.053-34.523-69.048-57.085-162.456-62.761-265.055h304.383c-5.672 102.598-28.237 196.007-62.761 265.055-32.148 64.296-66.504 93.356-89.431 93.356zM689.223 817.379l1.152-2.136c42.138-81.88 70.231-192.513 76.36-316.065l151.695 0.020c-17.536 140.642-106.379 259.142-229.207 318.181z" />
<glyph unicode="&#xe91c;" glyph-name="product-drive" d="M870.401 857.599c84.833 0 153.6-68.77 153.6-153.6v-512.001c0-84.833-68.767-153.6-153.6-153.6h-716.8c-84.83 0-153.6 68.767-153.6 153.6v512.001c0 84.83 68.77 153.6 153.6 153.6h716.8zM870.401 755.199h-716.8c-28.277 0-51.2-22.924-51.2-51.2v-512.001c0-28.278 22.924-51.2 51.2-51.2h716.8c28.278 0 51.2 22.922 51.2 51.2v512.001c0 28.277-22.922 51.2-51.2 51.2zM768 345.599c28.278 0 51.2-22.922 51.2-51.2s-22.922-51.2-51.2-51.2c-28.278 0-51.2 22.922-51.2 51.2s22.922 51.2 51.2 51.2zM563.2 345.599c28.278 0 51.2-22.922 51.2-51.2s-22.922-51.2-51.2-51.2c-28.278 0-51.2 22.922-51.2 51.2s22.922 51.2 51.2 51.2z" />
<glyph unicode="&#xe91d;" glyph-name="product-hosting" d="M255.999 89.601c-141.385 0-255.999 114.617-255.999 255.999 0 114.954 76.259 213.918 183.271 245.517 56.155 128.943 184.197 215.282 328.729 215.282 182.538 0 333.204-136.464 355.543-312.939 89.779-21.724 156.457-102.605 156.457-199.061 0-108.636-84.808-198.195-194.293-204.518l-10.506-0.282h-563.199zM817.718 191.981l7.542 0.194c53.918 3.124 96.338 47.918 96.338 102.226 0 56.556-45.845 102.4-102.4 102.4-28.278 0-51.2 22.922-51.2 51.2 0 141.385-114.617 255.999-255.999 255.999-110.323 0-207.221-70.436-242.354-173.118-6.066-17.73-21.334-30.731-39.805-33.894-73.142-12.518-127.44-76.288-127.44-151.388 0-84.833 68.77-153.6 153.6-153.6l561.72-0.020z" />
<glyph unicode="&#xe91e;" glyph-name="product-messaging" d="M870.401 857.599c84.833 0 153.6-68.77 153.6-153.6v-512.001c0-84.833-68.767-153.6-153.6-153.6h-716.8c-84.83 0-153.6 68.767-153.6 153.6v512.001c0 84.83 68.77 153.6 153.6 153.6h716.8zM921.6 687.206l-375.885-328.939c-17.695-15.482-43.387-16.774-62.418-3.871l-5.012 3.871-375.885 328.889v-495.155c0-28.278 22.924-51.2 51.2-51.2h716.8c28.278 0 51.2 22.922 51.2 51.2v495.207zM843.776 755.199h-663.654l331.878-290.365 331.776 290.365z" />
<glyph unicode="&#xe91f;" glyph-name="images" d="M640 767.999c106.041 0 192-85.961 192-192v-448c0-106.041-85.959-192-192-192h-448c-106.039 0-192 85.959-192 192v448c0 106.039 85.961 192 192 192h448zM640 639.999h-448c-35.346 0-64-28.654-64-64v-428.608l139.921 209.805c20.090 28.128 58.446 34.886 86.718 16.628l6.333-4.659 201.288-274.4 141.741 161.235v320c0 35.346-28.653 64-64 64zM832 959.999c102.253 0 185.836-79.931 191.674-180.719l0.326-11.281v-448c0-35.348-28.653-64-64-64-32.819 0-59.873 24.704-63.571 56.538l-0.429 7.463v448c0 32.821-24.704 59.873-56.538 63.569l-7.463 0.431h-448c-35.346 0-64 28.654-64 64 0 32.821 24.706 59.873 56.536 63.569l7.464 0.431h448z" />
<glyph unicode="&#xe920;" glyph-name="product-professor" d="M82.589 151.539l4.82 4.259 322.188 322.15 168.591-168.554c18.453-18.453 47.497-19.872 67.583-4.259l4.819 4.259 219.792 219.751 66.195-66.153c30.853-30.853 82.655-11.295 87.096 30.391l0.307 5.818-0.091 207.836-0.461 4.48-1.283 6.086-1.243 3.883-1.731 4.172-2.674 4.992-3.427 4.934-4.093 4.616c-1.814 1.813-3.728 3.458-5.725 4.94l-5.697 3.667-5.779 2.738-5.395 1.814-6.013 1.272-3.030 0.365-4.573 0.206h-204.801c-43.635 0-66.425-50.457-40.102-83.076l3.898-4.329 66.153-66.194-183.55-183.55-168.591 168.554c-18.453 18.452-47.497 19.873-67.583 4.258l-4.82-4.258-358.399-358.399c-19.99-19.989-19.99-52.413 0-72.402 18.453-18.453 47.499-19.872 67.583-4.259z" />
<glyph unicode="&#xe921;" glyph-name="search" d="M426.667 959.999c235.641 0 426.666-191.025 426.666-426.666 0-86.964-26.019-167.851-70.691-235.303l216.363-216.359c33.323-33.323 33.323-87.356 0-120.679-30.763-30.763-79.164-33.127-112.64-7.1l-8.039 7.1-216.359 216.363c-67.452-44.672-148.339-70.691-235.303-70.691-235.641 0-426.666 191.025-426.666 426.666s191.025 426.666 426.666 426.666zM426.667 789.332c-141.384 0-256-114.616-256-256s114.616-256 256-256c141.384 0 256 114.616 256 256s-114.616 256-256 256z" />
<glyph unicode="&#xe922;" glyph-name="search-options" d="M512 63.999l511.999 768h-1024l511.999-768z" />
<glyph unicode="&#xe923;" glyph-name="search-options-old" d="M0 703.999c0-47.128 38.205-85.333 85.333-85.333l185.26-0.077c35.165-99.389 129.971-170.589 241.407-170.589s206.243 71.2 241.408 170.589l185.259 0.077c47.129 0 85.333 38.205 85.333 85.333s-38.204 85.333-85.333 85.333l-185.233-0.008c-35.14 99.433-129.967 170.675-241.433 170.675s-206.295-71.24-241.436-170.675l-185.231 0.008c-47.128 0-85.333-38.205-85.333-85.333zM0 191.999c0-47.129 38.205-85.333 85.333-85.333l441.26-0.077c35.165-99.388 129.971-170.589 241.407-170.589 141.389 0 256 114.611 256 256 0 141.384-114.611 256-256 256-111.467 0-206.295-71.24-241.436-170.675l-441.231 0.008c-47.128 0-85.333-38.204-85.333-85.333zM682.667 191.999c0 47.129 38.204 85.333 85.333 85.333s85.333-38.204 85.333-85.333c0-47.129-38.204-85.333-85.333-85.333s-85.333 38.204-85.333 85.333zM426.667 703.999c0 47.128 38.205 85.333 85.333 85.333s85.333-38.205 85.333-85.333c0-47.128-38.205-85.333-85.333-85.333s-85.333 38.205-85.333 85.333z" />
<glyph unicode="&#xe924;" glyph-name="plus" d="M512 959.999c-35.346 0-64-28.654-64-64v-384h-384c-35.346 0-64-28.654-64-64s28.654-64 64-64h384v-384c0-35.347 28.654-64 64-64s64 28.653 64 64v384h384c35.347 0 64 28.653 64 64s-28.653 64-64 64h-384v384c0 35.346-28.653 64-64 64z" />
<glyph unicode="&#xe925;" glyph-name="question-circle" d="M1024 447.999c0-282.836-229.25-512-512-512s-512 229.164-512 512c0 282.667 229.25 512 512 512s512-229.333 512-512zM525.739 790.709c-112.51 0-184.268-47.395-240.617-131.629-7.3-10.913-4.858-25.631 5.605-33.565l71.637-54.317c10.746-8.149 26.056-6.21 34.405 4.381 36.881 46.778 62.169 73.903 118.303 73.903 42.176 0 94.344-27.144 94.344-68.042 0-30.918-25.524-46.796-67.167-70.144-48.566-27.225-112.83-61.11-112.83-145.877v-8.258c0-13.682 11.093-24.774 24.774-24.774h115.613c13.682 0 24.774 11.093 24.774 24.774v2.752c0 58.76 171.741 61.207 171.741 220.216 0 119.746-124.214 210.581-240.582 210.581zM512 278.709c-52.366 0-94.968-42.598-94.968-94.968 0-52.362 42.601-94.968 94.968-94.968s94.968 42.605 94.968 94.968c0 52.37-42.601 94.968-94.968 94.968z" />
<glyph unicode="&#xe926;" glyph-name="success-icon" d="M512 959.999c282.77 0 512-229.23 512-512s-229.23-512-512-512c-282.77 0-512 229.23-512 512s229.23 512 512 512zM512 857.599c-226.217 0-409.6-183.383-409.6-409.6s183.383-409.6 409.6-409.6c226.217 0 409.6 183.383 409.6 409.6s-183.383 409.6-409.6 409.6zM680.596 637.803l-270.996-270.996-66.196 66.196c-19.994 19.996-52.413 19.996-72.407 0-19.995-19.994-19.995-52.413 0-72.407l102.4-102.4c19.994-19.996 52.413-19.996 72.407 0l307.2 307.2c19.996 19.994 19.996 52.413 0 72.407-19.994 19.996-52.413 19.996-72.407 0z" />
<glyph unicode="&#xe927;" glyph-name="check" horiz-adv-x="1336" d="M453.645-44.327l-434.086 436.585c-26.079 26.228-26.079 68.755 0 94.987l94.443 94.988c26.079 26.232 68.366 26.232 94.445 0l292.422-294.103 626.336 629.936c26.076 26.229 68.363 26.229 94.444 0l94.44-94.988c26.081-26.23 26.081-68.757 0-94.988l-768-772.421c-26.081-26.228-68.363-26.228-94.444 0.004z" />
<glyph unicode="&#xe928;" glyph-name="export" d="M56.889 789.332c0 94.257 76.41 170.667 170.667 170.667h512c62.84 0 113.778-50.94 113.778-113.778h-625.778c-31.419 0-56.889-25.47-56.889-56.889v-682.667c0-31.42 25.47-56.889 56.889-56.889h294.207c15.087 0 29.553 5.996 40.227 16.662l194.23 194.23c22.216 22.216 58.237 22.216 80.452 0s22.216-58.237 0-80.452l-194.23-194.23c-32.006-32.006-75.418-49.988-120.679-49.988h-294.207c-94.257 0-170.667 76.408-170.667 170.667v682.667zM512 220.443c0 31.42 25.469 56.889 56.889 56.889h227.556l-284.444-284.444v227.556zM398.222 561.777c0 31.419 25.47 56.889 56.889 56.889h317.77l-16.662 16.662c-22.216 22.217-22.216 58.237 0 80.453s58.237 22.217 80.452 0l113.778-113.778c22.216-22.217 22.216-58.237 0-80.453l-113.778-113.777c-22.216-22.216-58.237-22.216-80.452 0s-22.216 58.236 0 80.453l16.662 16.662h-317.77c-31.419 0-56.889 25.47-56.889 56.889z" />
<glyph unicode="&#xe929;" glyph-name="hourglass" horiz-adv-x="614" d="M460.502 959.668c81.749 0 148.573-63.904 153.24-144.481l0.261-9.019v-153.501c0-13.323-5.194-26.027-14.317-35.5l-4.887-4.455-205.932-164.712 205.932-164.711c12.137-9.712 19.203-24.412 19.203-39.956v-153.501c0-84.778-68.722-153.501-153.501-153.501h-307.001c-84.776 0-153.501 68.722-153.501 153.501v153.501c0 15.545 7.065 30.244 19.204 39.956l205.88 164.711-205.88 164.712c-10.403 8.323-17.081 20.313-18.777 33.356l-0.427 6.598v153.501c0 81.748 63.904 148.571 144.481 153.24l9.019 0.261h307.001zM307.001 382.454l-204.667-163.683v-128.94c0-28.26 22.908-51.167 51.167-51.167h307.001l5.967 0.343c25.448 2.957 45.2 24.586 45.2 50.824v128.89l-204.667 163.734zM153.5 857.334h307.001l5.967-0.345 5.765-1.007c22.604-5.303 39.434-25.593 39.434-49.816v-51.167h-409.335v51.167l0.345 5.967c2.955 25.448 24.582 45.2 50.822 45.2z" />
<glyph unicode="&#xe92a;" glyph-name="check-thin" horiz-adv-x="1280" d="M506.243 96.259l-396.988 396.992c-24.994 24.993-65.516 24.993-90.51 0s-24.994-65.516 0-90.509l447.999-447.999c27.132-27.13 71.874-24.454 95.58 5.715l703.997 895.997c21.837 27.793 17.011 68.027-10.784 89.865s-68.026 17.010-89.862-10.784l-659.43-839.276z" />
<glyph unicode="&#xe92b;" glyph-name="code" d="M1017.653 463.378l-261.344 261.343c-8.128 8.127-22.507 8.127-30.635 0l-56.657-56.659c-8.461-8.463-8.461-22.18 0-30.643l189.373-189.353-189.36-189.381c-8.465-8.465-8.465-22.182 0-30.643l56.657-56.661c4.062-4.062 9.579-6.362 15.322-6.362 5.73 0 11.26 2.3 15.322 6.362l261.323 261.335c8.461 8.474 8.461 22.199 0 30.665zM354.971 258.684l-189.341 189.36 189.374 189.354c4.063 4.063 6.35 9.568 6.35 15.321 0 5.743-2.275 11.258-6.35 15.322l-56.659 56.659c-4.063 4.064-9.579 6.35-15.321 6.35s-11.258-2.286-15.322-6.35l-261.355-261.322c-8.463-8.461-8.463-22.182 0-30.652l261.344-261.335c4.063-4.062 9.579-6.362 15.321-6.362s11.258 2.3 15.322 6.362l56.659 56.657c8.463 8.452 8.463 22.17-0.021 30.635zM660.612 812.64c-2.752 5.050-7.39 8.798-12.894 10.424l-45.931 13.555c-11.465 3.402-23.535-3.175-26.914-14.65l-213.234-722.118c-1.625-5.513-0.997-11.439 1.745-16.478 2.741-5.060 7.39-8.798 12.894-10.436l45.932-13.555c2.048-0.606 4.118-0.9 6.146-0.9 9.348 0 17.984 6.114 20.77 15.552l213.232 722.125c1.626 5.516 1.007 11.442-1.745 16.481z" />
<glyph unicode="&#xe92c;" glyph-name="globe" d="M512 959.999c282.767 0 512-229.23 512-512 0-282.767-229.233-512-512-512-282.77 0-512 229.233-512 512 0 282.77 229.23 512 512 512zM664.187 396.758h-304.376c5.68-102.579 28.241-195.968 62.759-265.001 32.148-64.297 66.501-93.358 89.43-93.358 22.927 0 57.283 29.061 89.431 93.358 34.519 69.033 57.078 162.422 62.756 265.001zM918.426 396.748l-151.69-0.015c-6.195-124.616-34.734-236.083-77.481-318.152 122.783 59.064 211.62 177.546 229.171 318.167zM257.267 396.732l-151.692 0.015c17.553-140.621 106.388-259.098 229.203-318.131-40.104 76.913-67.694 179.686-76.090 294.912l-1.421 23.204zM334.748 817.419l-1.339-0.701c-122.117-59.258-210.363-177.395-227.838-317.511l151.694 0.004c6.189 124.637 34.726 236.125 77.483 318.207zM512 857.599l-4.162-0.303c-22.801-3.238-55.011-32.539-85.268-93.053-34.524-69.048-57.086-162.456-62.762-265.055h304.384c-5.673 102.599-28.237 196.007-62.761 265.055-32.148 64.296-66.504 93.356-89.431 93.356zM689.224 817.38l1.152-2.136c42.138-81.88 70.231-192.514 76.36-316.068l151.695 0.022c-17.536 140.643-106.378 259.143-229.207 318.181z" />
<glyph unicode="&#xe92d;" glyph-name="page-edit" d="M512 959.999c16.972 0 33.255-6.742 45.255-18.745l256-256c12-12.002 18.745-28.281 18.745-45.255 0-35.346-28.652-64-64-64h-256c-32.819 0-59.872 24.706-63.571 56.536l-0.429 7.464-0.064 192h-191.936c-35.346 0-64-28.654-64-64v-640c0-32.819 24.706-59.872 56.536-63.571l7.464-0.429c35.346 0 64-28.652 64-64 0-32.819-24.706-59.872-56.536-63.571l-7.464-0.429c-106.039 0-192 85.959-192 192v640c0 106.039 85.961 192 192 192h256zM722.745 429.254c23.072 23.071 59.372 24.846 84.48 5.325l6.029-5.325 128-128c23.072-23.072 24.845-59.372 5.325-84.48l-5.325-6.029-256-256c-10.004-10.004-22.976-16.352-36.845-18.189l-8.41-0.556h-128c-32.819 0-59.872 24.704-63.571 56.537l-0.429 7.462v128c0 14.144 4.685 27.807 13.19 38.912l5.555 6.342 256 256z" />
<glyph unicode="&#xe92e;" glyph-name="color" d="M896 345.599c0 150.81-128 355.61-384 614.4-256-258.79-384-463.59-384-614.4 0-226.215 171.923-409.6 384-409.6l14.080 0.269c205.555 7.904 369.92 188.141 369.92 409.331zM512 774.143v-710.144c-139.473 0-256 124.295-256 281.6 0 91.713 83.063 237.716 254.116 426.486l1.884 2.058z" />
<glyph unicode="&#xe92f;" glyph-name="widget-countdown" d="M512 831.999c247.424 0 448-200.576 448-448s-200.576-448-448-448c-247.424 0-448 200.576-448 448s200.576 448 448 448zM512 703.999c-176.731 0-320-143.269-320-320s143.269-320 320-320c176.73 0 320 143.27 320 320s-143.27 320-320 320zM512 575.999c35.348 0 64-28.654 64-64v-128c0-35.348-28.653-64-64-64s-64 28.653-64 64v128c0 35.346 28.654 64 64 64zM704 959.999c35.348 0 64-28.654 64-64s-28.653-64-64-64h-384c-35.346 0-64 28.654-64 64s28.654 64 64 64h384z" />
<glyph unicode="&#xe930;" glyph-name="widget-text" d="M957.773 63.6h-20.378l-295.485 811.534c-40.755 112.288-193.591 112.288-239.442 5.104l-320.955-816.638h-15.284c-35.662 0-66.229-30.623-66.229-61.251 0-35.727 30.567-66.35 66.229-66.35h61.134c0 0 0 0 5.094 0h122.269c35.662 0 66.229 30.623 66.229 61.245 0 35.732-30.567 61.251-66.229 61.251h-35.661l76.418 188.846h438.132l66.227-188.846h-35.661c-35.661 0-66.232-30.623-66.232-61.251 0-35.727 30.572-61.245 66.232-61.245h127.36c0 0 0 0 5.094 0h61.138c35.661 0 66.227 31.017 66.227 61.245 0 35.18-35.661 66.355-66.227 66.355zM346.428 380.046l178.311 454.256 163.021-454.256h-341.331z" />
<glyph unicode="&#xe931;" glyph-name="widget-embed" d="M301.26 685.25c24.993-24.993 24.993-65.515 0-90.508l-146.742-146.742 146.742-146.742c24.993-24.992 24.993-65.515 0-90.507s-65.515-24.992-90.508 0l-191.996 191.996c-24.993 24.992-24.993 65.514 0 90.508l191.996 191.996c24.993 24.993 65.515 24.993 90.508 0zM722.742 685.25c24.992 24.993 65.515 24.993 90.507 0l191.996-191.996c24.992-24.993 24.992-65.516 0-90.508l-191.996-191.996c-24.992-24.992-65.515-24.992-90.507 0s-24.992 65.515 0 90.507l146.742 146.742-146.742 146.742c-24.992 24.993-24.992 65.515 0 90.508zM585.050 959.346c34.994-4.999 59.308-37.416 54.309-72.406l-128.001-895.981c-4.999-34.994-37.416-59.308-72.406-54.309-34.991 5.005-59.303 37.421-54.304 72.409l128 895.985c4.999 34.991 37.414 59.303 72.402 54.304z" />
<glyph unicode="&#xe932;" glyph-name="widget-image" d="M832 959.999c106.041 0 192-85.961 192-192v-640c0-106.041-85.959-192-192-192h-640c-106.039 0-192 85.959-192 192v640c0 106.039 85.961 192 192 192h640zM832 831.999h-640c-35.346 0-64-28.654-64-64v-492.608l139.921 209.808c20.090 28.125 58.446 34.884 86.718 16.626l6.333-4.659 329.288-274.401 205.741 369.555v175.68c0 35.346-28.653 64-64 64zM288 575.999c53.020 0 96 42.98 96 96s-42.98 96-96 96c-53.020 0-96-42.98-96-96s42.98-96 96-96z" />
<glyph unicode="&#xe933;" glyph-name="widget-container" d="M64 831.999h128c35.346 0 64-28.654 64-64v-640c0-35.346-28.654-64-64-64h-128c-35.346 0-64 28.654-64 64v640c0 35.346 28.654 64 64 64zM448 831.999h128c35.346 0 64-28.654 64-64v-640c0-35.346-28.654-64-64-64h-128c-35.346 0-64 28.654-64 64v640c0 35.346 28.654 64 64 64zM832 831.999h128c35.346 0 64-28.654 64-64v-640c0-35.346-28.654-64-64-64h-128c-35.346 0-64 28.654-64 64v640c0 35.346 28.654 64 64 64z" />
<glyph unicode="&#xe934;" glyph-name="refresh" d="M402.745 813.253l128.001 128c24.992 24.994 65.516 24.994 90.509 0 23.072-23.071 24.845-59.374 5.325-84.481l-5.325-6.030-26.375-26.396c207.827-38.872 365.119-221.242 365.119-440.348 0-247.423-200.576-447.999-447.999-447.999s-447.999 200.576-447.999 447.999c0 67.242 14.869 132.504 43.136 192.016 15.165 31.927 53.342 45.516 85.269 30.351s45.516-53.342 30.351-85.269c-20.159-42.441-30.756-88.956-30.756-137.097 0-176.73 143.269-320 320-320s320 143.27 320 320c0 138.126-87.514 255.813-210.125 300.636 24.371-25.096 24.154-65.121-0.621-89.891-23.072-23.071-59.372-24.845-84.48-5.324l-6.029 5.324-128.001 128c-23.071 23.071-24.845 59.374-5.324 84.481l5.324 6.030z" />
<glyph unicode="&#xe935;" glyph-name="open-in-new" d="M192 959.998h128c35.346 0 64-28.654 64-64 0-32.821-24.706-59.872-56.536-63.569l-7.464-0.431h-128c-32.821 0-59.872-24.706-63.569-56.536l-0.431-7.464v-639.999c0-32.819 24.706-59.872 56.536-63.571l7.464-0.429h639.999c32.819 0 59.872 24.704 63.571 56.537l0.429 7.462v128c0 35.347 28.652 64 64 64 32.819 0 59.872-24.704 63.571-56.537l0.429-7.462v-128c0-102.252-79.93-185.836-180.716-191.674l-11.284-0.326h-639.999c-102.251 0-185.834 79.93-191.674 180.716l-0.326 11.284v639.999c0 102.251 79.931 185.834 180.719 191.674l11.281 0.326zM959.999 959.998l5.184-0.192 7.661-1.104 7.13-1.887 7.11-2.811 6.24-3.349 6.15-4.275 5.779-5.126 6.182-7.155 4.582-7.12 1.984-3.901 2.164-5.212 1.542-4.842 1.85-9.465 0.441-7.559v-256c0-35.346-28.652-64-64-64s-64 28.654-64 64v101.504l-274.745-274.758c-23.072-23.071-59.372-24.844-84.48-5.324l-6.029 5.324c-23.071 23.071-24.846 59.374-5.325 84.481l5.325 6.030 274.63 274.745h-101.376c-35.347 0-64 28.654-64 64s28.652 64 64 64h256z" />
<glyph unicode="&#xe936;" glyph-name="visibility" d="M512 831.998c204.755 0 368.326-114.167 486.156-333.744l10.919-20.894 14.925-29.362-14.925-29.364c-118.566-233.222-285.92-354.636-497.075-354.636-204.755 0-368.325 114.17-486.16 333.741l-10.912 20.896-14.927 29.364 14.927 29.362c118.565 233.224 285.92 354.637 497.072 354.637zM512 703.998c-144.85 0-263.004-76.012-357.735-238.284l-10.060-17.716 10.060-17.715c94.731-162.272 212.884-238.285 357.735-238.285 150.022 0 271.411 81.542 367.795 256-96.384 174.461-217.772 256-367.795 256zM512 575.998c70.695 0 128-57.307 128-128 0-70.695-57.305-128-128-128-70.692 0-128 57.305-128 128 0 70.692 57.307 128 128 128z" />
<glyph unicode="&#xe937;" glyph-name="ellipsis-v" d="M512 191.999c70.695 0 128-57.305 128-128s-57.305-128-128-128c-70.692 0-128 57.305-128 128s57.307 128 128 128zM512 575.999c70.695 0 128-57.307 128-128 0-70.695-57.305-128-128-128-70.692 0-128 57.305-128 128 0 70.692 57.307 128 128 128zM512 959.999c70.695 0 128-57.307 128-128s-57.305-128-128-128c-70.692 0-128 57.307-128 128s57.307 128 128 128z" />
<glyph unicode="&#xe938;" glyph-name="publish" d="M462.834 680.97c23.881 28.657 66.555 30.569 92.942 5.731l5.389-5.731 320-383.999c33.159-39.789 7.661-99.264-41.92-104.589l-7.245-0.384h-128v-192c0-30.297-21.050-55.674-49.325-62.31l-7.212-1.261-7.462-0.429h-256c-32.821 0-59.872 24.704-63.569 56.537l-0.431 7.462v192h-128c-49.329 0-78.31 52.301-57.074 93.132l3.566 6.029 4.341 5.811 320 383.999zM512 540.032l-183.36-220.032h55.36c30.297 0 55.676-21.050 62.31-49.325l1.26-7.212 0.431-7.462v-192h128v192c0 30.297 21.050 55.674 49.325 62.31l7.212 1.261 7.462 0.429h55.296l-183.296 220.032zM960 959.999c35.347 0 64-28.654 64-64s-28.652-64-64-64h-896c-35.346 0-64 28.654-64 64s28.654 64 64 64h896z" />
<glyph unicode="&#xe939;" glyph-name="save" d="M1002.577 938.576c28.563-28.564 28.563-74.876 0-103.44l-585.141-585.141c-28.564-28.563-74.876-28.563-103.44 0l-292.571 292.57c-28.564 28.564-28.564 74.876 0 103.44s74.876 28.564 103.44 0l240.851-240.853 533.423 533.424c28.563 28.564 74.876 28.564 103.439 0zM950.857-64.001h-877.714c-40.396 0-73.143 32.746-73.143 73.143s32.747 73.143 73.143 73.143h877.714c40.397 0 73.143-32.746 73.143-73.143s-32.746-73.143-73.143-73.143z" />
<glyph unicode="&#xe93a;" glyph-name="play" d="M73.237 886.761c0 56.439 61.222 91.604 109.973 63.166l731.273-438.762c48.374-28.218 48.374-98.113 0-126.333l-731.273-438.762c-48.751-28.44-109.973 6.727-109.973 63.168v877.522zM219.491 759.444v-622.893l513.014 311.448-513.014 311.445z" />
<glyph unicode="&#xe93b;" glyph-name="mobile" d="M704 959.999c106.041 0 192-85.961 192-192v-640c0-106.041-85.959-192-192-192h-384c-106.039 0-192 85.959-192 192v640c0 106.039 85.961 192 192 192h384zM704 831.999h-384c-35.346 0-64-28.654-64-64v-640c0-35.348 28.654-64 64-64h384c35.348 0 64 28.653 64 64v640c0 35.346-28.653 64-64 64zM512 319.999c35.348 0 64-28.653 64-64s-28.653-64-64-64c-35.346 0-64 28.653-64 64s28.654 64 64 64z" />
<glyph unicode="&#xe93c;" glyph-name="product-pages" d="M448 191.999h-256c-106.039 0-192 85.959-192 192v384c0 106.039 85.961 192 192 192h640c106.041 0 192-85.961 192-192v-384c0-106.041-85.959-192-192-192h-256v-128h128c35.347 0 64-28.652 64-64s-28.652-64-64-64h-384c-35.346 0-64 28.652-64 64s28.654 64 64 64h128v128zM832 831.999h-640c-35.346 0-64-28.654-64-64v-384c0-35.347 28.654-64 64-64h640c35.347 0 64 28.652 64 64v384c0 35.346-28.652 64-64 64z" />
<glyph unicode="&#xe93d;" glyph-name="undo" horiz-adv-x="1170" d="M167.664 323.165l-146.25 146.251c-28.557 28.557-28.557 74.858 0 103.416 26.361 26.361 67.84 28.388 96.526 6.084l6.889-6.084 30.16-30.137c44.416 237.462 252.788 417.182 503.137 417.182 282.703 0 511.879-229.176 511.879-511.879s-229.176-511.879-511.879-511.879c-76.831 0-151.397 16.987-219.395 49.286-36.48 17.331-52.006 60.951-34.679 97.425 17.328 36.482 60.948 52.007 97.427 34.684 48.494-23.035 101.637-35.144 156.646-35.144 201.929 0 365.628 163.697 365.628 365.628s-163.699 365.628-365.628 365.628c-157.822 0-292.29-99.993-343.504-240.082 28.675 27.842 74.406 27.59 102.71-0.712 26.361-26.361 28.388-67.84 6.084-96.526l-6.084-6.889-146.251-146.251c-26.361-26.361-67.84-28.388-96.526-6.084l-6.889 6.084z" />
<glyph unicode="&#xe93e;" glyph-name="exclamation-triangle" d="M572.337 945.723c26.116-13.058 47.292-34.234 60.349-60.35l377.037-754.078c33.331-66.662 6.31-147.718-60.346-181.050-18.739-9.37-39.405-14.246-60.352-14.246h-754.077c-74.529 0-134.947 60.416-134.947 134.944 0 20.954 4.878 41.613 14.247 60.352l377.039 754.078c33.33 66.66 114.388 93.68 181.050 60.35zM512.002 191.999c-35.346 0-64-28.653-64-64s28.654-64 64-64c35.347 0 64 28.653 64 64s-28.653 64-64 64zM512.002 703.999c-32.822 0-59.873-24.707-63.569-56.536l-0.431-7.464v-256c0-35.347 28.654-64 64-64 32.822 0 59.873 24.707 63.569 56.536l0.431 7.464v256c0 35.346-28.653 64-64 64z" />
<glyph unicode="&#xe93f;" glyph-name="widget-widget" d="M256 607.999c0 35.346 28.654 64 64 64h384c35.347 0 64-28.654 64-64s-28.653-64-64-64h-384c-35.346 0-64 28.654-64 64zM528.458 415.999c-30.605-37.058-53.77-80.487-67.208-128h-141.25c-35.346 0-64 28.654-64 64s28.654 64 64 64h208.458zM128 159.999v640h768v-269.25c47.514-13.439 90.944-36.604 128-67.208v400.458c0 35.346-28.653 64-64 64h-896c-35.346 0-64-28.654-64-64v-768c0-35.347 28.654-64 64-64h422.381c-19.945 39.014-32.824 82.246-36.947 128h-321.435zM800-32.001c123.712 0 224 100.288 224 224s-100.288 224-224 224c-123.712 0-224-100.288-224-224s100.288-224 224-224zM800 319.999c17.67 0 32-14.327 32-32v-64h64c17.67 0 32-14.33 32-32s-14.33-32-32-32h-64v-64c0-17.67-14.33-32-32-32s-32 14.33-32 32v64h-64c-17.67 0-32 14.33-32 32s14.33 32 32 32h64v64c0 17.673 14.33 32 32 32z" />
<glyph unicode="&#xe940;" glyph-name="widget-buttons" d="M682.667 675.555c125.673 0 227.556-101.88 227.556-227.556 0-125.673-101.882-227.556-227.556-227.556h-341.333c-125.676 0-227.556 101.882-227.556 227.556 0 125.676 101.88 227.556 227.556 227.556h341.333zM341.333 789.332c-188.513 0-341.333-152.82-341.333-341.333s152.82-341.333 341.333-341.333h341.333c188.512 0 341.333 152.821 341.333 341.333s-152.821 341.333-341.333 341.333h-341.333zM341.333 447.999c0-31.419-25.47-56.889-56.889-56.889s-56.889 25.47-56.889 56.889c0 31.419 25.47 56.889 56.889 56.889s56.889-25.47 56.889-56.889zM568.889 447.999c0-31.419-25.47-56.889-56.889-56.889s-56.889 25.47-56.889 56.889c0 31.419 25.47 56.889 56.889 56.889s56.889-25.47 56.889-56.889zM796.445 447.999c0-31.419-25.47-56.889-56.889-56.889s-56.889 25.47-56.889 56.889c0 31.419 25.47 56.889 56.889 56.889s56.889-25.47 56.889-56.889z" />
<glyph unicode="&#xe941;" glyph-name="widget-divider" d="M0 447.999c0 35.346 28.654 64 64 64h896c35.347 0 64-28.654 64-64s-28.652-64-64-64h-896c-35.346 0-64 28.652-64 64z" />
<glyph unicode="&#xe942;" glyph-name="widget-video" d="M0 675.554c0 94.256 76.41 170.667 170.667 170.667h455.111c94.259 0 170.667-76.41 170.667-170.667v-113.778c0-31.419-25.469-56.889-56.889-56.889s-56.889 25.47-56.889 56.889v113.778c0 31.419-25.469 56.889-56.889 56.889h-455.111c-31.419 0-56.889-25.47-56.889-56.889v-455.111c0-31.42 25.47-56.889 56.889-56.889h455.111c31.42 0 56.889 25.469 56.889 56.889v113.778c0 31.419 25.469 56.889 56.889 56.889s56.889-25.47 56.889-56.889v-113.778c0-94.259-76.407-170.667-170.667-170.667h-455.111c-94.256 0-170.667 76.407-170.667 170.667v455.111zM997.018 723.946c16.771-10.366 26.982-28.676 26.982-48.393v-455.111c0-19.718-10.212-38.025-26.982-48.395-16.771-10.365-37.717-11.304-55.347-2.486l-227.556 113.776c-28.103 14.051-39.492 48.222-25.446 76.324 14.052 28.102 48.225 39.493 76.328 25.442l145.226-72.613v271.015l-145.226-72.612c-28.103-14.051-62.276-2.66-76.328 25.442-14.046 28.101-2.657 62.273 25.446 76.324l227.556 113.778c17.63 8.817 38.576 7.875 55.347-2.491zM682.667 220.442v426.667h113.778v-426.667h-113.778z" />
<glyph unicode="&#xe943;" glyph-name="widget-form" d="M0 191.999c0 106.041 85.961 192 192 192h640c106.041 0 192-85.959 192-192s-85.959-192-192-192h-640c-106.039 0-192 85.959-192 192zM192 255.999c-35.346 0-64-28.653-64-64s28.654-64 64-64h640c35.348 0 64 28.653 64 64s-28.653 64-64 64h-640zM0 703.999c0 106.039 85.961 192 192 192h640c106.041 0 192-85.961 192-192s-85.959-192-192-192h-640c-106.039 0-192 85.961-192 192zM192 767.999c-35.346 0-64-28.654-64-64s28.654-64 64-64h640c35.348 0 64 28.654 64 64s-28.653 64-64 64h-640z" />
<glyph unicode="&#xe944;" glyph-name="camera" d="M602.315 908.799c58.178 0 111.365-32.87 137.382-84.908l45.796-91.589c8.674-17.346 26.401-28.303 45.793-28.303h39.114c84.83 0 153.6-68.77 153.6-153.6v-409.6c0-84.83-68.77-153.6-153.6-153.6h-716.8c-84.83 0-153.6 68.77-153.6 153.6v409.6c0 84.83 68.77 153.6 153.6 153.6h39.114c19.392 0 37.12 10.957 45.793 28.303l45.796 91.589c26.017 52.037 79.204 84.908 137.382 84.908h180.629zM602.315 806.4h-180.629c-19.392 0-37.12-10.957-45.793-28.303l-45.796-91.589c-26.017-52.037-79.204-84.907-137.382-84.907h-39.114c-28.277 0-51.2-22.922-51.2-51.2v-409.6c0-28.278 22.924-51.2 51.2-51.2h716.8c28.278 0 51.2 22.922 51.2 51.2v409.6c0 28.278-22.922 51.2-51.2 51.2h-39.114c-58.178 0-111.365 32.87-137.382 84.907l-45.796 91.589c-8.674 17.346-26.401 28.303-45.793 28.303zM512.001 601.599c113.108 0 204.8-91.692 204.8-204.8s-91.692-204.8-204.8-204.8c-113.108 0-204.8 91.692-204.8 204.8s91.692 204.8 204.8 204.8zM512.001 499.199c-56.552 0-102.4-45.847-102.4-102.4s45.847-102.4 102.4-102.4c56.552 0 102.4 45.847 102.4 102.4s-45.847 102.4-102.4 102.4z" />
<glyph unicode="&#xe945;" glyph-name="circle-plus" d="M512 959.999c-282.839 0-512-229.161-512-512 0-282.836 229.161-512 512-512 282.836 0 512 229.164 512 512 0 282.839-229.164 512-512 512zM809.29 390.193c0-13.626-11.145-24.774-24.774-24.774h-189.935v-189.935c0-13.629-11.148-24.774-24.774-24.774h-115.613c-13.626 0-24.774 11.145-24.774 24.774v189.935h-189.935c-13.626 0-24.774 11.148-24.774 24.774v115.613c0 13.626 11.148 24.774 24.774 24.774h189.935v189.935c0 13.626 11.148 24.774 24.774 24.774h115.613c13.626 0 24.774-11.148 24.774-24.774v-189.935h189.935c13.629 0 24.774-11.148 24.774-24.774v-115.613z" />
<glyph unicode="&#xe946;" glyph-name="vertical-align" d="M853.333 959.999c47.129 0 85.333-38.205 85.333-85.333v-853.333c0-47.129-38.204-85.333-85.333-85.333s-85.333 38.204-85.333 85.333v853.333c0 47.128 38.204 85.333 85.333 85.333zM170.667 959.999c47.128 0 85.333-45.847 85.333-102.4v-819.2c0-56.551-38.205-102.4-85.333-102.4s-85.333 45.849-85.333 102.4v819.2c0 56.553 38.205 102.4 85.333 102.4zM512 618.666c47.128 0 85.333-38.205 85.333-85.333v-170.667c0-47.128-38.205-85.333-85.333-85.333s-85.333 38.205-85.333 85.333v170.667c0 47.128 38.205 85.333 85.333 85.333z" />
<glyph unicode="&#xe947;" glyph-name="chevron-left" d="M783.139 60.871l-387.142 387.142 387.142 387.142c28.599 28.599 28.599 74.897 0 103.423s-74.897 28.599-103.423 0l-438.853-438.853c-28.599-28.599-28.599-74.897 0-103.423l438.853-438.853c28.599-28.599 74.897-28.599 103.423 0s28.599 74.897 0 103.423z" />
<glyph unicode="&#xe948;" glyph-name="active" d="M109.24 493.235c-24.992 24.992-65.504 24.992-90.496 0s-24.992-65.504 0-90.496l319.999-319.999c25.92-25.92 68.288-24.8 92.832 2.432l575.999 639.999c23.648 26.272 21.504 66.752-4.768 90.4s-66.752 21.504-90.4-4.768l-530.879-589.855-272.288 272.288z" />
<glyph unicode="&#xe949;" glyph-name="billing" d="M512 846.207c-219.936 0-398.208-178.304-398.208-398.208s178.304-398.208 398.208-398.208c219.936 0 398.208 178.304 398.208 398.208s-178.304 398.208-398.208 398.208zM0 447.999c0 282.784 229.216 512 512 512s512-229.216 512-512c0-282.784-229.216-512-512-512s-512 229.216-512 512zM512 760.895c31.424 0 56.896-25.472 56.896-56.896v-28.448h56.896c31.424 0 56.896-25.472 56.896-56.896s-25.472-56.896-56.896-56.896h-170.656c-15.712 0-28.448-12.736-28.448-28.448s12.736-28.448 28.448-28.448h113.792c78.56 0 142.208-63.68 142.208-142.208s-63.68-142.208-142.208-142.208v-28.448c0-31.424-25.472-56.896-56.896-56.896s-56.896 25.472-56.896 56.896v28.448h-56.896c-31.424 0-56.896 25.472-56.896 56.896s25.472 56.896 56.896 56.896h170.656c15.712 0 28.448 12.736 28.448 28.448s-12.736 28.448-28.448 28.448h-113.792c-78.56 0-142.208 63.68-142.208 142.208s63.68 142.208 142.208 142.208v28.448c0 31.424 25.472 56.896 56.896 56.896z" />
<glyph unicode="&#xe94a;" glyph-name="moon" d="M514.463 826.943c-182.4-29.792-321.632-188.128-321.632-378.976 0-212.064 171.936-384 384-384 64.064 0 124.416 15.648 177.504 43.392-179.936 79.392-305.504 259.328-305.504 468.64 0 91.168 23.872 176.8 65.632 250.944zM64.831 447.999c0 282.784 229.216 512 512 512 25.44 0 50.464-1.856 74.944-5.472 23.872-3.52 43.776-20.16 51.392-43.040s1.76-48.16-15.232-65.312c-68.768-69.44-111.136-164.8-111.136-270.176 0-192.896 142.304-352.672 327.648-379.904 23.872-3.52 43.776-20.16 51.424-43.040s1.76-48.16-15.232-65.312c-92.704-93.632-221.536-151.744-363.808-151.744-282.784 0-512 229.216-512 512z" />
<glyph unicode="&#xe94b;" glyph-name="profile" d="M320.022 320.003h383.988c176.73 0 319.99-143.26 319.99-319.99 0-35.359-28.639-63.998-63.998-63.998-32.831 0-59.87 24.703-63.582 56.542l-0.768 18.751c-5.632 97.053-83.325 174.747-180.378 180.378l-11.296 0.32h-383.988c-106.045 0-191.994-85.949-191.994-191.994 0-35.359-28.639-63.998-63.998-63.998s-63.998 28.639-63.998 63.998c0 172.091 135.836 312.438 306.102 319.702l13.888 0.288zM512.016 959.983c176.73 0 319.99-143.26 319.99-319.99s-143.26-319.99-319.99-319.99c-176.73 0-319.99 143.26-319.99 319.99s143.26 319.99 319.99 319.99zM512.016 831.987c-106.045 0-191.994-85.949-191.994-191.994s85.949-191.994 191.994-191.994c106.045 0 191.994 85.949 191.994 191.994s-85.949 191.994-191.994 191.994z" />
<glyph unicode="&#xe94c;" glyph-name="subscription" d="M0 383.999c0 106.048 85.952 192 192 192h640c106.048 0 192-85.952 192-192v-256c0-106.048-85.952-192-192-192h-640c-106.048 0-192 85.952-192 192v256zM192 447.999c-35.36 0-64-28.64-64-64v-256c0-35.36 28.64-64 64-64h640c35.36 0 64 28.64 64 64v256c0 35.36-28.64 64-64 64h-640zM64 639.999c0 70.688 57.312 128 128 128h640c70.688 0 128-57.312 128-128h-896zM128 831.999c0 70.688 57.312 128 128 128h512c70.688 0 128-57.312 128-128h-768z" />
<glyph unicode="&#xe94d;" glyph-name="support" d="M512 959.999c282.784 0 512-229.216 512-512s-229.216-512-512-512c-282.784 0-512 229.216-512 512s229.216 512 512 512zM512 191.999c-35.36 0-64-28.64-64-64s28.64-64 64-64c35.36 0 64 28.64 64 64s-28.64 64-64 64zM512 831.999c-106.048 0-192-85.952-192-192 0-35.36 28.64-64 64-64 32.832 0 59.872 24.704 63.584 56.544l0.864 14.912c3.712 31.84 30.752 56.544 63.584 56.544 32.448 0 59.264-24.16 63.424-55.456l0.544-6.272c-0.096 0.384-0.384 0.416-1.056-0.032l-29.216-25.696-14.368-13.184-9.888-10.112c-44.8-47.872-69.952-106.912-73.12-190.88l-0.352-18.368c0-35.36 28.64-64 64-64l7.456 0.416c31.84 3.712 56.544 30.752 56.544 63.584 0 64.96 14.592 98.368 44.64 127.648l38.88 34.656 8.16 8.16c23.328 24.608 36.32 50.976 36.32 85.568 0 106.048-85.952 192-192 192z" />
<glyph unicode="&#xe94e;" glyph-name="users" d="M255.992 733.846c-47.135 0-85.341-38.207-85.341-85.341s38.207-85.341 85.341-85.341c47.135 0 85.341 38.207 85.341 85.341s-38.207 85.341-85.341 85.341zM56.894 648.537c0 109.949 89.149 199.098 199.098 199.098s199.098-89.149 199.098-199.098c0-109.949-89.149-199.098-199.098-199.098s-199.098 89.149-199.098 199.098zM767.976 733.846c-47.135 0-85.341-38.207-85.341-85.341s38.207-85.341 85.341-85.341c47.135 0 85.341 38.207 85.341 85.341s-38.207 85.341-85.341 85.341zM568.878 648.537c0 109.949 89.149 199.098 199.098 199.098s199.098-89.149 199.098-199.098c0-109.949-89.149-199.098-199.098-199.098s-199.098 89.149-199.098 199.098zM113.788 107.498v-2.24c0-31.423-25.471-56.894-56.894-56.894s-56.894 25.471-56.894 56.894v2.848h56.894c-56.894 0-56.894 0.064-56.894 0.064v0.64l0.032 0.992c0.032 0.736 0.032 1.664 0.096 2.72 0.096 2.144 0.256 4.928 0.576 8.288 0.64 6.688 1.856 15.68 4.224 26.271 4.672 21.023 14.048 49.342 33.087 77.886 40.287 60.414 116.092 110.653 246.424 110.653s206.138-50.238 246.456-110.653c19.039-28.543 28.415-56.862 33.087-77.886 2.368-10.592 3.584-19.615 4.224-26.271 0.32-3.36 0.48-6.144 0.576-8.288 0.064-1.088 0.096-1.984 0.096-2.72l0.032-0.992v-0.64c0 0 0-0.064-56.894-0.064h56.894v-2.848c0-31.423-25.471-56.894-56.894-56.894s-56.894 25.471-56.894 56.894v2.24c-0.032 0.352-0.064 1.248-0.192 2.528-0.256 2.656-0.8 6.976-2.016 12.384-2.432 10.976-7.264 25.343-16.703 39.455-16.607 24.895-54.558 59.998-151.771 59.998s-135.164-35.103-151.771-59.998c-9.408-14.112-14.24-28.479-16.703-39.455-1.216-5.408-1.76-9.728-2.016-12.384-0.128-1.312-0.16-2.176-0.192-2.528zM568.878 107.498v-2.24c0-31.423-25.471-56.894-56.894-56.894s-56.894 25.471-56.894 56.894v2.848h56.894c-56.894 0-56.894 0.032-56.894 0.064v0.64l0.032 0.992c0.032 0.736 0.032 1.664 0.096 2.72 0.096 2.144 0.256 4.928 0.576 8.288 0.64 6.688 1.856 15.68 4.224 26.271 4.672 21.023 14.048 49.342 33.087 77.886 40.287 60.414 116.092 110.653 246.424 110.653s206.138-50.238 246.456-110.653c19.039-28.543 28.415-56.862 33.087-77.886 2.368-10.592 3.584-19.615 4.224-26.271 0.32-3.36 0.48-6.144 0.576-8.288 0.064-1.088 0.096-1.984 0.096-2.72l0.032-0.992v-0.64c0-0.032 0-0.064-56.894-0.064h56.894v-2.848c0-31.423-25.471-56.894-56.894-56.894s-56.894 25.471-56.894 56.894v2.24c-0.032 0.352-0.064 1.248-0.192 2.528-0.256 2.656-0.8 6.976-2.016 12.384-2.432 10.976-7.296 25.343-16.703 39.455-16.607 24.895-54.558 59.998-151.771 59.998s-135.164-35.103-151.771-59.998c-9.408-14.112-14.272-28.479-16.703-39.455-1.216-5.408-1.76-9.728-2.016-12.384-0.128-1.312-0.16-2.176-0.192-2.528z" />
<glyph unicode="&#xe94f;" glyph-name="import" d="M170.667 846.221c0 62.838 50.94 113.778 113.778 113.778h512c94.259 0 170.667-76.41 170.667-170.667v-521.762c0-45.261-17.982-88.672-49.988-120.679l-160.904-160.904c-32.006-32.006-75.418-49.988-120.679-49.988h-294.207c-94.257 0-170.667 76.408-170.667 170.667v113.778c0 31.42 25.47 56.889 56.889 56.889s56.889-25.469 56.889-56.889v-113.778c0-31.42 25.47-56.889 56.889-56.889h294.207c15.087 0 29.553 5.996 40.227 16.662l160.904 160.904c10.667 10.672 16.662 25.139 16.662 40.227v521.762c0 31.419-25.469 56.889-56.889 56.889h-625.778zM625.778 220.443c0 31.42 25.469 56.889 56.889 56.889h227.556l-284.444-284.444v227.556zM56.889 561.777c0 31.419 25.47 56.889 56.889 56.889h317.769l-16.662 16.662c-22.217 22.217-22.217 58.237 0 80.453s58.237 22.217 80.453 0l113.777-113.778c22.216-22.217 22.216-58.237 0-80.453l-113.777-113.777c-22.217-22.216-58.237-22.216-80.453 0s-22.217 58.236 0 80.453l16.662 16.662h-317.769c-31.419 0-56.889 25.47-56.889 56.889z" />
<glyph unicode="&#xe950;" glyph-name="sort" d="M128 191.999c35.346 0 64-28.653 64-64s-28.654-64-64-64h-64c-35.346 0-64 28.653-64 64s28.654 64 64 64h64zM256 511.999c35.346 0 64-28.654 64-64 0-35.348-28.654-64-64-64h-192c-35.346 0-64 28.653-64 64s28.654 64 64 64h192zM512 831.999c35.348 0 64-28.654 64-64s-28.653-64-64-64h-448c-35.346 0-64 28.654-64 64s28.654 64 64 64h448zM768 831.999c35.348 0 64-28.654 64-64v-485.44l82.745 82.695c23.073 23.073 59.373 24.845 84.48 5.325l6.029-5.325c23.073-23.073 24.845-59.373 5.325-84.48l-5.325-6.029-192-192c-23.073-23.073-59.373-24.845-84.48-5.325l-6.029 5.325-192 192c-24.994 24.993-24.994 65.516 0 90.509 23.073 23.073 59.373 24.845 84.48 5.325l6.029-5.325 82.745-82.695v485.44c0 35.346 28.653 64 64 64z" />
<glyph unicode="&#xe951;" glyph-name="filter" d="M320.042 427.532l-308.011 431.218c-30.251 42.351 0.022 101.176 52.067 101.176h895.803c52.046 0 82.318-58.827 52.065-101.176l-308.008-431.218v-299.422c0-24.238-13.693-46.39-35.371-57.229l-255.942-127.972c-42.544-21.275-92.601 9.662-92.601 57.229v427.393zM188.435 831.956l247.661-346.725c7.752-10.853 11.919-23.855 11.919-37.191v-344.372l127.972 63.986v280.386c0 13.336 4.165 26.339 11.921 37.191l247.658 346.725h-647.129z" />
<glyph unicode="&#xe953;" glyph-name="warning-alt" d="M512.006 345.601c13.578 0 26.598 4.879 36.198 13.568 9.605 8.689 14.996 20.474 14.996 32.762v214.54c0 12.287-5.392 24.071-14.996 32.76-9.6 8.689-22.62 13.57-36.198 13.57s-26.604-4.88-36.204-13.57c-9.6-8.689-14.996-20.473-14.996-32.76v-213.828c-0.102-6.144 1.141-12.247 3.671-17.951 2.524-5.704 6.277-10.895 11.044-15.272s10.445-7.854 16.706-10.225c6.262-2.376 12.984-3.594 19.778-3.594zM512.001 140.8c28.278 0 51.2 22.922 51.2 51.2s-22.922 51.2-51.2 51.2c-28.278 0-51.2-22.922-51.2-51.2s22.922-51.2 51.2-51.2zM1009.435 158.71l-391.097 689.876c-10.352 18.22-25.646 33.428-44.268 44.024-18.617 10.597-39.88 16.189-61.537 16.189s-42.92-5.592-61.537-16.189c-18.622-10.597-33.914-25.805-44.268-44.024l-391.499-689.876c-10.247-17.612-15.494-37.494-15.218-57.656s6.064-39.9 16.789-57.252c10.724-17.352 26.011-31.708 44.335-41.641s39.046-15.089 60.101-14.96h782.194c20.879-0.016 41.411 5.166 59.572 15.037s33.326 24.090 44.017 41.273c10.691 17.178 16.532 36.721 16.957 56.714 0.425 19.999-4.588 39.751-14.54 57.334v1.152zM937.959 84.106c-3.553-5.74-8.602-10.496-14.658-13.799s-12.902-5.044-19.871-5.044h-782.194c-6.979-0.016-13.844 1.705-19.915 5.003s-11.141 8.053-14.708 13.799c-3.568 5.744-5.509 12.283-5.634 18.965-0.125 6.686 1.571 13.286 4.922 19.148l391.094 689.875c3.44 6.104 8.545 11.204 14.766 14.759s13.327 5.431 20.572 5.431c7.244 0 14.351-1.877 20.572-5.431s11.321-8.654 14.761-14.759l391.097-689.875c3.328-5.868 5.008-12.462 4.864-19.139-0.138-6.677-2.094-13.199-5.668-18.934z" />
<glyph unicode="&#xe954;" glyph-name="error-alt" d="M512 959.999c-101.263 0-200.254-30.029-284.451-86.287s-149.822-136.223-188.574-229.778c-38.753-93.554-48.892-196.502-29.136-295.82s68.519-190.546 140.124-262.154c71.604-71.603 162.834-120.366 262.152-140.119 99.318-19.758 202.266-9.62 295.818 29.132 93.558 38.753 173.522 104.376 229.781 188.575s86.287 183.188 86.287 284.451c0 135.791-53.945 266.019-149.959 362.039-96.020 96.018-226.248 149.962-362.040 149.962zM512 21.334c-84.388 0-166.878 25.021-237.043 71.905s-124.852 113.521-157.145 191.483c-32.293 77.963-40.742 163.748-24.28 246.517 16.463 82.763 57.1 158.788 116.77 218.458s135.695 100.307 218.462 116.77c82.765 16.463 168.551 8.014 246.512-24.28s144.599-86.981 191.483-157.146c46.884-70.165 71.905-152.656 71.905-237.043 0-56.028-11.034-111.514-32.476-163.277-21.443-51.768-52.87-98.801-92.488-138.425-39.624-39.618-86.656-71.045-138.425-92.488-51.763-21.443-107.244-32.476-163.277-32.476zM512 345.599c-13.578 0-26.604 5.708-36.204 15.866-9.6 10.163-14.996 23.941-14.996 38.308v250.049c0 14.369 5.396 28.148 14.996 38.309s22.625 15.868 36.204 15.868c13.578 0 26.604-5.707 36.204-15.868s14.996-23.94 14.996-38.309v-250.049c0-14.366-5.396-28.145-14.996-38.308-9.6-10.158-22.625-15.866-36.204-15.866zM512 191.999c28.278 0 51.2 22.922 51.2 51.2s-22.922 51.2-51.2 51.2c-28.278 0-51.2-22.922-51.2-51.2s22.922-51.2 51.2-51.2z" />
<glyph unicode="&#xe955;" glyph-name="stop-circle" d="M512 959.999c282.771 0 512-229.23 512-512s-229.229-512-512-512c-282.77 0-512 229.229-512 512s229.23 512 512 512zM512 831.999c-212.077 0-384-171.922-384-384s171.922-384 384-384c212.076 0 384 171.924 384 384s-171.924 384-384 384zM320 575.999c0 35.346 28.654 64 64 64h256c35.347 0 64-28.654 64-64v-256c0-35.347-28.652-64-64-64h-256c-35.346 0-64 28.652-64 64v256z" />
<glyph unicode="&#xe956;" glyph-name="exclamation-circle" d="M512 959.999c282.771 0 512-229.23 512-512s-229.229-512-512-512c-282.77 0-512 229.229-512 512s229.23 512 512 512zM512 255.999c-35.346 0-64-28.653-64-64s28.654-64 64-64c35.347 0 64 28.653 64 64s-28.653 64-64 64zM512 767.999c-32.822 0-59.873-24.707-63.569-56.536l-0.431-7.464v-256c0-35.347 28.654-64 64-64 32.822 0 59.873 24.707 63.569 56.536l0.431 7.464v256c0 35.346-28.653 64-64 64z" />
<glyph unicode="&#xe957;" glyph-name="image-add" d="M448 959.999c35.347 0 64-28.654 64-64s-28.652-64-64-64h-256c-35.346 0-64-28.654-64-64v-492.607l139.92 209.807c20.090 28.125 58.447 34.884 86.72 16.624l6.332-4.659 329.284-274.404 125.36 225.239h144.384c35.347 0 64-28.652 64-64v-256c0-106.039-85.961-192-192-192h-640c-106.039 0-192 85.961-192 192v640c0 106.039 85.961 192 192 192h256zM288 767.999c53.021 0 96-42.979 96-96s-42.979-96-96-96c-53.021 0-96 42.979-96 96s42.979 96 96 96zM832 959.999c35.347 0 64-28.654 64-64v-64h64c35.347 0 64-28.654 64-64s-28.652-64-64-64h-64v-64c0-35.347-28.652-64-64-64s-64 28.652-64 64v64h-64c-35.347 0-64 28.652-64 64s28.652 64 64 64h64v64c0 35.346 28.652 64 64 64z" />
<glyph unicode="&#xe958;" glyph-name="forward" d="M573.936 837.779l4.26 4.824c18.457 18.456 47.498 19.877 67.584 4.259l4.824-4.259 360.519-360.653 2.825-3.472 3.668-5.694 2.736-5.776 1.812-5.392 1.482-7.572 0.354-6.047-0.143-3.851-0.894-6.426-1.511-5.704-2.249-5.688-2.68-4.992-3.773-5.36-3.748-4.183-358.4-358.4c-19.996-19.993-52.414-19.993-72.408 0-18.457 18.457-19.876 47.498-4.26 67.584l4.26 4.823 270.905 270.996h-797.9c-28.278 0-51.2 22.922-51.2 51.2s22.922 51.2 51.2 51.2h798.003l-271.007 270.996c-18.457 18.457-19.876 47.5-4.26 67.584v0z" />
<glyph unicode="&#xe959;" glyph-name="paste1" d="M967.927 519.776c0 4.782 0 9.569-4.879 19.139-4.874 4.787-4.874 9.569-9.754 14.354l-141.409 138.767c-9.749 9.57-19.502 14.354-34.13 14.354h-73.145v76.561c0 62.206-53.638 114.841-117.028 114.841h-107.274c-19.507 38.28-58.517 62.206-102.402 62.206s-82.895-23.926-102.4-62.206h-107.277c-63.39 0-117.029-52.636-117.029-114.841v-540.712c0-62.203 53.638-114.841 117.029-114.841h141.409v-76.559c0-62.208 53.638-114.841 117.027-114.841h424.228c14.633 0 29.261 0 39.014 4.787 24.377 9.569 34.13 19.139 43.884 28.708 34.135 33.496 39.010 76.559 39.010 90.916 0 258.392 0 445.011-4.874 459.367zM758.247 605.906l112.153-110.055c0-4.787 0-4.787 0-9.569h-121.907v119.625h9.754zM377.906 864.299c9.752 0 19.505-9.57 19.505-19.14s-9.752-19.14-19.505-19.14c-9.752 0-14.628 9.57-14.628 19.14s4.877 19.14 14.628 19.14zM168.229 227.885c-9.752 0-19.505 4.787-19.505 14.357v540.712c0 9.57 9.752 19.14 19.505 19.14h107.277c19.505-38.281 58.514-66.99 107.277-66.99s87.773 28.71 107.275 66.99h97.525c9.754 0 19.502-9.57 19.502-19.14v-81.346h-180.419c-63.389 0-117.027-52.636-117.027-114.841v-363.663h-141.409v4.782zM870.402 65.196c0-14.357-4.874-23.926-9.754-28.712-4.874-4.782-9.754-4.782-9.754-4.782h-424.228c-9.749 0-19.504 9.569-19.504 19.139v540.712c0 9.57 9.755 19.14 19.504 19.14h224.308v-167.479c0-28.708 19.502-47.846 48.763-47.846h170.665c0-110.059 0-220.114 0-330.169z" />
<glyph unicode="&#xe95a;" glyph-name="paste" d="M71.464 192.428l-7.464-0.429-7.464 0.429c-29.381 3.417-52.692 26.726-56.105 56.109l-0.431 7.462v640l0.431 7.464c3.412 29.381 26.725 52.692 56.105 56.105l7.464 0.431 647.462-0.431c31.834-3.696 56.537-30.747 56.537-63.569s-24.704-59.872-56.537-63.569l-7.462-0.431h-576v-576l-0.431-7.462c-3.412-29.382-26.725-52.691-56.105-56.109zM967.463-63.572l-7.462-0.429-647.464 0.429-7.211 1.261c-25.917 6.080-45.766 27.916-48.895 54.847l-0.431 7.462v640l0.431 7.464c3.412 29.381 26.725 52.692 56.105 56.105l7.464 0.431 647.462-0.431 7.212-1.26c25.92-6.081 45.766-27.912 48.896-54.846l0.429-7.464v-640l-0.429-7.462c-3.417-29.382-26.726-52.691-56.109-56.109z" />
<glyph unicode="&#xe95b;" glyph-name="fail" d="M512 959.999c282.752 0 512-229.248 512-512s-229.248-512-512-512c-282.752 0-512 229.248-512 512s229.248 512 512 512zM274.745 301.253c-24.993-24.992-24.993-65.517 0-90.509s65.516-24.992 90.51 0l146.745 146.745 146.746-146.745c24.992-24.992 65.517-24.992 90.509 0s24.992 65.517 0 90.509l-146.745 146.746 146.745 146.745c24.992 24.994 24.992 65.516 0 90.51s-65.517 24.993-90.509 0l-146.746-146.746-146.745 146.746c-24.994 24.993-65.516 24.993-90.51 0s-24.993-65.516 0-90.51l146.746-146.745-146.746-146.746z" />
<glyph unicode="&#xe95c;" glyph-name="success" d="M512 959.999c-282.752 0-512-229.248-512-512s229.248-512 512-512c282.752 0 512 229.248 512 512s-229.248 512-512 512zM448.016 191.961c-16.896 0-33.216 6.656-45.248 18.752l-128 128.002c-25.024 25.024-25.024 65.472 0 90.496s65.472 25.024 90.496 0l72.832-72.832 212.675 319.104c19.578 29.44 59.258 37.376 88.768 17.728 29.37-19.648 37.312-59.328 17.728-88.768l-256.003-384.002c-10.624-15.936-27.904-26.304-46.912-28.16-2.176-0.192-4.224-0.32-6.336-0.32z" />
<glyph unicode="&#xe95d;" glyph-name="tablet" d="M64 767.999c0 106.039 85.961 192 192 192h512c106.041 0 192-85.961 192-192v-640c0-106.041-85.959-192-192-192h-512c-106.039 0-192 85.959-192 192v640zM256 831.999c-35.346 0-64-28.654-64-64v-640c0-35.348 28.654-64 64-64h512c35.348 0 64 28.653 64 64v640c0 35.346-28.653 64-64 64h-512zM576 255.999c0-35.346-28.654-64-64-64s-64 28.654-64 64c0 35.346 28.654 64 64 64s64-28.654 64-64z" />
<glyph unicode="&#xe95e;" glyph-name="sort-arrow-up" d="M743.226 525.42l6.029 5.324c23.071 23.071 24.845 59.373 5.324 84.481l-5.324 6.029-194.813 194.65-4.342 3.533-7.12 4.582-7.214 3.424-6.742 2.266-9.465 1.85-7.558 0.442-4.815-0.179-8.031-1.114-7.13-1.888-7.109-2.816-6.239-3.347-6.703-4.717-5.226-4.685-191.999-192c-24.992-24.992-24.992-65.516 0-90.509 23.072-23.071 59.373-24.845 84.48-5.324l6.029 5.324 82.746 82.695v-485.44c0-35.346 28.654-64 64-64s64 28.654 64 64v485.44l82.745-82.695c23.071-23.071 59.374-24.845 84.481-5.324v0z" />
<glyph unicode="&#xe95f;" glyph-name="sort-arrow-down" d="M280.774 370.578l-6.029-5.324c-23.071-23.071-24.845-59.373-5.324-84.481l5.324-6.029 194.813-194.65 4.342-3.533 7.12-4.582 7.214-3.424 6.742-2.266 9.465-1.85 7.558-0.442 4.815 0.179 8.031 1.114 7.13 1.888 7.109 2.816 6.239 3.347 6.703 4.717 5.226 4.685 191.999 192c24.992 24.992 24.992 65.516 0 90.509-23.072 23.071-59.373 24.845-84.48 5.324l-6.029-5.324-82.746-82.695v485.44c0 35.346-28.654 64-64 64s-64-28.654-64-64v-485.44l-82.745 82.695c-23.071 23.071-59.374 24.845-84.481 5.324v0z" />
<glyph unicode="&#xe960;" glyph-name="chevron-right" d="M344.285-42.578l438.853 438.853c28.599 28.599 28.599 74.897 0 103.423l-438.853 438.853c-28.599 28.599-74.897 28.599-103.423 0s-28.599-74.897 0-103.423l387.142-387.142-387.142-387.142c-28.599-28.599-28.599-74.897 0-103.423s74.897-28.599 103.423 0z" />
<glyph unicode="&#xe961;" glyph-name="chevrons-left" d="M490.57 134.022l-313.991 313.991 313.991 313.991c28.598 28.598 28.598 74.895 0 103.42s-74.895 28.598-103.42 0l-365.701-365.701c-28.598-28.598-28.598-74.895 0-103.42l365.701-365.701c28.598-28.598 74.895-28.598 103.42 0s28.598 74.895 0 103.42zM1002.552 134.022l-313.991 313.991 313.991 313.991c28.598 28.598 28.598 74.895 0 103.42s-74.895 28.598-103.42 0l-365.701-365.701c-28.598-28.598-28.598-74.895 0-103.42l365.701-365.701c28.598-28.598 74.895-28.598 103.42 0s28.598 74.895 0 103.42z" />
<glyph unicode="&#xe962;" glyph-name="chevrons-right" d="M636.85 30.574l365.701 365.701c28.598 28.598 28.598 74.895 0 103.42l-365.701 365.701c-28.598 28.598-74.895 28.598-103.42 0s-28.598-74.895 0-103.42l313.991-313.991-313.991-313.991c-28.598-28.598-28.598-74.895 0-103.42s74.895-28.598 103.42 0zM124.868 30.574l365.701 365.701c28.598 28.598 28.598 74.895 0 103.42l-365.701 365.701c-28.598 28.598-74.895 28.598-103.42 0s-28.598-74.895 0-103.42l313.991-313.991-313.991-313.991c-28.598-28.598-28.598-74.895 0-103.42s74.895-28.598 103.42 0z" />
<glyph unicode="&#xe963;" glyph-name="star-9" d="M483.502 65.108l-221.6-121.745c-29.933-16.444-66.956-4.42-82.692 26.863-6.266 12.45-8.428 26.718-6.153 40.593l42.322 257.859c3.407 20.757-3.179 41.938-17.61 56.638l-179.278 182.618c-24.216 24.667-24.712 65.179-1.107 90.485 9.4 10.078 21.716 16.636 35.042 18.659l247.756 37.622c19.944 3.028 37.185 16.119 46.104 35.004l110.8 234.611c14.967 31.69 51.683 44.702 82.008 29.061 12.076-6.228 21.85-16.442 27.81-29.061l110.799-234.611c8.92-18.885 26.161-31.975 46.104-35.004l247.754-37.622c33.468-5.082 56.653-37.552 51.789-72.524-1.929-13.926-8.209-26.797-17.852-36.62l-179.278-182.618c-14.432-14.7-21.017-35.881-17.609-56.638l42.321-257.859c5.719-34.833-16.668-67.908-49.999-73.89-13.272-2.372-26.925-0.119-38.845 6.434l-221.6 121.745c-17.838 9.796-39.148 9.796-56.987 0zM401.324 214.687c69.016 37.917 152.327 37.917 221.344 0l24.022-13.198-6.491 39.548c-12.166 74.124 11.447 150.068 64.236 203.839l34.295 34.935-40.543 6.156c-76.721 11.651-141.866 61.111-174.804 130.854l-11.387 24.111-11.386-24.111c-32.939-69.744-98.083-119.204-174.804-130.854l-40.543-6.156 34.295-34.935c52.788-53.771 76.401-129.715 64.236-203.839l-6.491-39.548 24.022 13.198zM276.070 546.978h149.468v-390.277h-149.468v390.277zM273.531 628.079h201.929v-465.304h-201.929v465.304zM401.904 680.686h110.105v-510.674h-110.105v510.674zM425.206 684.958h136.476v-514.945h-136.476v514.945zM446.545 627.628h155.588v-461.315h-155.588v461.315zM495.636 588.103h194.502v-425.568h-194.502v425.568zM644.127 538.151h134.107v-142.153h-134.107v142.153z" />
<glyph unicode="&#xe964;" glyph-name="star-8" horiz-adv-x="1109" d="M561.815 65.108l-221.6-121.745c-29.933-16.444-66.955-4.42-82.692 26.863-6.266 12.45-8.428 26.718-6.152 40.593l42.322 257.859c3.407 20.757-3.179 41.938-17.61 56.638l-179.279 182.618c-24.216 24.667-24.712 65.179-1.107 90.485 9.399 10.078 21.716 16.636 35.042 18.659l247.757 37.622c19.944 3.028 37.185 16.119 46.104 35.004l110.8 234.611c14.966 31.69 51.682 44.702 82.008 29.061 12.076-6.228 21.85-16.442 27.809-29.061l110.8-234.611c8.919-18.885 26.16-31.975 46.104-35.004l247.76-37.622c33.459-5.082 56.653-37.552 51.789-72.524-1.937-13.926-8.218-26.797-17.86-36.62l-179.277-182.618c-14.43-14.7-21.018-35.881-17.604-56.638l42.317-257.859c5.717-34.833-16.666-67.908-49.997-73.89-13.278-2.372-26.927-0.119-38.846 6.434l-221.6 121.745c-17.838 9.796-39.149 9.796-56.987 0zM479.637 214.687c69.016 37.917 152.327 37.917 221.343 0l24.022-13.198-6.491 39.548c-12.165 74.124 11.447 150.068 64.236 203.839l34.296 34.935-40.544 6.156c-76.721 11.651-141.866 61.111-174.804 130.854l-11.387 24.111-11.387-24.111c-32.938-69.744-98.082-119.204-174.804-130.854l-40.543-6.156 34.296-34.935c52.787-53.771 76.401-129.715 64.235-203.839l-6.49-39.548 24.022 13.198zM354.383 546.978h149.467v-390.277h-149.467v390.277zM351.844 628.079h201.929v-465.304h-201.929v465.304zM480.217 680.686h110.104v-510.674h-110.104v510.674zM503.519 684.958h136.475v-514.945h-136.475v514.945zM524.857 627.628h155.588v-461.315h-155.588v461.315zM573.949 588.103h194.502v-425.568h-194.502v425.568z" />
<glyph unicode="&#xe965;" glyph-name="star-7" horiz-adv-x="1109" d="M564.128 65.108l-221.6-121.745c-29.933-16.444-66.955-4.42-82.692 26.863-6.266 12.45-8.428 26.718-6.152 40.593l42.322 257.859c3.407 20.757-3.179 41.938-17.61 56.638l-179.279 182.618c-24.216 24.667-24.712 65.179-1.107 90.485 9.399 10.078 21.716 16.636 35.042 18.659l247.757 37.622c19.944 3.028 37.185 16.119 46.104 35.004l110.8 234.611c14.966 31.69 51.682 44.702 82.008 29.061 12.076-6.228 21.85-16.442 27.809-29.061l110.8-234.611c8.919-18.885 26.16-31.975 46.104-35.004l247.76-37.622c33.459-5.082 56.653-37.552 51.789-72.524-1.937-13.926-8.218-26.797-17.86-36.62l-179.277-182.618c-14.43-14.7-21.018-35.881-17.613-56.638l42.325-257.859c5.717-34.833-16.666-67.908-49.997-73.89-13.278-2.372-26.931-0.119-38.846 6.434l-221.6 121.745c-17.838 9.796-39.149 9.796-56.987 0zM481.949 214.687c69.017 37.917 152.328 37.917 221.344 0l24.022-13.198-6.491 39.548c-12.165 74.124 11.447 150.068 64.236 203.839l34.296 34.935-40.544 6.156c-76.721 11.651-141.866 61.111-174.804 130.854l-11.387 24.111-11.387-24.111c-32.938-69.744-98.082-119.204-174.804-130.854l-40.543-6.156 34.296-34.935c52.787-53.771 76.401-129.715 64.235-203.839l-6.49-39.548 24.021 13.198zM356.695 546.978h149.468v-390.277h-149.468v390.277zM354.156 628.079h201.93v-465.304h-201.93v465.304zM482.529 680.686h110.104v-510.674h-110.104v510.674zM505.83 684.958h136.476v-514.945h-136.476v514.945zM527.17 627.628h155.588v-461.315h-155.588v461.315z" />
<glyph unicode="&#xe966;" glyph-name="star-6" horiz-adv-x="1109" d="M566.44 65.108l-221.6-121.745c-29.933-16.444-66.955-4.42-82.692 26.863-6.266 12.45-8.428 26.718-6.152 40.593l42.322 257.859c3.407 20.757-3.179 41.938-17.61 56.638l-179.279 182.618c-24.216 24.667-24.712 65.179-1.107 90.485 9.399 10.078 21.716 16.636 35.042 18.659l247.757 37.622c19.943 3.028 37.185 16.119 46.104 35.004l110.8 234.611c14.966 31.69 51.682 44.702 82.007 29.061 12.076-6.228 21.85-16.442 27.81-29.061l110.8-234.611c8.919-18.885 26.16-31.975 46.104-35.004l247.76-37.622c33.459-5.082 56.653-37.552 51.789-72.524-1.937-13.926-8.218-26.797-17.86-36.62l-179.277-182.618c-14.43-14.7-21.018-35.881-17.613-56.638l42.325-257.859c5.717-34.833-16.666-67.908-49.997-73.89-13.278-2.372-26.931-0.119-38.846 6.434l-221.6 121.745c-17.838 9.796-39.149 9.796-56.987 0zM484.262 214.687c69.017 37.917 152.328 37.917 221.344 0l24.022-13.198-6.491 39.548c-12.165 74.124 11.447 150.068 64.236 203.839l34.296 34.935-40.544 6.156c-76.721 11.651-141.866 61.111-174.804 130.854l-11.387 24.111-11.387-24.111c-32.938-69.744-98.082-119.204-174.804-130.854l-40.543-6.156 34.295-34.935c52.788-53.771 76.401-129.715 64.236-203.839l-6.49-39.548 24.021 13.198zM359.008 546.978h149.468v-390.277h-149.468v390.277zM356.468 628.079h201.93v-465.304h-201.93v465.304zM484.842 680.686h110.104v-510.674h-110.104v510.674zM508.143 684.958h136.476v-514.945h-136.476v514.945z" />
<glyph unicode="&#xe967;" glyph-name="star-5" horiz-adv-x="1109" d="M566.523 65.108l-221.6-121.745c-29.933-16.444-66.956-4.42-82.692 26.863-6.266 12.45-8.428 26.718-6.153 40.593l42.322 257.859c3.407 20.757-3.179 41.938-17.61 56.638l-179.278 182.618c-24.217 24.667-24.712 65.179-1.107 90.485 9.399 10.078 21.716 16.636 35.042 18.659l247.756 37.622c19.944 3.028 37.185 16.119 46.104 35.004l110.8 234.611c14.967 31.69 51.683 44.702 82.008 29.061 12.076-6.228 21.85-16.442 27.81-29.061l110.799-234.611c8.92-18.885 26.161-31.975 46.104-35.004l247.754-37.622c33.468-5.082 56.653-37.552 51.789-72.524-1.929-13.926-8.209-26.797-17.852-36.62l-179.277-182.618c-14.43-14.7-21.018-35.881-17.613-56.638l42.325-257.859c5.717-34.833-16.674-67.908-49.997-73.89-13.278-2.372-26.931-0.119-38.849 6.434l-221.6 121.745c-17.838 9.796-39.148 9.796-56.987 0zM484.345 214.687c69.016 37.917 152.327 37.917 221.344 0l24.022-13.198-6.491 39.548c-12.166 74.124 11.447 150.068 64.236 203.839l34.295 34.935-40.543 6.156c-76.721 11.651-141.866 61.111-174.804 130.854l-11.387 24.111-11.386-24.111c-32.939-69.744-98.083-119.204-174.804-130.854l-40.543-6.156 34.295-34.935c52.788-53.771 76.401-129.715 64.236-203.839l-6.491-39.548 24.022 13.198zM359.091 546.978h149.468v-390.277h-149.468v390.277zM356.552 628.079h201.929v-465.304h-201.929v465.304z" />
<glyph unicode="&#xe968;" glyph-name="star-4" d="M483.502 65.108l-221.6-121.745c-29.933-16.444-66.956-4.42-82.692 26.863-6.266 12.45-8.428 26.718-6.153 40.593l42.322 257.859c3.407 20.757-3.179 41.938-17.61 56.638l-179.278 182.618c-24.216 24.667-24.712 65.179-1.107 90.485 9.4 10.078 21.716 16.636 35.042 18.659l247.756 37.622c19.944 3.028 37.185 16.119 46.104 35.004l110.8 234.611c14.967 31.69 51.683 44.702 82.008 29.061 12.076-6.228 21.85-16.442 27.81-29.061l110.799-234.611c8.92-18.885 26.161-31.975 46.104-35.004l247.754-37.622c33.468-5.082 56.653-37.552 51.789-72.524-1.929-13.926-8.209-26.797-17.852-36.62l-179.278-182.618c-14.432-14.7-21.017-35.881-17.609-56.638l42.321-257.859c5.719-34.833-16.668-67.908-49.999-73.89-13.272-2.372-26.925-0.119-38.845 6.434l-221.6 121.745c-17.838 9.796-39.148 9.796-56.987 0zM401.324 214.687c69.016 37.917 152.327 37.917 221.344 0l24.022-13.198-6.491 39.548c-12.166 74.124 11.447 150.068 64.236 203.839l34.295 34.935-40.543 6.156c-76.721 11.651-141.866 61.111-174.804 130.854l-11.387 24.111-11.386-24.111c-32.939-69.744-98.083-119.204-174.804-130.854l-40.543-6.156 34.295-34.935c52.788-53.771 76.401-129.715 64.236-203.839l-6.491-39.548 24.022 13.198zM276.070 546.978h149.468v-390.277h-149.468v390.277zM273.531 628.079h201.929v-465.304h-201.929v465.304z" />
<glyph unicode="&#xe969;" glyph-name="star-3" d="M483.502 65.108l-221.6-121.745c-29.933-16.444-66.956-4.42-82.692 26.863-6.266 12.45-8.428 26.718-6.153 40.593l42.322 257.859c3.407 20.757-3.179 41.938-17.61 56.638l-179.278 182.618c-24.216 24.667-24.712 65.179-1.107 90.485 9.4 10.078 21.716 16.636 35.042 18.659l247.756 37.622c19.944 3.028 37.185 16.119 46.104 35.004l110.8 234.611c14.967 31.69 51.683 44.702 82.008 29.061 12.076-6.228 21.85-16.442 27.81-29.061l110.799-234.611c8.92-18.885 26.161-31.975 46.104-35.004l247.754-37.622c33.468-5.082 56.653-37.552 51.789-72.524-1.929-13.926-8.209-26.797-17.852-36.62l-179.278-182.618c-14.432-14.7-21.017-35.881-17.609-56.638l42.321-257.859c5.719-34.833-16.668-67.908-49.999-73.89-13.272-2.372-26.925-0.119-38.845 6.434l-221.6 121.745c-17.838 9.796-39.148 9.796-56.987 0zM401.324 214.687c69.016 37.917 152.327 37.917 221.344 0l24.022-13.198-6.491 39.548c-12.166 74.124 11.447 150.068 64.236 203.839l34.295 34.935-40.543 6.156c-76.721 11.651-141.866 61.111-174.804 130.854l-11.387 24.111-11.386-24.111c-32.939-69.744-98.083-119.204-174.804-130.854l-40.543-6.156 34.295-34.935c52.788-53.771 76.401-129.715 64.236-203.839l-6.491-39.548 24.022 13.198zM276.070 546.978h149.468v-390.277h-149.468v390.277z" />
<glyph unicode="&#xe96a;" glyph-name="star-2" horiz-adv-x="1109" d="M485.794 65.108l-221.6-121.745c-29.932-16.444-66.955-4.42-82.691 26.863-6.267 12.45-8.429 26.718-6.153 40.593l42.322 257.859c3.407 20.757-3.179 41.938-17.61 56.638l-179.278 182.618c-24.216 24.667-24.712 65.179-1.107 90.485 9.4 10.078 21.716 16.636 35.042 18.659l247.757 37.622c19.944 3.028 37.185 16.119 46.104 35.004l110.8 234.611c14.966 31.69 51.682 44.702 82.008 29.061 12.076-6.228 21.85-16.442 27.809-29.061l110.8-234.611c8.919-18.885 26.16-31.975 46.104-35.004l247.758-37.622c33.468-5.082 56.653-37.552 51.789-72.524-1.937-13.926-8.209-26.797-17.852-36.62l-179.281-182.618c-14.432-14.7-21.017-35.881-17.61-56.638l42.322-257.859c5.714-34.833-16.669-67.908-49.999-73.89-13.273-2.372-26.925-0.119-38.845 6.434l-221.6 121.745c-17.838 9.796-39.149 9.796-56.987 0zM403.616 214.687c69.016 37.917 152.327 37.917 221.343 0l24.022-13.198-6.49 39.548c-12.166 74.124 11.447 150.068 64.235 203.839l34.296 34.935-40.544 6.156c-76.721 11.651-141.866 61.111-174.804 130.854l-11.387 24.111-11.387-24.111c-32.938-69.744-98.082-119.204-174.804-130.854l-40.544-6.156 34.296-34.935c52.787-53.771 76.401-129.715 64.235-203.839l-6.49-39.548 24.022 13.198zM258.292 618.666h87.741v-426.667h-87.741v426.667z" />
<glyph unicode="&#xe96b;" glyph-name="star-1" horiz-adv-x="1109" d="M485.919 65.108l-221.6-121.745c-29.933-16.444-66.956-4.42-82.692 26.863-6.266 12.45-8.428 26.718-6.153 40.593l42.322 257.859c3.407 20.757-3.179 41.938-17.61 56.638l-179.278 182.618c-24.216 24.667-24.712 65.179-1.107 90.485 9.4 10.078 21.716 16.636 35.042 18.659l247.756 37.622c19.944 3.028 37.185 16.119 46.104 35.004l110.8 234.611c14.967 31.69 51.683 44.702 82.008 29.061 12.076-6.228 21.85-16.442 27.81-29.061l110.799-234.611c8.92-18.885 26.161-31.975 46.104-35.004l247.761-37.622c33.459-5.082 56.653-37.552 51.789-72.524-1.937-13.926-8.218-26.797-17.86-36.62l-179.276-182.618c-14.432-14.7-21.017-35.881-17.609-56.638l42.321-257.859c5.717-34.833-16.668-67.908-49.999-73.89-13.272-2.372-26.925-0.119-38.845 6.434l-221.6 121.745c-17.838 9.796-39.148 9.796-56.987 0zM403.741 214.687c69.016 37.917 152.327 37.917 221.344 0l24.022-13.198-6.491 39.548c-12.166 74.124 11.447 150.068 64.236 203.839l34.295 34.935-40.543 6.156c-76.721 11.651-141.866 61.111-174.804 130.854l-11.387 24.111-11.386-24.111c-32.939-69.744-98.083-119.204-174.804-130.854l-40.543-6.156 34.295-34.935c52.788-53.771 76.401-129.715 64.236-203.839l-6.491-39.548 24.022 13.198z" />
<glyph unicode="&#xe96c;" glyph-name="bold-close" d="M632.662 447.998l195.669 195.669c33.364 33.365 33.364 87.296 0 120.661s-87.296 33.365-120.661 0l-195.669-195.669-195.669 195.669c-33.365 33.365-87.296 33.365-120.661 0s-33.365-87.296 0-120.661l195.669-195.669-195.669-195.669c-33.365-33.365-33.365-87.296 0-120.661 16.64-16.64 38.485-25.002 60.331-25.002s43.691 8.362 60.331 25.002l195.669 195.669 195.669-195.669c16.64-16.64 38.485-25.002 60.331-25.002s43.691 8.362 60.331 25.002c33.364 33.365 33.364 87.296 0 120.661l-195.669 195.669z" />
<glyph unicode="&#xe96d;" glyph-name="star-0" d="M483.502 65.108l-221.6-121.745c-29.933-16.444-66.956-4.42-82.692 26.863-6.266 12.45-8.428 26.718-6.153 40.593l42.322 257.859c3.407 20.757-3.179 41.938-17.61 56.638l-179.278 182.618c-24.216 24.667-24.712 65.179-1.107 90.485 9.4 10.078 21.716 16.636 35.042 18.659l247.756 37.622c19.944 3.028 37.185 16.119 46.104 35.004l110.8 234.611c14.967 31.69 51.683 44.702 82.008 29.061 12.076-6.228 21.85-16.442 27.81-29.061l110.799-234.611c8.92-18.885 26.161-31.975 46.104-35.004l247.754-37.622c33.468-5.082 56.653-37.552 51.789-72.524-1.929-13.926-8.209-26.797-17.852-36.62l-179.278-182.618c-14.432-14.7-21.017-35.881-17.609-56.638l42.321-257.859c5.719-34.833-16.668-67.908-49.999-73.89-13.272-2.372-26.925-0.119-38.845 6.434l-221.6 121.745c-17.838 9.796-39.148 9.796-56.987 0zM401.324 214.687c69.016 37.917 152.327 37.917 221.344 0l24.022-13.198-6.491 39.548c-12.166 74.124 11.447 150.068 64.236 203.839l34.295 34.935-40.543 6.156c-76.722 11.651-141.867 61.111-174.804 130.854l-11.387 24.111-11.386-24.111c-32.939-69.744-98.083-119.204-174.804-130.854l-40.543-6.156 34.295-34.935c52.788-53.771 76.401-129.715 64.236-203.839l-6.491-39.548 24.022 13.198z" />
<glyph unicode="&#xe96e;" glyph-name="star-10" d="M483.502 65.108l-221.6-121.745c-29.933-16.444-66.956-4.42-82.692 26.863-6.266 12.45-8.428 26.718-6.153 40.593l42.322 257.859c3.407 20.757-3.179 41.938-17.61 56.638l-179.278 182.618c-24.216 24.667-24.712 65.179-1.107 90.485 9.4 10.078 21.716 16.636 35.042 18.659l247.756 37.622c19.944 3.028 37.185 16.119 46.104 35.004l110.8 234.611c14.967 31.69 51.683 44.702 82.008 29.061 12.076-6.228 21.85-16.442 27.81-29.061l110.799-234.611c8.92-18.885 26.161-31.975 46.104-35.004l247.754-37.622c33.468-5.082 56.653-37.552 51.789-72.524-1.929-13.926-8.209-26.797-17.852-36.62l-179.278-182.618c-14.432-14.7-21.017-35.881-17.609-56.638l42.321-257.859c5.719-34.833-16.668-67.908-49.999-73.89-13.272-2.372-26.925-0.119-38.845 6.434l-221.6 121.745c-17.838 9.796-39.148 9.796-56.987 0z" />
<glyph unicode="&#xe96f;" glyph-name="trash" horiz-adv-x="896" d="M536 127.999h48c6.365 0 12.47 2.528 16.971 7.027 4.5 4.506 7.029 10.605 7.029 16.973v432c0 6.365-2.529 12.47-7.029 16.971s-10.605 7.029-16.971 7.029h-48c-6.365 0-12.47-2.529-16.971-7.029s-7.029-10.605-7.029-16.971v-432c0-6.368 2.529-12.467 7.029-16.973 4.501-4.499 10.605-7.027 16.971-7.027zM864 799.999h-164.819l-68.001 113.4c-8.534 14.22-20.606 25.986-35.039 34.153s-30.737 12.455-47.321 12.447h-201.64c-16.577 0.001-32.872-4.291-47.298-12.457s-26.492-19.929-35.022-34.143l-68.040-113.4h-164.82c-8.487 0-16.626-3.372-22.627-9.373s-9.373-14.14-9.373-22.627v-32c0-8.487 3.371-16.627 9.373-22.627s14.14-9.373 22.627-9.373h32v-672c0-25.459 10.115-49.882 28.118-67.885s42.422-28.115 67.882-28.115h576c25.459 0 49.882 10.112 67.885 28.115s28.115 42.426 28.115 67.885v672h32c8.486 0 16.627 3.372 22.63 9.373 5.997 6.001 9.37 14.14 9.37 22.627v32c0 8.487-3.373 16.626-9.37 22.627-6.003 6.001-14.144 9.373-22.63 9.373zM343.68 858.179c1.069 1.78 2.582 3.252 4.392 4.273s3.852 1.553 5.928 1.548h188c2.074 0.003 4.112-0.532 5.917-1.553s3.315-2.49 4.383-4.268l34.92-58.18h-278.44l34.9 58.18zM736 31.999h-576v672h576v-672zM312 127.999h48c6.365 0 12.47 2.528 16.97 7.027 4.501 4.506 7.030 10.605 7.030 16.973v432c0 6.365-2.529 12.47-7.030 16.971s-10.605 7.029-16.97 7.029h-48c-6.365 0-12.47-2.529-16.97-7.029s-7.030-10.605-7.030-16.971v-432c0-6.368 2.529-12.467 7.030-16.973 4.5-4.499 10.605-7.027 16.97-7.027z" />
<glyph unicode="&#xe970;" glyph-name="replace" horiz-adv-x="1170" d="M604.499 813.086c-6.438 0.358-12.922 0.538-19.446 0.538-151.581 0-280.994-97.654-332.057-235.154-12.065-32.487-40.476-57.347-74.277-57.347h-4.159c-1.285 0-2.56 0.035-3.827 0.105-41.431 2.198-72.705 40.845-59.979 82.034 63.899 206.799 252.042 356.619 474.193 356.619 9.256 0 18.453-0.26 27.583-0.774 173.727-9.731 323.737-111.172 405.082-258.086l12.658 48.612c10.158 39.010 49.134 62.16 87.042 51.707 37.916-10.453 60.417-50.549 50.252-89.56l-39.664-152.318c-20.314-78.020-98.259-124.32-174.083-103.415l-148.036 40.813c-37.916 10.453-60.417 50.549-50.252 89.559 10.158 39.011 49.126 62.161 87.042 51.708l54.383-14.996c-57.368 107.977-166.136 182.904-292.456 189.953zM991.28 374.878c-33.799 0-62.209-24.859-74.274-57.347-51.064-137.501-180.475-235.153-332.059-235.153-6.394 0-12.747 0.176-19.058 0.512-126.485 6.917-235.419 81.886-292.847 189.977l54.388-14.996c37.913-10.453 76.884 12.698 87.043 51.708s-12.341 79.107-50.253 89.559l-148.037 40.813c-75.826 20.905-153.767-25.395-174.084-103.415l-39.666-152.318c-10.159-39.013 12.34-79.108 50.254-89.557 37.913-10.457 76.884 12.695 87.043 51.707l12.659 48.607c81.348-146.91 231.354-248.35 405.082-258.083 9.131-0.512 18.328-0.775 27.583-0.775 222.147 0 410.292 149.82 474.191 356.62 12.731 41.188-18.545 79.835-59.978 82.035-1.265 0.069-2.544 0.104-3.824 0.104h-4.161z" />
<glyph unicode="&#xe971;" glyph-name="duplicate" d="M256.431 903.463c3.412 29.381 26.724 52.693 56.106 56.106 2.449 0.284 4.939 0.431 7.464 0.431l647.462-0.431c29.382-3.413 52.691-26.724 56.109-56.106l0.429-7.464v-640c0-2.522-0.147-5.018-0.429-7.462-3.699-31.834-30.752-56.538-63.571-56.538h-128c-32.48 0-32.288 24.192-32.045 55.539 0.026 2.765 0.045 5.594 0.045 8.461s-0.019 5.696-0.045 8.461c-0.243 31.347-0.435 55.539 32.045 55.539l64 0.001v511.999h-512v-64c0-32.477-24.191-32.288-55.537-32.044h-0.011c-2.765 0.022-5.587 0.044-8.452 0.044s-5.687-0.022-8.452-0.044h-0.011c-31.346-0.244-55.537-0.433-55.537 32.044v128c0 2.525 0.146 5.015 0.431 7.464zM704-64.001l-647.464 0.435-7.211 1.261c-25.918 6.080-45.767 27.91-48.895 54.842l-0.431 7.462v640.003l0.431 7.464c3.413 29.381 26.724 52.693 56.106 56.106h654.926l7.213-1.26c25.92-6.081 45.766-27.914 48.896-54.846l0.429-7.464v-640.003l-0.429-7.462c-3.418-29.382-26.726-52.691-56.109-56.102l-7.462-0.435zM128 576.002v-512.003h512v512.003h-512z" />
<glyph unicode="&#xe972;" glyph-name="arrow-down" d="M168.589 565.413l307.2-307.197c20.019-20.019 52.38-20.019 72.394 0l307.205 307.197c20.019 20.019 20.019 52.378 0 72.397s-52.378 20.019-72.397 0l-271.004-270.999-271.002 270.999c-20.019 20.019-52.378 20.019-72.397 0-9.984-9.984-15.002-23.091-15.002-36.198s5.018-26.214 15.002-36.198z" />
<glyph unicode="&#xe973;" glyph-name="arrow-up" d="M855.409 330.582l-307.195 307.203c-20.019 20.019-52.38 20.019-72.399 0l-307.2-307.203c-20.019-20.014-20.019-52.378 0-72.397s52.378-20.019 72.397 0l270.999 271.004 271.007-271.004c20.014-20.019 52.372-20.019 72.392 0 9.984 9.989 15.002 23.096 15.002 36.204s-5.018 26.209-15.002 36.193z" />
<glyph unicode="&#xe974;" glyph-name="tablet-crossed" d="M576 255.999c0-35.346-28.651-64-64-64s-64 28.651-64 64 28.654 64 64 64c35.346 0 64-28.651 64-64zM18.745 941.254c24.994 24.994 65.515 24.994 90.51 0l895.998-896c24.992-24.992 24.992-65.515 0-90.51s-65.515-24.992-90.51 0l-896 895.998c-24.994 24.994-24.994 65.515 0 90.51zM896 319.999c-35.346 0-64 28.651-64 64v384c0 35.346-28.651 64-64 64h-384c-35.346 0-64 28.654-64 64s28.654 64 64 64h384c106.041 0 192-85.961 192-192v-384c0-35.346-28.651-64-64-64zM512 319.999c35.346 0 64-28.651 64-64s-28.651-64-64-64c-35.346 0-64 28.651-64 64s28.654 64 64 64zM805.49 63.999c0 0 0.91 0-37.49 0h-512c-38.4 0-64 25.6-64 64v549.49c-28.13 28.13-28.88 28.88-75.506 75.506-21.749 21.749-21.374 21.374-52.494 52.494v-677.49c0-108.8 83.2-192 192-192h512c96 0 106.489 21.504 125.746 39.744-32 32-28.626 28.626-60.626 60.626-27.63 27.63 1.376-1.376-27.63 27.63z" />
<glyph unicode="&#xe975;" glyph-name="desktop-crossed" d="M18.745 941.254c24.994 24.994 65.515 24.994 90.51 0l895.998-896c24.992-24.992 24.992-65.515 0-90.51s-65.515-24.992-90.51 0l-896 895.998c-24.994 24.994-24.994 65.515 0 90.51zM448 63.999v128h128v-128h-128zM768-0.001c0-35.346-28.651-64-64-64h-384c-35.346 0-64 28.651-64 64s28.654 64 64 64h384c35.346 0 64-28.651 64-64zM549.49 319.999h-293.49c-35.346 0-64 28.651-64 64v293.49l-128 128v-421.49c0-106.041 85.961-192 192-192h421.49l-128 128zM320 895.999c0-35.346 28.654-64 64-64h384c35.346 0 64-28.654 64-64v-384c0-35.346 28.651-64 64-64s64 28.651 64 64v384c0 106.039-85.959 192-192 192h-384c-35.346 0-64-28.654-64-64z" />
<glyph unicode="&#xe976;" glyph-name="mobile-crossed" d="M18.745 941.254c24.994 24.994 65.515 24.994 90.51 0l895.998-896c24.992-24.992 24.992-65.515 0-90.51s-65.515-24.992-90.51 0l-896 895.998c-24.994 24.994-24.994 65.515 0 90.51zM256 767.999v-640c0-35.346 28.654-64 64-64h384c35.346 0 64 28.651 64 64h128c0-106.041-85.959-192-192-192h-384c-106.039 0-192 85.959-192 192v640h128zM832 383.999c-35.346 0-64 28.651-64 64v320c0 35.346-28.651 64-64 64h-320c-35.346 0-64 28.654-64 64s28.654 64 64 64h320c106.041 0 192-85.961 192-192v-320c0-35.346-28.651-64-64-64zM512 319.999c35.346 0 64-28.651 64-64s-28.651-64-64-64c-35.346 0-64 28.651-64 64s28.654 64 64 64z" />
<glyph unicode="&#xe977;" glyph-name="save-new" d="M0-0.001c0 35.347 28.654 64 64 64h896c35.347 0 64-28.652 64-64s-28.652-64-64-64h-896c-35.346 0-64 28.652-64 64zM512 959.999c35.347 0 64-28.654 64-64v-640c0-35.347-28.652-64-64-64-35.346 0-64 28.652-64 64v640c0 35.346 28.654 64 64 64zM146.745 621.254c24.994 24.994 65.516 24.994 90.51 0l274.745-274.746 274.745 274.746c24.992 24.994 65.516 24.994 90.509 0s24.992-65.516 0-90.51l-320-319.999c-12-12-28.281-18.745-45.255-18.745s-33.252 6.745-45.255 18.745l-320 319.999c-24.994 24.994-24.994 65.516 0 90.51z" />
<glyph unicode="&#xe978;" glyph-name="saved" d="M663.574 661.185c23.483-20.873 25.594-56.831 4.722-80.314l-151.7-170.669c-10.798-12.146-26.272-19.092-42.522-19.092s-31.723 6.947-42.519 19.092l-75.851 85.336c-20.873 23.482-18.759 59.44 4.724 80.314s59.44 18.759 80.314-4.724l33.332-37.499 109.184 122.832c20.872 23.483 56.832 25.598 80.316 4.724zM56.889-7.112c0 31.42 25.47 56.889 56.889 56.889h796.445c31.42 0 56.889-25.469 56.889-56.889s-25.469-56.889-56.889-56.889h-796.445c-31.419 0-56.889 25.469-56.889 56.889zM512 277.332c-157.094 0-284.444 127.351-284.444 284.444s127.35 284.444 284.444 284.444c157.093 0 284.444-127.35 284.444-284.444s-127.351-284.444-284.444-284.444zM512 163.555c219.932 0 398.222 178.29 398.222 398.222s-178.29 398.222-398.222 398.222c-219.932 0-398.222-178.29-398.222-398.222s178.29-398.222 398.222-398.222z" />
<glyph unicode="&#xe979;" glyph-name="manage-menu" d="M64 639.999c35.346 0 64-28.654 64-64v-512h384c35.346 0 64-28.653 64-64s-28.654-64-64-64h-384c-70.692 0-128 57.306-128 128v512c0 35.346 28.654 64 64 64zM448 831.999h448v-512h-448v512zM384 959.999c-35.346 0-64-28.654-64-64v-640c0-35.347 28.653-64 64-64h576c35.347 0 64 28.653 64 64v640c0 35.346-28.653 64-64 64h-576zM512 639.999c0 35.346 28.654 64 64 64h192c35.347 0 64-28.654 64-64s-28.653-64-64-64h-192c-35.346 0-64 28.654-64 64z" />
<glyph unicode="&#xe97a;" glyph-name="trublog" d="M921.6 908.799c28.278 0 51.2-22.923 51.2-51.2v-819.2c0-28.278-22.922-51.2-51.2-51.2h-819.2c-28.277 0-51.2 22.922-51.2 51.2v819.2c0 28.277 22.923 51.2 51.2 51.2h819.2zM102.4 959.999c-56.554 0-102.4-45.846-102.4-102.4v-819.2c0-56.553 45.846-102.4 102.4-102.4h819.2c56.553 0 102.4 45.847 102.4 102.4v819.2c0 56.554-45.847 102.4-102.4 102.4h-819.2zM819.2 755.199v-307.2h-614.4v307.2h614.4zM204.8 806.399c-28.277 0-51.2-22.923-51.2-51.2v-307.2c0-28.278 22.923-51.2 51.2-51.2h614.4c28.278 0 51.2 22.922 51.2 51.2v307.2c0 28.277-22.922 51.2-51.2 51.2h-614.4zM153.6 115.199c0 14.139 11.462 25.6 25.6 25.6h665.6c14.139 0 25.6-11.461 25.6-25.6s-11.461-25.6-25.6-25.6h-665.6c-14.138 0-25.6 11.461-25.6 25.6zM153.6 268.799c0 14.139 11.462 25.6 25.6 25.6h665.6c14.139 0 25.6-11.461 25.6-25.6s-11.461-25.6-25.6-25.6h-665.6c-14.138 0-25.6 11.461-25.6 25.6z" />
<glyph unicode="&#xe97b;" glyph-name="edit" d="M960 63.999c35.348 0 64-28.652 64-64s-28.652-64-64-64h-896c-35.346 0-64 28.652-64 64s28.654 64 64 64h896zM274.745 493.254l447.999 448c23.071 23.071 59.377 24.846 84.48 5.324l6.031-5.324 192-192c23.071-23.071 24.847-59.374 5.325-84.48l-5.325-6.029-448-448.001c-10.004-9.999-22.973-16.348-36.844-18.191l-8.412-0.553h-192c-32.821 0-59.872 24.709-63.569 56.535l-0.431 7.465v192c0 14.145 4.683 27.807 13.189 38.914l5.556 6.341zM768 805.489l-384-384.002v-101.489h101.49l383.998 384-101.489 101.49z" />
</font>
</defs>
</svg>
